<svg width="20" height="20" viewBox="0 0 20 20" fill="none" xmlns="http://www.w3.org/2000/svg">
<g clip-path="url(#clip0_177_2088)">
<path d="M9.83032 0.950195C7.64242 2.14136 4.68398 3.14215 2.16108 3.14215H1.61328V3.68995C1.61328 8.30781 2.56557 13.2065 5.58237 16.6744C6.68256 17.9391 8.2409 19.1715 9.83025 19.6501C11.4221 19.1708 12.9745 17.9431 14.0781 16.6744C17.0971 13.204 18.0472 8.30252 18.0472 3.68995V3.14215H17.4994C15.002 3.14215 12.0505 2.159 9.83032 0.950195ZM13.3021 15.8968C11.8134 17.6318 10.3066 18.3145 9.83039 18.4986C9.35213 18.3137 7.84623 17.6308 6.35841 15.8968C4.73916 14.0096 2.81745 10.4651 2.71333 4.22438C5.90747 4.0714 8.93043 2.65239 9.83028 2.19421C10.7301 2.65239 13.7531 4.0714 16.9472 4.22438C16.843 10.4651 14.9213 14.0096 13.3021 15.8968Z" fill="#F58020"/>
<path d="M4.8999 9.20449C4.8999 11.923 7.11158 14.1347 9.83008 14.1347C12.5486 14.1347 14.7603 11.923 14.7603 9.20449C14.7603 6.46583 12.5486 4.23779 9.83008 4.23779C7.11158 4.23779 4.8999 6.46587 4.8999 9.20449ZM13.6647 9.20449C13.6647 11.3189 11.9445 13.0391 9.83008 13.0391C7.71569 13.0391 5.9955 11.3189 5.9955 9.20449C5.9955 7.06998 7.71569 5.33339 9.83008 5.33339C11.9445 5.33339 13.6647 7.06998 13.6647 9.20449Z" fill="#F58020"/>
<path d="M8.02616 8.81706L7.25146 9.59175L9.28478 11.6251L12.4111 8.45708L11.6313 7.6875L9.27963 10.0705L8.02616 8.81706Z" fill="#F58020"/>
</g>
<defs>
<clipPath id="clip0_177_2088">
<rect width="18.4339" height="18.7" fill="white" transform="translate(0.613281 0.950195)"/>
</clipPath>
</defs>
</svg>
