<svg width="24" height="25" viewBox="0 0 24 25" fill="none" xmlns="http://www.w3.org/2000/svg">
<path d="M15.75 6.48999C15.75 7.48455 15.3549 8.43838 14.6516 9.14164C13.9484 9.8449 12.9945 10.24 12 10.24C11.0054 10.24 10.0516 9.8449 9.34833 9.14164C8.64506 8.43838 8.24998 7.48455 8.24998 6.48999C8.24998 5.49543 8.64506 4.5416 9.34833 3.83834C10.0516 3.13508 11.0054 2.73999 12 2.73999C12.9945 2.73999 13.9484 3.13508 14.6516 3.83834C15.3549 4.5416 15.75 5.49543 15.75 6.48999ZM4.50098 20.608C4.53311 18.6403 5.33731 16.7642 6.74015 15.384C8.14299 14.0039 10.0321 13.2305 12 13.2305C13.9679 13.2305 15.857 14.0039 17.2598 15.384C18.6626 16.7642 19.4668 18.6403 19.499 20.608C17.1464 21.6868 14.5881 22.2435 12 22.24C9.32398 22.24 6.78398 21.656 4.50098 20.608Z" stroke="#35869E" stroke-width="2" stroke-linecap="round" stroke-linejoin="round"/>
</svg>
