<svg width="16" height="17" viewBox="0 0 16 17" fill="none" xmlns="http://www.w3.org/2000/svg">
<path d="M13.4503 3.03296C12.144 1.54449 10.3496 0.800049 8.06664 0.800049C5.78367 0.800049 3.98448 1.54449 2.6694 3.03296C1.35431 4.52185 0.696777 6.44402 0.696777 8.80025C0.696777 11.1565 1.35431 13.0786 2.6694 14.5671C3.98448 16.056 5.78331 16.8 8.06671 16.8C10.35 16.8 12.1441 16.056 13.4503 14.5671C14.7562 13.0786 15.4094 11.1565 15.4094 8.80025C15.4094 6.44402 14.7562 4.52182 13.4503 3.03296ZM6.58006 12.4106C5.37912 11.2812 4.18917 10.1623 2.98554 9.03045C3.3152 8.67852 3.63556 8.33652 3.97043 7.97898C4.8454 8.80565 5.70738 9.62005 6.58094 10.4453C8.43664 8.68978 10.2802 6.9458 12.1368 5.1895C12.4676 5.54362 12.7872 5.88584 13.1206 6.24278C10.9428 8.29645 8.77151 10.344 6.58006 12.4106Z" fill="#00B67A"/>
</svg>
