<svg width="374" height="61" viewBox="0 0 374 61" fill="none" xmlns="http://www.w3.org/2000/svg">
<g clip-path="url(#clip0_173_1978)">
<g clip-path="url(#clip1_173_1978)">
<mask id="mask0_173_1978" style="mask-type:luminance" maskUnits="userSpaceOnUse" x="0" y="0" width="374" height="61">
<path d="M373.972 0.400146H0.0180664V60.4001H373.972V0.400146Z" fill="white"/>
</mask>
<g mask="url(#mask0_173_1978)">
<path d="M289.994 40.6628C288.443 39.1805 287.208 37.3985 286.366 35.4249C285.525 33.4514 285.094 31.3275 285.101 29.1824V29.0366C285.106 26.8701 285.544 24.7264 286.389 22.7308C287.233 20.7351 288.466 18.9273 290.018 17.4131C293.138 14.3283 297.355 12.6049 301.744 12.6205C306.112 12.6205 310.175 14.1538 312.932 17.0174C313.689 17.7215 314.141 18.6928 314.192 19.7248C314.201 20.1996 314.104 20.6704 313.912 21.1046C313.719 21.5387 313.435 21.9261 313.077 22.2395C312.311 22.8877 311.543 23.2288 310.776 23.2288C309.703 23.2288 308.746 22.617 307.649 21.7396C305.862 20.2663 303.606 19.4796 301.288 19.5217C298.761 19.5217 296.381 20.6984 294.692 22.4894C293.054 24.2387 292.125 26.5343 292.087 28.9299V29.0366C292.101 31.4077 293.016 33.6847 294.649 35.4068C295.449 36.3201 296.431 37.0568 297.533 37.57C298.634 38.0832 299.831 38.3616 301.045 38.3876C303.537 38.5048 305.646 37.8956 307.602 36.1826C308.716 35.3443 309.687 34.7352 310.669 34.7377C311.515 34.7377 312.278 35.0814 313.044 35.7322C313.398 36.039 313.682 36.4201 313.873 36.8483C314.065 37.2766 314.16 37.7416 314.152 38.2105C314.078 39.2375 313.627 40.2011 312.885 40.9154C310.122 43.7789 306.06 45.2915 301.679 45.2888C299.522 45.3325 297.377 44.946 295.372 44.1516C293.365 43.3572 291.539 42.1712 289.997 40.6628H289.994Z" fill="#3AC6F4"/>
<path d="M349.349 16.587C349.358 15.6595 349.019 14.7626 348.398 14.0723C347.826 13.4241 346.796 13.0805 345.839 13.0805C345.07 13.0729 344.322 13.3353 343.728 13.822C343.132 14.3087 342.727 14.9888 342.582 15.7437C339.988 13.8535 336.889 12.781 333.68 12.6639H333.516H333.406H333.01C328.708 12.7136 324.6 14.4542 321.574 17.5091C318.548 20.5638 316.849 24.6865 316.845 28.984C316.839 33.2815 318.53 37.4077 321.55 40.4687C324.569 43.5298 328.674 45.279 332.976 45.3375H333.367H333.502H333.643C336.854 45.2281 339.957 44.1619 342.555 42.2761C342.705 43.0257 343.112 43.6996 343.705 44.1816C344.3 44.6635 345.043 44.9232 345.808 44.9158C346.764 44.9158 347.794 44.5748 348.367 43.9292C348.991 43.2417 349.333 42.3447 349.323 41.417V29.1816L349.349 16.587ZM342.528 29.4706C342.419 31.8025 341.439 34.0091 339.783 35.656C338.559 36.8589 337.037 37.7146 335.372 38.1346C333.709 38.5546 331.962 38.524 330.313 38.0458C328.82 37.5669 327.459 36.7438 326.341 35.6429C325.451 34.7748 324.744 33.7379 324.26 32.5932C323.775 31.4485 323.524 30.2187 323.521 28.976C323.521 28.6818 323.538 28.3929 323.563 28.104C323.782 25.9064 324.77 23.8562 326.353 22.3142C327.472 21.2161 328.834 20.3958 330.329 19.9193C331.977 19.4257 333.728 19.389 335.394 19.8132C337.062 20.2374 338.583 21.1064 339.794 22.3272C341.544 24.0752 342.529 26.4442 342.535 28.9162C342.535 28.9421 342.535 28.9682 342.535 28.9942C342.54 29.153 342.534 29.3144 342.528 29.4706Z" fill="#3AC6F4"/>
<path d="M5.16595 40.4169C3.61838 38.9239 2.38805 37.1345 1.54851 35.1558C0.708976 33.1769 0.277471 31.0494 0.279794 28.9001V28.8611C0.279794 28.822 0.279794 28.822 0.318884 28.822V28.7751C0.279794 28.7751 0.279794 28.7751 0.279794 28.7439C0.284675 26.5783 0.721334 24.4353 1.56429 22.4401C2.40723 20.4447 3.63958 18.6372 5.1894 17.123C8.3091 14.0379 12.5265 12.3153 16.9161 12.333C21.2863 12.333 25.3464 13.8663 28.1035 16.7273C28.8597 17.4321 29.312 18.4029 29.3647 19.4347C29.3723 19.9095 29.2763 20.3803 29.0837 20.8145C28.8911 21.2486 28.6065 21.636 28.2494 21.9494C27.4832 22.5976 26.7145 22.9387 25.9483 22.9387C24.8748 22.9387 23.9184 22.3269 22.8212 21.4495C21.0336 19.9777 18.7789 19.1913 16.4628 19.2316C13.9324 19.2316 11.5557 20.4083 9.86707 22.1994C8.22803 23.9485 7.29912 26.2442 7.26113 28.6398L7.22204 28.7153L7.26113 28.7543C7.27528 31.1247 8.19102 33.401 9.82277 35.1219C10.6236 36.0353 11.606 36.7719 12.7074 37.2851C13.8089 37.7983 15.0053 38.0768 16.2204 38.1026C18.7116 38.2198 20.8199 37.6106 22.777 35.8977C23.8896 35.0595 24.8616 34.4503 25.8441 34.4529C26.6859 34.4529 27.4546 34.7965 28.2182 35.4474C28.5731 35.7542 28.8564 36.1352 29.0478 36.5634C29.2391 36.9918 29.334 37.4567 29.3256 37.9257C29.2527 38.9527 28.8016 39.9161 28.0592 40.6304C25.2969 43.494 21.2342 45.0065 16.8536 45.0039C14.6969 45.0632 12.5503 44.6875 10.5422 43.8994C8.53404 43.1114 6.70553 41.927 5.16595 40.4169Z" fill="#3AC6F4"/>
<path d="M55.2786 41.62L55.2942 28.1455C55.2942 25.3731 54.6481 23.0249 53.3841 21.2912C52.0812 19.5964 50.2414 18.7477 47.9377 18.7452C45.7122 18.7452 43.677 20.0104 42.2541 21.588C40.834 23.1265 39.987 25.3575 39.8671 27.8358L39.8515 41.62C39.8476 42.2981 39.6432 42.96 39.2641 43.5226C38.8849 44.085 38.3479 44.523 37.7204 44.7817C37.0929 45.0404 36.4029 45.1081 35.737 44.9762C35.0712 44.8445 34.459 44.5191 33.9776 44.0411C33.6482 43.7069 33.3902 43.3095 33.219 42.8727C33.0479 42.436 32.9674 41.9691 32.9822 41.5003L33.0239 3.65405C33.032 3.20723 33.1283 2.76642 33.3072 2.3568C33.4861 1.94718 33.7439 1.5768 34.0662 1.26686C34.3745 0.948075 34.7442 0.695106 35.1532 0.523277C35.5622 0.351448 36.0019 0.264332 36.4454 0.267207C36.9042 0.258488 37.36 0.343995 37.7844 0.518426C38.2088 0.692859 38.5928 0.952498 38.9126 1.28126C39.2324 1.61001 39.4812 2.00089 39.6436 2.42963C39.806 2.8584 39.8786 3.3159 39.8567 3.7738L39.8437 15.7853C42.4496 13.2861 45.4881 11.8647 48.6361 11.8804C52.5894 11.8804 56.0031 13.5048 58.3771 16.4335C60.7538 19.323 62.0932 23.444 62.0881 28.0258L62.0724 41.6539C62.0773 42.1024 61.9921 42.5472 61.8217 42.962C61.6512 43.377 61.399 43.7535 61.0801 44.0691C60.7612 44.3847 60.3821 44.6333 59.9652 44.7997C59.5484 44.9662 59.1023 45.0473 58.6534 45.0382C58.2062 45.0489 57.7616 44.9687 57.3467 44.8022C56.9315 44.6358 56.5548 44.3866 56.2393 44.07C55.9238 43.7532 55.6761 43.3758 55.5114 42.9604C55.3467 42.545 55.2684 42.1004 55.2813 41.6539L55.2786 41.62Z" fill="#3AC6F4"/>
<path d="M132.021 43.7181C129.613 42.6769 127.906 41.2085 126.859 39.3109C126.51 38.7386 126.323 38.083 126.317 37.4131C126.31 36.8763 126.459 36.3491 126.747 35.8953C127.033 35.416 127.442 35.0224 127.933 34.7559C128.423 34.4892 128.977 34.3596 129.535 34.3803C130.144 34.39 130.742 34.5392 131.284 34.8163C131.827 35.0934 132.298 35.4911 132.662 35.9786C134.213 38.1811 135.883 39.0557 138.796 39.0583C140.021 39.0756 141.225 38.7607 142.284 38.1471C143.294 37.5797 143.847 36.7076 143.847 35.6454C143.882 35.0403 143.689 34.4439 143.305 33.9741C142.645 33.1385 141.597 32.4929 140.083 32.0737L138.182 31.5036C134.88 30.3608 132.448 29.3351 130.624 27.9658C128.334 26.4039 127.171 24.3577 127.174 21.8534C127.174 19.0835 128.5 16.6468 130.715 14.9885C132.816 13.3979 135.729 12.4504 138.682 12.453C140.718 12.4428 142.737 12.832 144.624 13.5984C146.682 14.4731 148.079 15.5743 148.856 17.0555C149.096 17.5261 149.23 18.0448 149.244 18.5732C149.245 18.9197 149.177 19.2628 149.043 19.5822C148.908 19.9016 148.711 20.1905 148.462 20.4319C148.182 20.7538 147.835 21.0118 147.447 21.1884C147.057 21.3649 146.635 21.4558 146.208 21.455C145.807 21.4607 145.411 21.3827 145.042 21.2259L143.646 20.2003C142.987 19.7447 142.521 19.4401 142.324 19.3256C141.369 18.7751 140.283 18.486 139.18 18.4874C136.227 18.4874 134.168 19.6197 134.166 21.7076C134.166 22.6942 134.708 23.5299 135.873 24.251C136.845 24.821 138.124 25.3157 140.104 25.8884C143.368 26.8776 145.658 27.7524 147.442 29.1216C148.443 29.8445 149.251 30.7998 149.798 31.9046C150.345 33.0095 150.614 34.231 150.583 35.4632C150.583 38.1576 149.374 40.5474 147.235 42.328C145.095 44.1086 142.182 45.1317 138.841 45.1265C136.502 45.1162 134.188 44.6355 132.039 43.7129L132.021 43.7181Z" fill="#3AC6F4"/>
<path d="M157.798 40.456C156.272 38.9432 155.061 37.143 154.235 35.1596C153.409 33.1759 152.983 31.0486 152.986 28.9002C153.003 24.5225 154.755 20.3299 157.858 17.2401C160.144 14.9747 163.049 13.4341 166.207 12.8118C169.366 12.1894 172.638 12.5129 175.614 13.7418C178.589 14.9707 181.134 17.0502 182.931 19.7192C184.727 22.3881 185.694 25.5277 185.711 28.7439C185.711 30.6495 184.304 31.9823 182.368 31.9798L160.543 31.9564C161.091 33.8535 162.217 35.5329 163.764 36.762C165.36 37.9964 167.326 38.657 169.344 38.6363C171.949 38.6363 173.975 37.8033 175.457 36.2023C176.083 35.6645 176.873 35.356 177.697 35.3276C178.085 35.3358 178.469 35.4007 178.837 35.5203C179.538 35.7921 180.117 36.3068 180.469 36.9703C180.843 37.535 181.039 38.1985 181.034 38.8758C181.034 39.8677 180.577 40.7423 179.731 41.4661C178.571 42.5828 177.202 43.4619 175.705 44.0538C173.668 44.8215 171.502 45.1943 169.325 45.1523C167.186 45.1853 165.063 44.7873 163.081 43.9822C161.101 43.1771 159.303 41.9814 157.794 40.4665L157.798 40.456ZM178.769 26.2187C178.297 24.1821 177.164 22.3582 175.549 21.0305C173.842 19.6847 171.728 18.9569 169.554 18.9661C167.387 18.9279 165.276 19.6543 163.592 21.0174C161.983 22.3437 160.86 24.1656 160.397 26.1979L178.769 26.2187Z" fill="#3AC6F4"/>
<path d="M235.871 16.3557C234.801 15.1389 233.481 14.168 232.001 13.5097C230.519 12.8513 228.913 12.5212 227.293 12.5418C224.22 12.5418 220.583 13.9814 217.846 16.2983C215.113 13.9762 211.479 12.5262 208.407 12.5236C206.787 12.4981 205.179 12.8243 203.697 13.4796C202.214 14.1349 200.891 15.1038 199.821 16.3191C197.776 18.6959 196.65 21.8589 196.629 25.2874C196.629 25.3212 196.629 25.3525 196.629 25.3864L196.613 40.8341C196.613 40.8913 196.613 40.946 196.613 41.0007C196.623 42.1141 197.074 43.1782 197.865 43.9624C198.656 44.7464 199.725 45.1873 200.84 45.1893C201.977 45.1847 203.067 44.7351 203.876 43.9372C204.293 43.5486 204.625 43.0778 204.853 42.5545C205.079 42.0312 205.195 41.4666 205.192 40.8965L205.207 25.3004C205.206 24.2332 205.574 23.1985 206.25 22.3717C206.594 22.0056 207.014 21.7178 207.479 21.5278C207.945 21.3379 208.447 21.2501 208.95 21.2705C210.412 21.2705 211.422 21.5309 212.134 22.1115C213.007 22.9105 213.543 24.0132 213.63 25.1937L213.614 40.8654C213.6 41.4271 213.698 41.986 213.904 42.5091C214.11 43.0322 214.418 43.5089 214.811 43.9111C215.204 44.3134 215.672 44.6331 216.191 44.8513C216.709 45.0697 217.266 45.1822 217.83 45.1822C218.392 45.1822 218.949 45.0697 219.466 44.8513C219.985 44.6331 220.454 44.3134 220.848 43.9111C221.24 43.5089 221.548 43.0322 221.753 42.5091C221.96 41.986 222.057 41.4271 222.044 40.8654L222.06 25.1572C222.175 23.9779 222.773 22.7232 223.56 22.0776C224.275 21.5074 225.286 21.2419 226.747 21.2445C227.25 21.2367 227.746 21.3308 228.21 21.521C228.674 21.7111 229.094 21.9936 229.444 22.3509C230.116 23.1802 230.484 24.2133 230.487 25.2796L230.471 40.9121C230.455 41.4892 230.562 42.0633 230.787 42.5951C231.011 43.127 231.349 43.6042 231.775 43.9944C232.577 44.7739 233.651 45.2116 234.772 45.2154C235.333 45.2151 235.89 45.1035 236.407 44.8869C236.925 44.6704 237.395 44.3532 237.789 43.9538C238.183 43.5545 238.495 43.0811 238.704 42.5606C238.915 42.0403 239.019 41.4835 239.011 40.9226L239.028 25.4045C239.028 21.9396 237.911 18.7428 235.853 16.3452L235.871 16.3557Z" fill="white"/>
<path d="M270.957 12.5866C270.379 12.5776 269.806 12.6824 269.269 12.895C268.732 13.1076 268.242 13.4238 267.827 13.8256C267.413 14.2274 267.081 14.7068 266.852 15.2366C266.622 15.7664 266.5 16.3362 266.491 16.9131L266.475 31.2311V31.3066C266.475 31.3066 266.394 33.4335 264.946 34.8757C263.77 36.0134 261.892 36.5835 259.345 36.5809C256.056 36.5809 253.826 35.701 252.614 33.9907C252.033 33.1403 251.683 32.1534 251.601 31.127L251.616 16.8794C251.588 15.7156 251.106 14.609 250.271 13.796C249.438 12.9829 248.319 12.5277 247.154 12.5277C245.989 12.5277 244.87 12.9829 244.035 13.796C243.201 14.609 242.719 15.7156 242.692 16.8794L242.675 31.1973C242.675 34.631 244.984 42.8338 254.779 44.802V52.1613C254.779 54.3273 256.672 56.1236 259.017 56.1262C261.363 56.1287 263.223 54.3742 263.262 52.1718V44.9087C266.488 44.3334 269.181 43.0031 271.278 40.9179C275.276 37.013 275.399 31.9939 275.399 31.1947L275.414 16.908C275.407 16.331 275.285 15.7611 275.057 15.231C274.829 14.701 274.499 14.2209 274.084 13.8183C273.671 13.4158 273.181 13.0987 272.645 12.8851C272.108 12.6715 271.535 12.5656 270.957 12.5736V12.5866Z" fill="white"/>
<path d="M353.982 44.3539C353.657 44.0445 353.399 43.6724 353.223 43.2602C353.048 42.8479 352.958 42.4043 352.959 41.9563L352.986 16.0903C352.984 15.6368 353.075 15.1875 353.251 14.7694C353.426 14.3513 353.685 13.9727 354.01 13.6563C354.326 13.3372 354.705 13.0853 355.12 12.9158C355.538 12.7463 355.984 12.6625 356.433 12.6696C356.879 12.6554 357.322 12.7365 357.734 12.9076C358.146 13.0786 358.517 13.3357 358.821 13.6615C359.442 14.3181 359.781 15.1921 359.764 16.0956C362.87 13.8541 366.243 12.7113 369.926 12.7113H370.079C372.275 12.7113 373.599 14.0832 373.599 16.0956C373.599 17.9985 372.035 19.4797 370.073 19.4797H369.922C368.588 19.4775 367.268 19.7413 366.039 20.2558C364.808 20.7704 363.695 21.5253 362.76 22.4761C361.799 23.441 361.038 24.5863 360.522 25.8463C360.004 27.1061 359.743 28.4559 359.75 29.8173V41.9511C359.757 42.3975 359.675 42.8408 359.507 43.2545C359.34 43.6682 359.09 44.0441 358.773 44.3598C358.458 44.6755 358.081 44.9245 357.668 45.092C357.254 45.2596 356.81 45.3424 356.364 45.3354C355.471 45.3361 354.614 44.9831 353.982 44.3539Z" fill="#3AC6F4"/>
<path d="M107.707 12.3751C107.442 12.3691 107.176 12.3812 106.912 12.4116C106.824 12.4064 106.735 12.4188 106.652 12.448C106.461 12.448 106.31 12.4844 106.131 12.4844C106.016 12.4844 105.904 12.5209 105.789 12.5209C105.674 12.5209 105.487 12.5573 105.336 12.5573C105.207 12.567 105.08 12.5924 104.958 12.6328C104.807 12.6719 104.697 12.6719 104.541 12.7083C104.385 12.7448 104.28 12.7448 104.163 12.7838C104.046 12.8229 103.936 12.8229 103.785 12.8593L103.368 12.9739C103.271 13.0129 103.17 13.0383 103.066 13.0493C102.915 13.0884 102.764 13.1248 102.649 13.1639C102.568 13.2062 102.479 13.2319 102.388 13.2394C102.237 13.2784 102.086 13.3539 101.935 13.3904C101.866 13.4327 101.789 13.4586 101.708 13.4659C101.557 13.5414 101.367 13.5804 101.216 13.6559C101.177 13.695 101.101 13.695 101.065 13.7314C98.1851 15.0239 95.7403 17.1197 94.0243 19.7667C92.3083 22.4138 91.3941 25.4997 91.3913 28.6533V28.8043C91.3758 31.1977 90.444 33.4944 88.7873 35.2236C87.1306 36.9525 84.8744 37.9829 82.4816 38.1031H81.9891C80.3902 38.102 78.8177 37.6964 77.418 36.9242C76.0184 36.1522 74.8373 35.0385 73.9847 33.6873C73.1322 32.3362 72.636 30.7912 72.5424 29.1968C72.4487 27.6023 72.7607 26.0101 73.4493 24.5685C74.1379 23.127 75.1807 21.8832 76.4804 20.9529C77.7801 20.0226 79.2944 19.4362 80.8822 19.2483C82.47 19.0604 84.0795 19.2772 85.5608 19.8785C87.042 20.4796 88.3468 21.4457 89.3535 22.6866C90.0957 20.3932 91.2617 18.259 92.7907 16.3946C89.8296 13.7625 86.0022 12.3114 82.0385 12.3178C77.712 12.3275 73.5657 14.0511 70.5095 17.1105C67.4532 20.17 65.7364 24.3154 65.7358 28.6377V28.8277C65.7537 33.1181 67.4712 37.2269 70.5131 40.2557C73.5548 43.2846 77.6733 44.9872 81.9682 44.9914C82.7795 44.9861 83.5893 44.9235 84.3918 44.8039H84.4309C84.6915 44.7675 84.9234 44.7284 85.1892 44.692C85.21 44.6946 85.2311 44.6925 85.251 44.6857C85.2709 44.679 85.289 44.6677 85.3038 44.6529C85.5223 44.6212 85.7377 44.5707 85.9475 44.5019C86.0231 44.5019 86.0622 44.4629 86.1378 44.4629C86.328 44.4264 86.4791 44.3484 86.659 44.3119C86.7344 44.2728 86.8491 44.2755 86.9195 44.2364C87.0639 44.2023 87.2038 44.1517 87.3365 44.0854L87.6778 43.9709C87.7925 43.9318 87.8682 43.8954 87.9802 43.8563C88.1313 43.7808 88.2824 43.7419 88.4336 43.6663C88.4726 43.6273 88.5483 43.6273 88.5847 43.5908C91.4386 42.3308 93.8669 40.2735 95.5776 37.6668C97.2883 35.06 98.2083 32.015 98.2267 28.898V28.6377C98.2263 27.302 98.5102 25.9815 99.0597 24.7639C99.6092 23.5462 100.412 22.4592 101.414 21.5751L101.453 21.536C101.557 21.4374 101.672 21.3502 101.794 21.2757L101.87 21.2002C101.978 21.1318 102.079 21.0534 102.172 20.9659C102.211 20.9268 102.248 20.9268 102.287 20.8904C102.394 20.8244 102.496 20.7486 102.589 20.6639C102.628 20.6249 102.665 20.6249 102.704 20.5884C102.809 20.5114 102.924 20.4475 103.045 20.3984C103.084 20.3984 103.084 20.3593 103.121 20.3593C103.272 20.2838 103.381 20.2083 103.538 20.1329H103.577C103.884 19.9838 104.2 19.8569 104.525 19.7528C104.564 19.7528 104.601 19.7137 104.64 19.7137L104.981 19.5991C105.02 19.5991 105.096 19.5601 105.133 19.5601C105.229 19.5211 105.331 19.4957 105.435 19.4846C105.51 19.4846 105.549 19.4455 105.625 19.4455C105.74 19.4066 105.815 19.4091 105.927 19.37C106.003 19.37 106.042 19.3311 106.118 19.3311C106.193 19.3311 106.344 19.2945 106.42 19.2945C106.486 19.3005 106.552 19.287 106.61 19.2555C106.725 19.2555 106.837 19.2165 106.952 19.219H107.645C110.149 19.2336 112.546 20.2379 114.311 22.0125C116.076 23.7873 117.067 26.1878 117.065 28.6897V28.8407C117.042 30.7776 116.422 32.66 115.288 34.2313C114.154 35.8026 112.562 36.986 110.73 37.6199C108.898 38.2538 106.915 38.3073 105.051 37.7733C103.187 37.2391 101.534 36.1434 100.317 34.6356C99.571 36.9338 98.3997 39.0718 96.8638 40.9381C99.825 43.5701 103.652 45.0213 107.616 45.0149C111.949 45.0269 116.109 43.3191 119.181 40.267C122.253 37.215 123.986 33.0689 123.998 28.7405C124.01 24.4123 122.301 20.2563 119.246 17.1873C116.19 14.1182 112.04 12.3872 107.707 12.3751Z" fill="#3AC6F4"/>
<mask id="mask1_173_1978" style="mask-type:luminance" maskUnits="userSpaceOnUse" x="65" y="12" width="59" height="34">
<path d="M107.707 12.3751C107.442 12.3691 107.176 12.3812 106.912 12.4116C106.824 12.4064 106.735 12.4188 106.652 12.448C106.461 12.448 106.31 12.4844 106.131 12.4844C106.016 12.4844 105.904 12.5209 105.789 12.5209C105.674 12.5209 105.487 12.5573 105.336 12.5573C105.207 12.567 105.08 12.5924 104.958 12.6328C104.807 12.6719 104.697 12.6719 104.541 12.7083C104.385 12.7448 104.28 12.7448 104.163 12.7838C104.046 12.8229 103.936 12.8229 103.785 12.8593L103.368 12.9739C103.271 13.0129 103.17 13.0383 103.066 13.0493C102.915 13.0884 102.764 13.1248 102.649 13.1639C102.568 13.2062 102.479 13.2319 102.388 13.2394C102.237 13.2784 102.086 13.3539 101.935 13.3904C101.866 13.4327 101.789 13.4586 101.708 13.4659C101.557 13.5414 101.367 13.5804 101.216 13.6559C101.177 13.695 101.101 13.695 101.065 13.7314C98.1851 15.0239 95.7403 17.1197 94.0243 19.7667C92.3083 22.4138 91.3941 25.4997 91.3913 28.6533V28.8043C91.3758 31.1977 90.444 33.4944 88.7873 35.2236C87.1306 36.9525 84.8744 37.9829 82.4816 38.1031H81.9891C80.3902 38.102 78.8177 37.6964 77.418 36.9242C76.0184 36.1522 74.8373 35.0385 73.9847 33.6873C73.1322 32.3362 72.636 30.7912 72.5424 29.1968C72.4487 27.6023 72.7607 26.0101 73.4493 24.5685C74.1379 23.127 75.1807 21.8832 76.4804 20.9529C77.7801 20.0226 79.2944 19.4362 80.8822 19.2483C82.47 19.0604 84.0795 19.2772 85.5608 19.8785C87.042 20.4796 88.3468 21.4457 89.3535 22.6866C90.0957 20.3932 91.2617 18.259 92.7907 16.3946C89.8296 13.7625 86.0022 12.3114 82.0385 12.3178C77.712 12.3275 73.5657 14.0511 70.5095 17.1105C67.4532 20.17 65.7364 24.3154 65.7358 28.6377V28.8277C65.7537 33.1181 67.4712 37.2269 70.5131 40.2557C73.5548 43.2846 77.6733 44.9872 81.9682 44.9914C82.7795 44.9861 83.5893 44.9235 84.3918 44.8039H84.4309C84.6915 44.7675 84.9234 44.7284 85.1892 44.692C85.21 44.6946 85.2311 44.6925 85.251 44.6857C85.2709 44.679 85.289 44.6677 85.3038 44.6529C85.5223 44.6212 85.7377 44.5707 85.9475 44.5019C86.0231 44.5019 86.0622 44.4629 86.1378 44.4629C86.328 44.4264 86.4791 44.3484 86.659 44.3119C86.7344 44.2728 86.8491 44.2755 86.9195 44.2364C87.0639 44.2023 87.2038 44.1517 87.3365 44.0854L87.6778 43.9709C87.7925 43.9318 87.8682 43.8954 87.9802 43.8563C88.1313 43.7808 88.2824 43.7419 88.4336 43.6663C88.4726 43.6273 88.5483 43.6273 88.5847 43.5908C91.4386 42.3308 93.8669 40.2735 95.5776 37.6668C97.2883 35.06 98.2083 32.015 98.2267 28.898V28.6377C98.2263 27.302 98.5102 25.9815 99.0597 24.7639C99.6092 23.5462 100.412 22.4592 101.414 21.5751L101.453 21.536C101.557 21.4374 101.672 21.3502 101.794 21.2757L101.87 21.2002C101.978 21.1318 102.079 21.0534 102.172 20.9659C102.211 20.9268 102.248 20.9268 102.287 20.8904C102.394 20.8244 102.496 20.7486 102.589 20.6639C102.628 20.6249 102.665 20.6249 102.704 20.5884C102.809 20.5114 102.924 20.4475 103.045 20.3984C103.084 20.3984 103.084 20.3593 103.121 20.3593C103.272 20.2838 103.381 20.2083 103.538 20.1329H103.577C103.884 19.9838 104.2 19.8569 104.525 19.7528C104.564 19.7528 104.601 19.7137 104.64 19.7137L104.981 19.5991C105.02 19.5991 105.096 19.5601 105.133 19.5601C105.229 19.5211 105.331 19.4957 105.435 19.4846C105.51 19.4846 105.549 19.4455 105.625 19.4455C105.74 19.4066 105.815 19.4091 105.927 19.37C106.003 19.37 106.042 19.3311 106.118 19.3311C106.193 19.3311 106.344 19.2945 106.42 19.2945C106.486 19.3005 106.552 19.287 106.61 19.2555C106.725 19.2555 106.837 19.2165 106.952 19.219H107.645C110.149 19.2336 112.546 20.2379 114.311 22.0125C116.076 23.7873 117.067 26.1878 117.065 28.6897V28.8407C117.042 30.7776 116.422 32.66 115.288 34.2313C114.154 35.8026 112.562 36.986 110.73 37.6199C108.898 38.2538 106.915 38.3073 105.051 37.7733C103.187 37.2391 101.534 36.1434 100.317 34.6356C99.571 36.9338 98.3997 39.0718 96.8638 40.9381C99.825 43.5701 103.652 45.0213 107.616 45.0149C111.949 45.0269 116.109 43.3191 119.181 40.267C122.253 37.215 123.986 33.0689 123.998 28.7405C124.01 24.4123 122.301 20.2563 119.246 17.1873C116.19 14.1182 112.04 12.3872 107.707 12.3751Z" fill="white"/>
</mask>
<g mask="url(#mask1_173_1978)">
<path d="M58.522 11.8545H130.246V45.4782H58.522V11.8545Z" fill="#3AC6F4"/>
</g>
<path d="M289.994 40.6628C288.443 39.1805 287.208 37.3985 286.366 35.4249C285.525 33.4514 285.094 31.3275 285.101 29.1824V29.0366C285.106 26.8701 285.544 24.7264 286.389 22.7308C287.233 20.7351 288.466 18.9273 290.018 17.4131C293.138 14.3283 297.355 12.6049 301.744 12.6205C306.112 12.6205 310.175 14.1538 312.932 17.0174C313.689 17.7215 314.141 18.6928 314.192 19.7248C314.201 20.1996 314.104 20.6704 313.912 21.1046C313.719 21.5387 313.435 21.9261 313.077 22.2395C312.311 22.8877 311.543 23.2288 310.776 23.2288C309.703 23.2288 308.746 22.617 307.649 21.7396C305.862 20.2663 303.606 19.4796 301.288 19.5217C298.761 19.5217 296.381 20.6984 294.692 22.4894C293.054 24.2387 292.125 26.5343 292.087 28.9299V29.0366C292.101 31.4077 293.016 33.6847 294.649 35.4068C295.449 36.3201 296.431 37.0568 297.533 37.57C298.634 38.0832 299.831 38.3616 301.045 38.3876C303.537 38.5048 305.646 37.8956 307.602 36.1826C308.716 35.3443 309.687 34.7352 310.669 34.7377C311.515 34.7377 312.278 35.0814 313.044 35.7322C313.398 36.039 313.682 36.4201 313.873 36.8483C314.065 37.2766 314.16 37.7416 314.152 38.2105C314.078 39.2375 313.627 40.2011 312.885 40.9154C310.122 43.7789 306.06 45.2915 301.679 45.2888C299.522 45.3325 297.377 44.946 295.372 44.1516C293.365 43.3572 291.539 42.1712 289.997 40.6628H289.994Z" fill="#3AC6F4"/>
<path d="M349.349 16.587C349.358 15.6595 349.019 14.7626 348.398 14.0723C347.826 13.4241 346.796 13.0805 345.839 13.0805C345.07 13.0729 344.322 13.3353 343.728 13.822C343.132 14.3087 342.727 14.9888 342.582 15.7437C339.988 13.8535 336.889 12.781 333.68 12.6639H333.516H333.406H333.01C328.708 12.7136 324.6 14.4542 321.574 17.5091C318.548 20.5638 316.849 24.6865 316.845 28.984C316.839 33.2815 318.53 37.4077 321.55 40.4687C324.569 43.5298 328.674 45.279 332.976 45.3375H333.367H333.502H333.643C336.854 45.2281 339.957 44.1619 342.555 42.2761C342.705 43.0257 343.112 43.6996 343.705 44.1816C344.3 44.6635 345.043 44.9232 345.808 44.9158C346.764 44.9158 347.794 44.5748 348.367 43.9292C348.991 43.2417 349.333 42.3447 349.323 41.417V29.1816L349.349 16.587ZM342.528 29.4706C342.419 31.8025 341.439 34.0091 339.783 35.656C338.559 36.8589 337.037 37.7146 335.372 38.1346C333.709 38.5546 331.962 38.524 330.313 38.0458C328.82 37.5669 327.459 36.7438 326.341 35.6429C325.451 34.7748 324.744 33.7379 324.26 32.5932C323.775 31.4485 323.524 30.2187 323.521 28.976C323.521 28.6818 323.538 28.3929 323.563 28.104C323.782 25.9064 324.77 23.8562 326.353 22.3142C327.472 21.2161 328.834 20.3958 330.329 19.9193C331.977 19.4257 333.728 19.389 335.394 19.8132C337.062 20.2374 338.583 21.1064 339.794 22.3272C341.544 24.0752 342.529 26.4442 342.535 28.9162C342.535 28.9421 342.535 28.9682 342.535 28.9942C342.54 29.153 342.534 29.3144 342.528 29.4706Z" fill="#3AC6F4"/>
<path d="M5.16595 40.4169C3.61838 38.9239 2.38805 37.1345 1.54851 35.1558C0.708976 33.1769 0.277471 31.0494 0.279794 28.9001V28.8611C0.279794 28.822 0.279794 28.822 0.318884 28.822V28.7751C0.279794 28.7751 0.279794 28.7751 0.279794 28.7439C0.284675 26.5783 0.721334 24.4353 1.56429 22.4401C2.40723 20.4447 3.63958 18.6372 5.1894 17.123C8.3091 14.0379 12.5265 12.3153 16.9161 12.333C21.2863 12.333 25.3464 13.8663 28.1035 16.7273C28.8597 17.4321 29.312 18.4029 29.3647 19.4347C29.3723 19.9095 29.2763 20.3803 29.0837 20.8145C28.8911 21.2486 28.6065 21.636 28.2494 21.9494C27.4832 22.5976 26.7145 22.9387 25.9483 22.9387C24.8748 22.9387 23.9184 22.3269 22.8212 21.4495C21.0336 19.9777 18.7789 19.1913 16.4628 19.2316C13.9324 19.2316 11.5557 20.4083 9.86707 22.1994C8.22803 23.9485 7.29912 26.2442 7.26113 28.6398L7.22204 28.7153L7.26113 28.7543C7.27528 31.1247 8.19102 33.401 9.82277 35.1219C10.6236 36.0353 11.606 36.7719 12.7074 37.2851C13.8089 37.7983 15.0053 38.0768 16.2204 38.1026C18.7116 38.2198 20.8199 37.6106 22.777 35.8977C23.8896 35.0595 24.8616 34.4503 25.8441 34.4529C26.6859 34.4529 27.4546 34.7965 28.2182 35.4474C28.5731 35.7542 28.8564 36.1352 29.0478 36.5634C29.2391 36.9918 29.334 37.4567 29.3256 37.9257C29.2527 38.9527 28.8016 39.9161 28.0592 40.6304C25.2969 43.494 21.2342 45.0065 16.8536 45.0039C14.6969 45.0632 12.5503 44.6875 10.5422 43.8994C8.53404 43.1114 6.70553 41.927 5.16595 40.4169Z" fill="#3AC6F4"/>
<path d="M55.2786 41.62L55.2942 28.1455C55.2942 25.3731 54.6481 23.0249 53.3841 21.2912C52.0812 19.5964 50.2414 18.7477 47.9377 18.7452C45.7122 18.7452 43.677 20.0104 42.2541 21.588C40.834 23.1265 39.987 25.3575 39.8671 27.8358L39.8515 41.62C39.8476 42.2981 39.6432 42.96 39.2641 43.5226C38.8849 44.085 38.3479 44.523 37.7204 44.7817C37.0929 45.0404 36.4029 45.1081 35.737 44.9762C35.0712 44.8445 34.459 44.5191 33.9776 44.0411C33.6482 43.7069 33.3902 43.3095 33.219 42.8727C33.0479 42.436 32.9674 41.9691 32.9822 41.5003L33.0239 3.65405C33.032 3.20723 33.1283 2.76642 33.3072 2.3568C33.4861 1.94718 33.7439 1.5768 34.0662 1.26686C34.3745 0.948075 34.7442 0.695106 35.1532 0.523277C35.5622 0.351448 36.0019 0.264332 36.4454 0.267207C36.9042 0.258488 37.36 0.343995 37.7844 0.518426C38.2088 0.692859 38.5928 0.952498 38.9126 1.28126C39.2324 1.61001 39.4812 2.00089 39.6436 2.42963C39.806 2.8584 39.8786 3.3159 39.8567 3.7738L39.8437 15.7853C42.4496 13.2861 45.4881 11.8647 48.6361 11.8804C52.5894 11.8804 56.0031 13.5048 58.3771 16.4335C60.7538 19.323 62.0932 23.444 62.0881 28.0258L62.0724 41.6539C62.0773 42.1024 61.9921 42.5472 61.8217 42.962C61.6512 43.377 61.399 43.7535 61.0801 44.0691C60.7612 44.3847 60.3821 44.6333 59.9652 44.7997C59.5484 44.9662 59.1023 45.0473 58.6534 45.0382C58.2062 45.0489 57.7616 44.9687 57.3467 44.8022C56.9315 44.6358 56.5548 44.3866 56.2393 44.07C55.9238 43.7532 55.6761 43.3758 55.5114 42.9604C55.3467 42.545 55.2684 42.1004 55.2813 41.6539L55.2786 41.62Z" fill="#3AC6F4"/>
<path d="M132.021 43.7181C129.613 42.6769 127.906 41.2085 126.859 39.3109C126.51 38.7386 126.323 38.083 126.317 37.4131C126.31 36.8763 126.459 36.3491 126.747 35.8953C127.033 35.416 127.442 35.0224 127.933 34.7559C128.423 34.4892 128.977 34.3596 129.535 34.3803C130.144 34.39 130.742 34.5392 131.284 34.8163C131.827 35.0934 132.298 35.4911 132.662 35.9786C134.213 38.1811 135.883 39.0557 138.796 39.0583C140.021 39.0756 141.225 38.7607 142.284 38.1471C143.294 37.5797 143.847 36.7076 143.847 35.6454C143.882 35.0403 143.689 34.4439 143.305 33.9741C142.645 33.1385 141.597 32.4929 140.083 32.0737L138.182 31.5036C134.88 30.3608 132.448 29.3351 130.624 27.9658C128.334 26.4039 127.171 24.3577 127.174 21.8534C127.174 19.0835 128.5 16.6468 130.715 14.9885C132.816 13.3979 135.729 12.4504 138.682 12.453C140.718 12.4428 142.737 12.832 144.624 13.5984C146.682 14.4731 148.079 15.5743 148.856 17.0555C149.096 17.5261 149.23 18.0448 149.244 18.5732C149.245 18.9197 149.177 19.2628 149.043 19.5822C148.908 19.9016 148.711 20.1905 148.462 20.4319C148.182 20.7538 147.835 21.0118 147.447 21.1884C147.057 21.3649 146.635 21.4558 146.208 21.455C145.807 21.4607 145.411 21.3827 145.042 21.2259L143.646 20.2003C142.987 19.7447 142.521 19.4401 142.324 19.3256C141.369 18.7751 140.283 18.486 139.18 18.4874C136.227 18.4874 134.168 19.6197 134.166 21.7076C134.166 22.6942 134.708 23.5299 135.873 24.251C136.845 24.821 138.124 25.3157 140.104 25.8884C143.368 26.8776 145.658 27.7524 147.442 29.1216C148.443 29.8445 149.251 30.7998 149.798 31.9046C150.345 33.0095 150.614 34.231 150.583 35.4632C150.583 38.1576 149.374 40.5474 147.235 42.328C145.095 44.1086 142.182 45.1317 138.841 45.1265C136.502 45.1162 134.188 44.6355 132.039 43.7129L132.021 43.7181Z" fill="#3AC6F4"/>
<path d="M157.798 40.456C156.272 38.9432 155.061 37.143 154.235 35.1596C153.409 33.1759 152.983 31.0486 152.986 28.9002C153.003 24.5225 154.755 20.3299 157.858 17.2401C160.144 14.9747 163.049 13.4341 166.207 12.8118C169.366 12.1894 172.638 12.5129 175.614 13.7418C178.589 14.9707 181.134 17.0502 182.931 19.7192C184.727 22.3881 185.694 25.5277 185.711 28.7439C185.711 30.6495 184.304 31.9823 182.368 31.9798L160.543 31.9564C161.091 33.8535 162.217 35.5329 163.764 36.762C165.36 37.9964 167.326 38.657 169.344 38.6363C171.949 38.6363 173.975 37.8033 175.457 36.2023C176.083 35.6645 176.873 35.356 177.697 35.3276C178.085 35.3358 178.469 35.4007 178.837 35.5203C179.538 35.7921 180.117 36.3068 180.469 36.9703C180.843 37.535 181.039 38.1985 181.034 38.8758C181.034 39.8677 180.577 40.7423 179.731 41.4661C178.571 42.5828 177.202 43.4619 175.705 44.0538C173.668 44.8215 171.502 45.1943 169.325 45.1523C167.186 45.1853 165.063 44.7873 163.081 43.9822C161.101 43.1771 159.303 41.9814 157.794 40.4665L157.798 40.456ZM178.769 26.2187C178.297 24.1821 177.164 22.3582 175.549 21.0305C173.842 19.6847 171.728 18.9569 169.554 18.9661C167.387 18.9279 165.276 19.6543 163.592 21.0174C161.983 22.3437 160.86 24.1656 160.397 26.1979L178.769 26.2187Z" fill="#3AC6F4"/>
<path d="M235.871 16.3557C234.801 15.1389 233.481 14.168 232.001 13.5097C230.519 12.8513 228.913 12.5212 227.293 12.5418C224.22 12.5418 220.583 13.9814 217.846 16.2983C215.113 13.9762 211.479 12.5262 208.407 12.5236C206.787 12.4981 205.179 12.8243 203.697 13.4796C202.214 14.1349 200.891 15.1038 199.821 16.3191C197.776 18.6959 196.65 21.8589 196.629 25.2874C196.629 25.3212 196.629 25.3525 196.629 25.3864L196.613 40.8341C196.613 40.8913 196.613 40.946 196.613 41.0007C196.623 42.1141 197.074 43.1782 197.865 43.9624C198.656 44.7464 199.725 45.1873 200.84 45.1893C201.977 45.1847 203.067 44.7351 203.876 43.9372C204.293 43.5486 204.625 43.0778 204.853 42.5545C205.079 42.0312 205.195 41.4666 205.192 40.8965L205.207 25.3004C205.206 24.2332 205.574 23.1985 206.25 22.3717C206.594 22.0056 207.014 21.7178 207.479 21.5278C207.945 21.3379 208.447 21.2501 208.95 21.2705C210.412 21.2705 211.422 21.5309 212.134 22.1115C213.007 22.9105 213.543 24.0132 213.63 25.1937L213.614 40.8654C213.6 41.4271 213.698 41.986 213.904 42.5091C214.11 43.0322 214.418 43.5089 214.811 43.9111C215.204 44.3134 215.672 44.6331 216.191 44.8513C216.709 45.0697 217.266 45.1822 217.83 45.1822C218.392 45.1822 218.949 45.0697 219.466 44.8513C219.985 44.6331 220.454 44.3134 220.848 43.9111C221.24 43.5089 221.548 43.0322 221.753 42.5091C221.96 41.986 222.057 41.4271 222.044 40.8654L222.06 25.1572C222.175 23.9779 222.773 22.7232 223.56 22.0776C224.275 21.5074 225.286 21.2419 226.747 21.2445C227.25 21.2367 227.746 21.3308 228.21 21.521C228.674 21.7111 229.094 21.9936 229.444 22.3509C230.116 23.1802 230.484 24.2133 230.487 25.2796L230.471 40.9121C230.455 41.4892 230.562 42.0633 230.787 42.5951C231.011 43.127 231.349 43.6042 231.775 43.9944C232.577 44.7739 233.651 45.2116 234.772 45.2154C235.333 45.2151 235.89 45.1035 236.407 44.8869C236.925 44.6704 237.395 44.3532 237.789 43.9538C238.183 43.5545 238.495 43.0811 238.704 42.5606C238.915 42.0403 239.019 41.4835 239.011 40.9226L239.028 25.4045C239.028 21.9396 237.911 18.7428 235.853 16.3452L235.871 16.3557Z" fill="white"/>
<path d="M270.957 12.5866C270.379 12.5776 269.806 12.6824 269.269 12.895C268.732 13.1076 268.242 13.4238 267.827 13.8256C267.413 14.2274 267.081 14.7068 266.852 15.2366C266.622 15.7664 266.5 16.3362 266.491 16.9131L266.475 31.2311V31.3066C266.475 31.3066 266.394 33.4335 264.946 34.8757C263.77 36.0134 261.892 36.5835 259.345 36.5809C256.056 36.5809 253.826 35.701 252.614 33.9907C252.033 33.1403 251.683 32.1534 251.601 31.127L251.616 16.8794C251.588 15.7156 251.106 14.609 250.271 13.796C249.438 12.9829 248.319 12.5277 247.154 12.5277C245.989 12.5277 244.87 12.9829 244.035 13.796C243.201 14.609 242.719 15.7156 242.692 16.8794L242.675 31.1973C242.675 34.631 244.984 42.8338 254.779 44.802V52.1613C254.779 54.3273 256.672 56.1236 259.017 56.1262C261.363 56.1287 263.223 54.3742 263.262 52.1718V44.9087C266.488 44.3334 269.181 43.0031 271.278 40.9179C275.276 37.013 275.399 31.9939 275.399 31.1947L275.414 16.908C275.407 16.331 275.285 15.7611 275.057 15.231C274.829 14.701 274.499 14.2209 274.084 13.8183C273.671 13.4158 273.181 13.0987 272.645 12.8851C272.108 12.6715 271.535 12.5656 270.957 12.5736V12.5866Z" fill="white"/>
<path d="M353.982 44.3539C353.657 44.0445 353.399 43.6724 353.223 43.2602C353.048 42.8479 352.958 42.4043 352.959 41.9563L352.986 16.0903C352.984 15.6368 353.075 15.1875 353.251 14.7694C353.426 14.3513 353.685 13.9727 354.01 13.6563C354.326 13.3372 354.705 13.0853 355.12 12.9158C355.538 12.7463 355.984 12.6625 356.433 12.6696C356.879 12.6554 357.322 12.7365 357.734 12.9076C358.146 13.0786 358.517 13.3357 358.821 13.6615C359.442 14.3181 359.781 15.1921 359.764 16.0956C362.87 13.8541 366.243 12.7113 369.926 12.7113H370.079C372.275 12.7113 373.599 14.0832 373.599 16.0956C373.599 17.9985 372.035 19.4797 370.073 19.4797H369.922C368.588 19.4775 367.268 19.7413 366.039 20.2558C364.808 20.7704 363.695 21.5253 362.76 22.4761C361.799 23.441 361.038 24.5863 360.522 25.8463C360.004 27.1061 359.743 28.4559 359.75 29.8173V41.9511C359.757 42.3975 359.675 42.8408 359.507 43.2545C359.34 43.6682 359.09 44.0441 358.773 44.3598C358.458 44.6755 358.081 44.9245 357.668 45.092C357.254 45.2596 356.81 45.3424 356.364 45.3354C355.471 45.3361 354.614 44.9831 353.982 44.3539Z" fill="#3AC6F4"/>
<path d="M107.707 12.3751C107.442 12.3691 107.176 12.3812 106.912 12.4116C106.824 12.4064 106.735 12.4188 106.652 12.448C106.461 12.448 106.31 12.4844 106.131 12.4844C106.016 12.4844 105.904 12.5209 105.789 12.5209C105.674 12.5209 105.487 12.5573 105.336 12.5573C105.207 12.567 105.08 12.5924 104.958 12.6328C104.807 12.6719 104.697 12.6719 104.541 12.7083C104.385 12.7448 104.28 12.7448 104.163 12.7838C104.046 12.8229 103.936 12.8229 103.785 12.8593L103.368 12.9739C103.271 13.0129 103.17 13.0383 103.066 13.0493C102.915 13.0884 102.764 13.1248 102.649 13.1639C102.568 13.2062 102.479 13.2319 102.388 13.2394C102.237 13.2784 102.086 13.3539 101.935 13.3904C101.866 13.4327 101.789 13.4586 101.708 13.4659C101.557 13.5414 101.367 13.5804 101.216 13.6559C101.177 13.695 101.101 13.695 101.065 13.7314C98.1851 15.0239 95.7403 17.1197 94.0243 19.7667C92.3083 22.4138 91.3941 25.4997 91.3913 28.6533V28.8043C91.3758 31.1977 90.444 33.4944 88.7873 35.2236C87.1306 36.9525 84.8744 37.9829 82.4816 38.1031H81.9891C80.3902 38.102 78.8177 37.6964 77.418 36.9242C76.0184 36.1522 74.8373 35.0385 73.9847 33.6873C73.1322 32.3362 72.636 30.7912 72.5424 29.1968C72.4487 27.6023 72.7607 26.0101 73.4493 24.5685C74.1379 23.127 75.1807 21.8832 76.4804 20.9529C77.7801 20.0226 79.2944 19.4362 80.8822 19.2483C82.47 19.0604 84.0795 19.2772 85.5608 19.8785C87.042 20.4796 88.3468 21.4457 89.3535 22.6866C90.0957 20.3932 91.2617 18.259 92.7907 16.3946C89.8296 13.7625 86.0022 12.3114 82.0385 12.3178C77.712 12.3275 73.5657 14.0511 70.5095 17.1105C67.4532 20.17 65.7364 24.3154 65.7358 28.6377V28.8277C65.7537 33.1181 67.4712 37.2269 70.5131 40.2557C73.5548 43.2846 77.6733 44.9872 81.9682 44.9914C82.7795 44.9861 83.5893 44.9235 84.3918 44.8039H84.4309C84.6915 44.7675 84.9234 44.7284 85.1892 44.692C85.21 44.6946 85.2311 44.6925 85.251 44.6857C85.2709 44.679 85.289 44.6677 85.3038 44.6529C85.5223 44.6212 85.7377 44.5707 85.9475 44.5019C86.0231 44.5019 86.0622 44.4629 86.1378 44.4629C86.328 44.4264 86.4791 44.3484 86.659 44.3119C86.7344 44.2728 86.8491 44.2755 86.9195 44.2364C87.0639 44.2023 87.2038 44.1517 87.3365 44.0854L87.6778 43.9709C87.7925 43.9318 87.8682 43.8954 87.9802 43.8563C88.1313 43.7808 88.2824 43.7419 88.4336 43.6663C88.4726 43.6273 88.5483 43.6273 88.5847 43.5908C91.4386 42.3308 93.8669 40.2735 95.5776 37.6668C97.2883 35.06 98.2083 32.015 98.2267 28.898V28.6377C98.2263 27.302 98.5102 25.9815 99.0597 24.7639C99.6092 23.5462 100.412 22.4592 101.414 21.5751L101.453 21.536C101.557 21.4374 101.672 21.3502 101.794 21.2757L101.87 21.2002C101.978 21.1318 102.079 21.0534 102.172 20.9659C102.211 20.9268 102.248 20.9268 102.287 20.8904C102.394 20.8244 102.496 20.7486 102.589 20.6639C102.628 20.6249 102.665 20.6249 102.704 20.5884C102.809 20.5114 102.924 20.4475 103.045 20.3984C103.084 20.3984 103.084 20.3593 103.121 20.3593C103.272 20.2838 103.381 20.2083 103.538 20.1329H103.577C103.884 19.9838 104.2 19.8569 104.525 19.7528C104.564 19.7528 104.601 19.7137 104.64 19.7137L104.981 19.5991C105.02 19.5991 105.096 19.5601 105.133 19.5601C105.229 19.5211 105.331 19.4957 105.435 19.4846C105.51 19.4846 105.549 19.4455 105.625 19.4455C105.74 19.4066 105.815 19.4091 105.927 19.37C106.003 19.37 106.042 19.3311 106.118 19.3311C106.193 19.3311 106.344 19.2945 106.42 19.2945C106.486 19.3005 106.552 19.287 106.61 19.2555C106.725 19.2555 106.837 19.2165 106.952 19.219H107.645C110.149 19.2336 112.546 20.2379 114.311 22.0125C116.076 23.7873 117.067 26.1878 117.065 28.6897V28.8407C117.042 30.7776 116.422 32.66 115.288 34.2313C114.154 35.8026 112.562 36.986 110.73 37.6199C108.898 38.2538 106.915 38.3073 105.051 37.7733C103.187 37.2391 101.534 36.1434 100.317 34.6356C99.571 36.9338 98.3997 39.0718 96.8638 40.9381C99.825 43.5701 103.652 45.0213 107.616 45.0149C111.949 45.0269 116.109 43.3191 119.181 40.267C122.253 37.215 123.986 33.0689 123.998 28.7405C124.01 24.4123 122.301 20.2563 119.246 17.1873C116.19 14.1182 112.04 12.3872 107.707 12.3751Z" fill="#3AC6F4"/>
<mask id="mask2_173_1978" style="mask-type:luminance" maskUnits="userSpaceOnUse" x="65" y="12" width="59" height="34">
<path d="M107.707 12.3751C107.442 12.3691 107.176 12.3812 106.912 12.4116C106.824 12.4064 106.735 12.4188 106.652 12.448C106.461 12.448 106.31 12.4844 106.131 12.4844C106.016 12.4844 105.904 12.5209 105.789 12.5209C105.674 12.5209 105.487 12.5573 105.336 12.5573C105.207 12.567 105.08 12.5924 104.958 12.6328C104.807 12.6719 104.697 12.6719 104.541 12.7083C104.385 12.7448 104.28 12.7448 104.163 12.7838C104.046 12.8229 103.936 12.8229 103.785 12.8593L103.368 12.9739C103.271 13.0129 103.17 13.0383 103.066 13.0493C102.915 13.0884 102.764 13.1248 102.649 13.1639C102.568 13.2062 102.479 13.2319 102.388 13.2394C102.237 13.2784 102.086 13.3539 101.935 13.3904C101.866 13.4327 101.789 13.4586 101.708 13.4659C101.557 13.5414 101.367 13.5804 101.216 13.6559C101.177 13.695 101.101 13.695 101.065 13.7314C98.1851 15.0239 95.7403 17.1197 94.0243 19.7667C92.3083 22.4138 91.3941 25.4997 91.3913 28.6533V28.8043C91.3758 31.1977 90.444 33.4944 88.7873 35.2236C87.1306 36.9525 84.8744 37.9829 82.4816 38.1031H81.9891C80.3902 38.102 78.8177 37.6964 77.418 36.9242C76.0184 36.1522 74.8373 35.0385 73.9847 33.6873C73.1322 32.3362 72.636 30.7912 72.5424 29.1968C72.4487 27.6023 72.7607 26.0101 73.4493 24.5685C74.1379 23.127 75.1807 21.8832 76.4804 20.9529C77.7801 20.0226 79.2944 19.4362 80.8822 19.2483C82.47 19.0604 84.0795 19.2772 85.5608 19.8785C87.042 20.4796 88.3468 21.4457 89.3535 22.6866C90.0957 20.3932 91.2617 18.259 92.7907 16.3946C89.8296 13.7625 86.0022 12.3114 82.0385 12.3178C77.712 12.3275 73.5657 14.0511 70.5095 17.1105C67.4532 20.17 65.7364 24.3154 65.7358 28.6377V28.8277C65.7537 33.1181 67.4712 37.2269 70.5131 40.2557C73.5548 43.2846 77.6733 44.9872 81.9682 44.9914C82.7795 44.9861 83.5893 44.9235 84.3918 44.8039H84.4309C84.6915 44.7675 84.9234 44.7284 85.1892 44.692C85.21 44.6946 85.2311 44.6925 85.251 44.6857C85.2709 44.679 85.289 44.6677 85.3038 44.6529C85.5223 44.6212 85.7377 44.5707 85.9475 44.5019C86.0231 44.5019 86.0622 44.4629 86.1378 44.4629C86.328 44.4264 86.4791 44.3484 86.659 44.3119C86.7344 44.2728 86.8491 44.2755 86.9195 44.2364C87.0639 44.2023 87.2038 44.1517 87.3365 44.0854L87.6778 43.9709C87.7925 43.9318 87.8682 43.8954 87.9802 43.8563C88.1313 43.7808 88.2824 43.7419 88.4336 43.6663C88.4726 43.6273 88.5483 43.6273 88.5847 43.5908C91.4386 42.3308 93.8669 40.2735 95.5776 37.6668C97.2883 35.06 98.2083 32.015 98.2267 28.898V28.6377C98.2263 27.302 98.5102 25.9815 99.0597 24.7639C99.6092 23.5462 100.412 22.4592 101.414 21.5751L101.453 21.536C101.557 21.4374 101.672 21.3502 101.794 21.2757L101.87 21.2002C101.978 21.1318 102.079 21.0534 102.172 20.9659C102.211 20.9268 102.248 20.9268 102.287 20.8904C102.394 20.8244 102.496 20.7486 102.589 20.6639C102.628 20.6249 102.665 20.6249 102.704 20.5884C102.809 20.5114 102.924 20.4475 103.045 20.3984C103.084 20.3984 103.084 20.3593 103.121 20.3593C103.272 20.2838 103.381 20.2083 103.538 20.1329H103.577C103.884 19.9838 104.2 19.8569 104.525 19.7528C104.564 19.7528 104.601 19.7137 104.64 19.7137L104.981 19.5991C105.02 19.5991 105.096 19.5601 105.133 19.5601C105.229 19.5211 105.331 19.4957 105.435 19.4846C105.51 19.4846 105.549 19.4455 105.625 19.4455C105.74 19.4066 105.815 19.4091 105.927 19.37C106.003 19.37 106.042 19.3311 106.118 19.3311C106.193 19.3311 106.344 19.2945 106.42 19.2945C106.486 19.3005 106.552 19.287 106.61 19.2555C106.725 19.2555 106.837 19.2165 106.952 19.219H107.645C110.149 19.2336 112.546 20.2379 114.311 22.0125C116.076 23.7873 117.067 26.1878 117.065 28.6897V28.8407C117.042 30.7776 116.422 32.66 115.288 34.2313C114.154 35.8026 112.562 36.986 110.73 37.6199C108.898 38.2538 106.915 38.3073 105.051 37.7733C103.187 37.2391 101.534 36.1434 100.317 34.6356C99.571 36.9338 98.3997 39.0718 96.8638 40.9381C99.825 43.5701 103.652 45.0213 107.616 45.0149C111.949 45.0269 116.109 43.3191 119.181 40.267C122.253 37.215 123.986 33.0689 123.998 28.7405C124.01 24.4123 122.301 20.2563 119.246 17.1873C116.19 14.1182 112.04 12.3872 107.707 12.3751Z" fill="white"/>
</mask>
<g mask="url(#mask2_173_1978)">
<path d="M58.522 11.8545H130.246V45.4782H58.522V11.8545Z" fill="#3AC6F4"/>
</g>
</g>
</g>
</g>
<defs>
<clipPath id="clip0_173_1978">
<rect width="373.99" height="60" fill="white" transform="translate(0 0.400146)"/>
</clipPath>
<clipPath id="clip1_173_1978">
<rect width="373.953" height="60" fill="white" transform="translate(0.0180664 0.400146)"/>
</clipPath>
</defs>
</svg>
