<svg width="250" height="48" viewBox="0 0 250 48" fill="none" xmlns="http://www.w3.org/2000/svg">
<g clip-path="url(#clip0_173_1397)">
<g clip-path="url(#clip1_173_1397)">
<path d="M193.859 27.6043C192.821 26.6123 191.996 25.4197 191.434 24.0989C190.871 22.7782 190.583 21.3569 190.587 19.9213V19.8238C190.591 18.3739 190.884 16.9393 191.448 15.6038C192.013 14.2682 192.837 13.0584 193.874 12.045C195.96 9.98064 198.779 8.82729 201.714 8.83772C204.634 8.83772 207.35 9.86385 209.193 11.7802C209.699 12.2514 210.002 12.9014 210.036 13.5921C210.041 13.9098 209.977 14.2249 209.849 14.5155C209.72 14.806 209.529 15.0652 209.291 15.275C208.779 15.7088 208.265 15.937 207.752 15.937C207.035 15.937 206.395 15.5276 205.662 14.9405C204.467 13.9544 202.958 13.428 201.409 13.4562C199.719 13.4562 198.129 14.2436 197 15.4422C195.904 16.6129 195.283 18.1492 195.258 19.7523V19.8238C195.267 21.4105 195.88 22.9343 196.97 24.0868C197.506 24.698 198.162 25.1911 198.899 25.5345C199.635 25.8779 200.435 26.0643 201.247 26.0816C202.913 26.16 204.322 25.7523 205.631 24.606C206.374 24.045 207.024 23.6374 207.681 23.6391C208.245 23.6391 208.756 23.8691 209.268 24.3046C209.505 24.51 209.695 24.765 209.823 25.0516C209.951 25.3382 210.014 25.6493 210.009 25.9632C209.96 26.6504 209.658 27.2953 209.162 27.7733C207.315 29.6896 204.599 30.7018 201.671 30.7001C200.228 30.7293 198.795 30.4706 197.454 29.939C196.113 29.4075 194.891 28.6137 193.86 27.6043H193.859Z" fill="#3AC6F4"/>
<path d="M233.54 11.4926C233.546 10.8719 233.319 10.2716 232.904 9.8097C232.521 9.3759 231.833 9.14593 231.193 9.14593C230.679 9.14084 230.179 9.31648 229.781 9.6422C229.383 9.96792 229.112 10.423 229.016 10.9282C227.282 9.66326 225.209 8.94555 223.064 8.86719H222.955H222.881H222.617C219.741 8.90039 216.994 10.0653 214.971 12.1096C212.948 14.1539 211.812 16.9129 211.809 19.7889C211.806 22.6649 212.936 25.4263 214.955 27.4748C216.974 29.5233 219.718 30.6939 222.594 30.733H222.855H222.946H223.04C225.186 30.6598 227.261 29.9463 228.998 28.6843C229.098 29.1859 229.37 29.6369 229.767 29.9595C230.164 30.282 230.661 30.4558 231.172 30.4508C231.812 30.4508 232.5 30.2226 232.883 29.7905C233.3 29.3305 233.528 28.7302 233.523 28.1093V19.9212L233.54 11.4926ZM228.979 20.1146C228.906 21.6751 228.252 23.1518 227.145 24.2539C226.327 25.059 225.309 25.6316 224.196 25.9127C223.083 26.1938 221.916 26.1733 220.814 25.8533C219.815 25.5328 218.905 24.982 218.158 24.2452C217.563 23.6642 217.09 22.9704 216.767 22.2043C216.443 21.4382 216.275 20.6152 216.273 19.7836C216.273 19.5867 216.284 19.3933 216.301 19.1999C216.447 17.7293 217.108 16.3573 218.165 15.3254C218.914 14.5905 219.825 14.0415 220.824 13.7226C221.926 13.3923 223.096 13.3678 224.211 13.6516C225.326 13.9355 226.342 14.5171 227.151 15.3341C228.321 16.5039 228.98 18.0892 228.984 19.7435C228.984 19.7609 228.984 19.7783 228.984 19.7958C228.988 19.902 228.984 20.01 228.979 20.1146Z" fill="#3AC6F4"/>
<path d="M3.44087 27.4405C2.40627 26.4414 1.58376 25.2439 1.0225 23.9196C0.461245 22.5953 0.17277 21.1715 0.174323 19.7332V19.7071C0.174323 19.6809 0.174323 19.6809 0.200455 19.6809V19.6496C0.174323 19.6496 0.174323 19.6496 0.174323 19.6287C0.177586 18.1794 0.469507 16.7452 1.03304 15.41C1.59658 14.0747 2.42045 12.8651 3.45655 11.8517C5.54217 9.78709 8.36164 8.63424 11.2963 8.64609C14.2179 8.64609 16.9322 9.67222 18.7754 11.5869C19.2809 12.0585 19.5833 12.7082 19.6186 13.3987C19.6235 13.7165 19.5594 14.0315 19.4307 14.3221C19.3019 14.6127 19.1116 14.8718 18.8729 15.0816C18.3607 15.5154 17.8468 15.7436 17.3346 15.7436C16.6168 15.7436 15.9775 15.3342 15.244 14.7471C14.0489 13.7621 12.5416 13.2358 10.9931 13.2628C9.3015 13.2628 7.71265 14.0503 6.58373 15.2489C5.48797 16.4194 4.86696 17.9558 4.84157 19.559L4.81544 19.6095L4.84157 19.6356C4.85103 21.2219 5.46324 22.7453 6.55411 23.897C7.08948 24.5082 7.74625 25.0012 8.48261 25.3446C9.21898 25.688 10.0188 25.8744 10.8311 25.8917C12.4966 25.9701 13.906 25.5625 15.2144 24.4161C15.9583 23.8551 16.6081 23.4475 17.2649 23.4492C17.8276 23.4492 18.3416 23.6792 18.852 24.1147C19.0894 24.3201 19.2787 24.5751 19.4066 24.8617C19.5346 25.1483 19.598 25.4595 19.5924 25.7733C19.5436 26.4605 19.242 27.1054 18.7458 27.5834C16.8991 29.4997 14.183 30.5119 11.2545 30.5102C9.81261 30.5499 8.37756 30.2985 7.03506 29.7711C5.69255 29.2437 4.47014 28.451 3.44087 27.4405Z" fill="#3AC6F4"/>
<path d="M36.9442 28.2452L36.9546 19.2278C36.9546 17.3724 36.5226 15.8009 35.6776 14.6406C34.8066 13.5065 33.5766 12.9386 32.0365 12.9368C30.5487 12.9368 29.1881 13.7835 28.2369 14.8393C27.2874 15.8689 26.7212 17.3619 26.6411 19.0204L26.6306 28.2452C26.628 28.699 26.4914 29.1419 26.2379 29.5183C25.9845 29.8948 25.6255 30.188 25.2059 30.361C24.7864 30.5341 24.3251 30.5794 23.88 30.4912C23.4348 30.4031 23.0256 30.1853 22.7038 29.8654C22.4835 29.6418 22.311 29.3758 22.1966 29.0835C22.0822 28.7912 22.0283 28.4787 22.0383 28.165L22.0661 2.83751C22.0716 2.53849 22.136 2.24348 22.2555 1.96936C22.3751 1.69523 22.5476 1.44737 22.763 1.23995C22.9691 1.02661 23.2163 0.857322 23.4897 0.74233C23.7631 0.627337 24.057 0.569038 24.3536 0.570962C24.6603 0.565127 24.965 0.62235 25.2487 0.739083C25.5324 0.855817 25.7891 1.02957 26.0029 1.24959C26.2167 1.4696 26.3831 1.73118 26.4916 2.01811C26.6002 2.30504 26.6487 2.61121 26.6341 2.91765L26.6254 10.956C28.3675 9.28351 30.3989 8.33229 32.5034 8.34274C35.1463 8.34274 37.4285 9.42985 39.0156 11.3898C40.6045 13.3236 41.4999 16.0814 41.4965 19.1476L41.486 28.2678C41.4893 28.5679 41.4323 28.8657 41.3184 29.1433C41.2044 29.421 41.0358 29.6729 40.8226 29.8842C40.6094 30.0954 40.356 30.2617 40.0773 30.3731C39.7986 30.4845 39.5004 30.5387 39.2003 30.5326C38.9014 30.5399 38.6041 30.4861 38.3267 30.3747C38.0492 30.2633 37.7973 30.0966 37.5864 29.8847C37.3755 29.6728 37.2099 29.4201 37.0998 29.1422C36.9897 28.8642 36.9373 28.5667 36.9459 28.2678L36.9442 28.2452Z" fill="#3AC6F4"/>
<path d="M88.2473 29.6495C86.6376 28.9527 85.4965 27.9701 84.7961 26.7001C84.5629 26.3172 84.4377 25.8783 84.4337 25.43C84.4293 25.0708 84.5291 24.718 84.7212 24.4144C84.9123 24.0936 85.1862 23.8302 85.5142 23.6518C85.8422 23.4734 86.2122 23.3866 86.5853 23.4004C86.9924 23.407 87.3925 23.5068 87.7549 23.6923C88.1174 23.8777 88.4324 24.1438 88.6759 24.4701C89.7125 25.944 90.8292 26.5293 92.7769 26.5311C93.5948 26.5427 94.4005 26.3319 95.1079 25.9213C95.7839 25.5415 96.1532 24.9579 96.1532 24.2471C96.1766 23.8421 96.0473 23.443 95.7909 23.1286C95.3501 22.5694 94.6498 22.1374 93.6376 21.8569L92.3658 21.4753C90.1585 20.7105 88.533 20.0241 87.3135 19.1077C85.7822 18.0624 85.0052 16.6931 85.0069 15.0171C85.0069 13.1635 85.8937 11.5328 87.3745 10.4231C88.7787 9.35861 90.7264 8.72446 92.7003 8.7262C94.0617 8.71941 95.4113 8.97985 96.6724 9.49275C98.0487 10.0781 98.9825 10.8151 99.5017 11.8063C99.6629 12.1213 99.7515 12.4683 99.7613 12.822C99.7622 13.0538 99.7164 13.2835 99.6266 13.4972C99.5368 13.7109 99.4049 13.9044 99.2386 14.0659C99.0511 14.2813 98.8196 14.454 98.5596 14.5721C98.2996 14.6902 98.0172 14.7511 97.7316 14.7506C97.4642 14.7544 97.1989 14.7022 96.9529 14.5973L96.0191 13.9109C95.5783 13.606 95.2665 13.4022 95.1358 13.3255C94.4963 12.9571 93.7711 12.7636 93.033 12.7645C91.0592 12.7645 89.6829 13.5224 89.6811 14.9196C89.6811 15.5799 90.0435 16.1391 90.8222 16.6217C91.4721 17.0032 92.3275 17.3342 93.6515 17.7175C95.8327 18.3795 97.364 18.9649 98.5574 19.8813C99.2256 20.365 99.766 21.0043 100.132 21.7437C100.497 22.4831 100.678 23.3005 100.657 24.1252C100.657 25.9283 99.8484 27.5276 98.4181 28.7192C96.9877 29.9109 95.04 30.5955 92.8066 30.5921C91.2427 30.5852 89.6963 30.2634 88.2595 29.6461L88.2473 29.6495Z" fill="#3AC6F4"/>
<path d="M105.482 27.4664C104.462 26.454 103.652 25.2493 103.099 23.9219C102.547 22.5945 102.263 21.1707 102.265 19.733C102.276 16.8034 103.447 13.9976 105.522 11.9298C107.05 10.4138 108.992 9.38279 111.104 8.96628C113.215 8.54977 115.403 8.7663 117.392 9.58869C119.381 10.4111 121.083 11.8027 122.284 13.5888C123.485 15.375 124.132 17.4761 124.143 19.6284C124.143 20.9037 123.202 21.7957 121.908 21.7939L107.317 21.7783C107.683 23.0478 108.436 24.1718 109.47 24.9943C110.537 25.8205 111.851 26.2624 113.2 26.2487C114.942 26.2487 116.296 25.6912 117.287 24.6197C117.706 24.2598 118.234 24.0533 118.786 24.0344C119.044 24.0398 119.301 24.0833 119.547 24.1633C120.015 24.3452 120.402 24.6897 120.637 25.1337C120.888 25.5116 121.019 25.9557 121.016 26.4089C121.016 27.0727 120.711 27.6581 120.144 28.1424C119.369 28.8897 118.454 29.478 117.453 29.8741C116.091 30.3879 114.643 30.6374 113.188 30.6093C111.758 30.6314 110.339 30.365 109.014 29.8262C107.69 29.2875 106.487 28.4872 105.479 27.4734L105.482 27.4664ZM119.502 17.9385C119.186 16.5756 118.429 15.355 117.348 14.4664C116.207 13.5658 114.795 13.0788 113.341 13.0849C111.892 13.0593 110.481 13.5454 109.355 14.4577C108.279 15.3453 107.528 16.5645 107.219 17.9246L119.502 17.9385Z" fill="#3AC6F4"/>
<path d="M157.676 11.3376C156.961 10.5234 156.078 9.87363 155.088 9.43305C154.098 8.99247 153.024 8.7715 151.941 8.78534C149.887 8.78534 147.455 9.74875 145.625 11.2993C143.798 9.74527 141.369 8.77489 139.315 8.77314C138.232 8.7561 137.157 8.97438 136.166 9.41292C135.175 9.85145 134.291 10.4998 133.575 11.3132C132.207 12.9038 131.455 15.0205 131.441 17.315C131.441 17.3376 131.441 17.3585 131.441 17.3812L131.43 27.7191C131.43 27.7575 131.43 27.7941 131.43 27.8306C131.438 28.5757 131.738 29.2879 132.267 29.8126C132.796 30.3374 133.511 30.6324 134.256 30.6338C135.016 30.6306 135.745 30.3298 136.286 29.7958C136.565 29.5357 136.787 29.2207 136.939 28.8705C137.09 28.5203 137.167 28.1425 137.165 27.7609L137.176 17.3237C137.175 16.6095 137.421 15.917 137.873 15.3637C138.103 15.1187 138.384 14.9261 138.695 14.799C139.006 14.6718 139.341 14.6131 139.678 14.6268C140.655 14.6268 141.331 14.801 141.806 15.1895C142.391 15.7242 142.749 16.4622 142.806 17.2522L142.796 27.74C142.787 28.116 142.853 28.49 142.99 28.8401C143.127 29.1902 143.334 29.5092 143.596 29.7784C143.859 30.0476 144.173 30.2615 144.519 30.4076C144.866 30.5537 145.238 30.6289 145.614 30.6289C145.99 30.6289 146.362 30.5537 146.709 30.4076C147.055 30.2615 147.369 30.0476 147.632 29.7784C147.894 29.5092 148.1 29.1902 148.238 28.8401C148.375 28.49 148.441 28.116 148.432 27.74L148.442 17.2278C148.519 16.4386 148.92 15.5989 149.446 15.1669C149.923 14.7853 150.599 14.6076 151.577 14.6094C151.912 14.6042 152.244 14.6671 152.554 14.7944C152.864 14.9217 153.145 15.1106 153.38 15.3498C153.828 15.9048 154.074 16.5962 154.077 17.3097L154.066 27.7714C154.055 28.1576 154.127 28.5417 154.277 28.8976C154.427 29.2536 154.652 29.573 154.937 29.8341C155.474 30.3558 156.192 30.6487 156.941 30.6512C157.316 30.651 157.688 30.5763 158.034 30.4313C158.38 30.2864 158.694 30.0742 158.958 29.807C159.222 29.5397 159.43 29.2228 159.57 28.8746C159.71 28.5264 159.78 28.1538 159.775 27.7784L159.786 17.3934C159.786 15.0745 159.04 12.9352 157.664 11.3306L157.676 11.3376Z" fill="white"/>
<path d="M181.132 8.81503C180.746 8.80904 180.362 8.87918 180.003 9.02146C179.644 9.16373 179.317 9.37535 179.039 9.64423C178.762 9.91311 178.541 10.234 178.387 10.5885C178.234 10.943 178.152 11.3243 178.146 11.7105L178.136 21.2924V21.3429C178.136 21.3429 178.082 22.7663 177.113 23.7314C176.327 24.4927 175.071 24.8743 173.369 24.8725C171.171 24.8725 169.679 24.2837 168.869 23.1391C168.48 22.5701 168.247 21.9096 168.192 21.2227L168.202 11.6879C168.183 10.9091 167.861 10.1685 167.303 9.62438C166.746 9.08024 165.998 8.77563 165.219 8.77563C164.44 8.77563 163.691 9.08024 163.134 9.62438C162.576 10.1685 162.254 10.9091 162.235 11.6879L162.225 21.2697C162.225 23.5676 163.768 29.0572 170.317 30.3743V35.2994C170.317 36.7488 171.582 37.9509 173.15 37.9527C174.718 37.9544 175.962 36.7802 175.988 35.3063V30.4457C178.144 30.0607 179.944 29.1704 181.347 27.775C184.019 25.1617 184.101 21.8028 184.101 21.268L184.111 11.707C184.106 11.3209 184.025 10.9396 183.873 10.5848C183.72 10.23 183.5 9.90873 183.223 9.63934C182.946 9.36996 182.619 9.15774 182.26 9.0148C181.902 8.87187 181.518 8.80102 181.132 8.80632V8.81503Z" fill="white"/>
<path d="M236.636 30.0745C236.419 29.8675 236.247 29.6184 236.129 29.3426C236.012 29.0667 235.952 28.7698 235.953 28.47L235.971 11.1599C235.97 10.8564 236.03 10.5557 236.147 10.2759C236.265 9.99608 236.438 9.74275 236.655 9.53098C236.867 9.31746 237.12 9.14891 237.398 9.03545C237.676 8.92198 237.975 8.86595 238.275 8.8707C238.573 8.86117 238.87 8.91546 239.145 9.02995C239.42 9.14443 239.668 9.31644 239.871 9.53446C240.287 9.97387 240.513 10.5588 240.502 11.1634C242.579 9.66338 244.833 8.89857 247.296 8.89857H247.397C248.866 8.89857 249.751 9.81669 249.751 11.1634C249.751 12.4369 248.706 13.4282 247.394 13.4282H247.293C246.402 13.4266 245.519 13.6032 244.697 13.9476C243.875 14.2919 243.13 14.7971 242.505 15.4334C241.862 16.0791 241.354 16.8456 241.008 17.6888C240.663 18.532 240.488 19.4352 240.493 20.3463V28.4665C240.498 28.7652 240.443 29.0619 240.33 29.3388C240.218 29.6157 240.052 29.8672 239.84 30.0785C239.629 30.2897 239.378 30.4564 239.101 30.5685C238.824 30.6807 238.527 30.736 238.228 30.7313C237.632 30.7318 237.059 30.4956 236.636 30.0745Z" fill="#3AC6F4"/>
<path d="M8.67246 44.6025C8.66459 44.8943 8.58501 45.1797 8.44075 45.4335C8.26132 45.7559 8.02181 46.041 7.73518 46.2733C7.38008 46.5593 6.97479 46.7768 6.54006 46.9144C6.015 47.0829 5.46599 47.1647 4.91462 47.1565C3.63704 47.1565 2.63762 46.7831 1.91636 46.0363C1.19511 45.2895 0.835644 44.2872 0.837966 43.0294C0.82186 42.2495 0.990822 41.4769 1.331 40.775C1.64398 40.1387 2.14112 39.6112 2.75783 39.2611C3.44178 38.8897 4.21155 38.7052 4.98953 38.7262C5.49172 38.7207 5.99122 38.8003 6.46689 38.9614C6.87825 39.0984 7.26348 39.3039 7.60626 39.5694C7.89108 39.7875 8.13322 40.0562 8.32054 40.3621C8.47095 40.5976 8.5563 40.8687 8.56793 41.1478C8.56903 41.2661 8.54489 41.3832 8.49713 41.4913C8.44936 41.5995 8.37906 41.6962 8.29093 41.775C8.10933 41.9459 7.86778 42.0385 7.61845 42.0328C7.46465 42.0391 7.31338 41.9923 7.18988 41.9004C7.0433 41.7756 6.91436 41.6314 6.80661 41.4719C6.59946 41.1343 6.33054 40.8388 6.01393 40.6008C5.70343 40.3994 5.33848 40.2984 4.96863 40.3116C4.68235 40.3038 4.3984 40.365 4.1407 40.4899C3.88299 40.6148 3.65907 40.7998 3.48779 41.0294C3.108 41.5148 2.91869 42.1699 2.91985 42.9945C2.91654 43.3579 2.96524 43.7199 3.06445 44.0694C3.14811 44.3746 3.29075 44.6605 3.48431 44.9109C3.66035 45.1345 3.88654 45.3135 4.14459 45.4335C4.41195 45.5527 4.70208 45.6122 4.99476 45.6078C5.37092 45.6187 5.74191 45.5181 6.06096 45.3186C6.38906 45.0912 6.65837 44.789 6.84668 44.437C6.95165 44.2331 7.09003 44.0482 7.25609 43.89C7.40336 43.7582 7.59512 43.6873 7.79267 43.6914C7.91278 43.689 8.03188 43.7138 8.14108 43.7638C8.25028 43.8139 8.34676 43.888 8.42333 43.9806C8.57928 44.1479 8.66799 44.3669 8.67246 44.5956V44.6025Z" fill="#E4E8EF"/>
<path d="M10.0921 45.9073V36.9177C10.0674 36.5809 10.1659 36.2466 10.3691 35.977C10.4619 35.8712 10.5772 35.7877 10.7065 35.7325C10.8359 35.6773 10.976 35.6519 11.1165 35.6581C11.2584 35.6526 11.3998 35.6779 11.5309 35.7324C11.6621 35.7868 11.7798 35.8691 11.8761 35.9735C12.0873 36.2409 12.1905 36.5779 12.1653 36.9177V45.9073C12.1912 46.2483 12.0866 46.5865 11.8726 46.8533C11.7774 46.9585 11.6605 47.0418 11.5299 47.0974C11.3994 47.1531 11.2583 47.1797 11.1165 47.1756C10.9766 47.1801 10.8374 47.1532 10.7093 47.0968C10.5811 47.0405 10.4673 46.956 10.3761 46.8498C10.1699 46.5806 10.069 46.2455 10.0921 45.9073Z" fill="#E4E8EF"/>
<path d="M15.3535 37.7767C15.0821 37.7829 14.8182 37.6879 14.613 37.5101C14.515 37.4136 14.4374 37.2984 14.3846 37.1714C14.3319 37.0444 14.3051 36.908 14.3059 36.7705C14.3067 36.6329 14.3351 36.4969 14.3894 36.3705C14.4436 36.2441 14.5226 36.1299 14.6218 36.0345C14.8208 35.8494 15.0834 35.7478 15.3552 35.7506C15.6166 35.7477 15.8702 35.8392 16.0695 36.0084C16.1745 36.1019 16.2567 36.2181 16.3098 36.3483C16.363 36.4784 16.3857 36.619 16.3761 36.7593C16.3837 36.8985 16.3604 37.0376 16.308 37.1668C16.2556 37.296 16.1754 37.412 16.073 37.5067C15.8737 37.6842 15.6151 37.7806 15.3482 37.7767H15.3535ZM16.3761 39.9178V45.9073C16.4006 46.2472 16.2947 46.5836 16.0799 46.8481C15.9861 46.9535 15.8705 47.0373 15.7412 47.0938C15.6119 47.1503 15.4719 47.1783 15.3308 47.1756C15.1909 47.1802 15.0517 47.1533 14.9236 47.0969C14.7954 47.0405 14.6816 46.9561 14.5904 46.8499C14.3851 46.5836 14.2842 46.2515 14.3064 45.9161V39.9927C14.2816 39.6591 14.3829 39.3283 14.5904 39.0659C14.6825 38.9607 14.7965 38.8768 14.9244 38.8202C15.0523 38.7637 15.191 38.7357 15.3308 38.7384C15.4709 38.7344 15.6102 38.7602 15.7396 38.8139C15.869 38.8677 15.9856 38.9482 16.0817 39.0502C16.2904 39.2908 16.3967 39.6034 16.3779 39.9213L16.3761 39.9178Z" fill="#E4E8EF"/>
<path d="M25.958 44.6024C25.9495 44.8931 25.87 45.1772 25.7263 45.4299C25.5494 45.7516 25.3129 46.0365 25.0294 46.2697C24.6743 46.5557 24.269 46.7732 23.8343 46.9108C23.3092 47.0793 22.7602 47.1611 22.2088 47.1529C20.9312 47.1529 19.9318 46.7795 19.2106 46.0327C18.4893 45.2859 18.1252 44.2848 18.1182 43.0292C18.1021 42.2494 18.2711 41.4768 18.6113 40.7749C18.9243 40.1385 19.4214 39.6111 20.0381 39.261C20.6063 38.9697 21.2264 38.7933 21.8628 38.7418C22.4992 38.6904 23.1396 38.765 23.7472 38.9613C24.1585 39.0983 24.5438 39.3038 24.8865 39.5693C25.1714 39.7874 25.4135 40.0561 25.6008 40.362C25.7512 40.5975 25.8366 40.8686 25.8482 41.1477C25.8498 41.2665 25.8259 41.3843 25.7781 41.4931C25.7303 41.6019 25.6598 41.6992 25.5712 41.7784C25.3896 41.9493 25.148 42.0419 24.8987 42.0362C24.7449 42.0424 24.5937 41.9957 24.4702 41.9038C24.3236 41.779 24.1946 41.6348 24.0869 41.4752C23.8797 41.1376 23.6108 40.8421 23.2942 40.6042C22.8918 40.3564 22.413 40.2633 21.9471 40.3422C21.4811 40.421 21.0596 40.6664 20.7611 41.0327C20.3871 41.5159 20.203 42.1698 20.2088 42.9944C20.2055 43.3578 20.2542 43.7197 20.3534 44.0693C20.4374 44.3719 20.5794 44.6554 20.7716 44.9038C20.9476 45.1274 21.1738 45.3065 21.4318 45.4265C21.6992 45.5456 21.9893 45.6051 22.282 45.6007C22.6582 45.6116 23.0291 45.511 23.3482 45.3115C23.6763 45.0841 23.9456 44.7819 24.1339 44.4299C24.2389 44.226 24.3773 44.0411 24.5433 43.8829C24.6913 43.7514 24.8837 43.681 25.0817 43.686C25.2018 43.6837 25.3209 43.7084 25.4301 43.7585C25.5393 43.8086 25.6357 43.8827 25.7123 43.9752C25.8683 44.1426 25.957 44.3615 25.9614 44.5902L25.958 44.6024Z" fill="#E4E8EF"/>
<path d="M32.3293 46.2192L30.5 43.2122L29.3763 44.275V45.923C29.3877 46.0899 29.3656 46.2574 29.3115 46.4156C29.2573 46.5739 29.1722 46.7197 29.061 46.8446C28.969 46.9455 28.8571 47.0263 28.7324 47.0817C28.6076 47.1372 28.4728 47.1662 28.3362 47.1669C28.1951 47.174 28.0543 47.1489 27.9242 47.0937C27.7942 47.0385 27.6783 46.9545 27.5854 46.8481C27.3843 46.5775 27.2873 46.2436 27.3118 45.9074V37.0711C27.2888 36.7034 27.3821 36.3377 27.5784 36.0258C27.6653 35.9076 27.7802 35.8127 27.9127 35.7498C28.0453 35.6868 28.1914 35.6578 28.338 35.6652C28.4809 35.6589 28.6235 35.6849 28.755 35.7413C28.8865 35.7977 29.0036 35.883 29.0976 35.991C29.3032 36.2683 29.4027 36.6101 29.378 36.9544V41.9805L31.7091 39.5415C31.9128 39.3175 32.1335 39.1095 32.3693 38.9196C32.53 38.8025 32.7246 38.7413 32.9233 38.7453C33.0418 38.7416 33.1599 38.7615 33.2706 38.804C33.3813 38.8465 33.4824 38.9106 33.5679 38.9927C33.6522 39.0717 33.7187 39.1677 33.7632 39.2743C33.8076 39.3809 33.829 39.4957 33.8258 39.6112C33.8258 39.9143 33.5453 40.3203 32.9826 40.8307L31.8815 41.8412L34.007 45.1809C34.1638 45.4283 34.277 45.6182 34.3449 45.7471C34.4085 45.8595 34.4438 45.9856 34.4477 46.1147C34.4632 46.3996 34.3663 46.6793 34.1777 46.8934C34.0861 46.9884 33.9753 47.0628 33.8528 47.1117C33.7303 47.1607 33.5987 47.1831 33.4669 47.1774C33.3605 47.1844 33.2538 47.1697 33.1532 47.1344C33.0526 47.0991 32.9602 47.0438 32.8815 46.9718C32.6746 46.7429 32.4897 46.495 32.3293 46.2314V46.2192Z" fill="#E4E8EF"/>
<path d="M37.4566 47.1756C37.1574 47.1812 36.8671 47.0729 36.6448 46.8725C36.5276 46.7652 36.4356 46.6334 36.3753 46.4864C36.3151 46.3394 36.2881 46.1809 36.2964 46.0223C36.2943 45.8742 36.3221 45.7273 36.3781 45.5902C36.4341 45.4531 36.5171 45.3287 36.6222 45.2244C36.7257 45.1158 36.8508 45.0299 36.9894 44.9724C37.1279 44.9148 37.277 44.8867 37.427 44.8899C37.5783 44.8871 37.7285 44.915 37.8686 44.9719C38.0088 45.0287 38.1359 45.1135 38.2424 45.2209C38.4592 45.4404 38.5808 45.7364 38.5808 46.0449C38.5808 46.3535 38.4592 46.6495 38.2424 46.869C38.0295 47.0682 37.7482 47.178 37.4566 47.1756Z" fill="#E4E8EF"/>
<path d="M51.5068 44.4579C51.5306 44.9827 51.382 45.5008 51.0838 45.9333C50.7856 46.3658 50.3542 46.6889 49.8553 46.8534C49.2182 47.0794 48.545 47.1863 47.8692 47.1687C47.2134 47.1838 46.5613 47.0653 45.9528 46.8203C45.4923 46.6447 45.0865 46.3501 44.7769 45.9666C44.5419 45.6744 44.4086 45.3135 44.3971 44.9387C44.3953 44.8298 44.4159 44.7217 44.4576 44.621C44.4992 44.5203 44.561 44.4292 44.6392 44.3534C44.7199 44.2732 44.816 44.2104 44.9217 44.1688C45.0275 44.1272 45.1406 44.1076 45.2542 44.1112C45.4358 44.0986 45.6153 44.1559 45.756 44.2715C45.8908 44.4017 46.0038 44.5529 46.0905 44.7192C46.2711 45.0549 46.5336 45.3395 46.8535 45.5467C47.2269 45.7489 47.6491 45.8436 48.073 45.8203C48.4338 45.836 48.7906 45.7392 49.0939 45.5433C49.2085 45.4797 49.3051 45.3883 49.3749 45.2774C49.4446 45.1666 49.4852 45.0399 49.4929 44.9091C49.5029 44.751 49.4696 44.5931 49.3965 44.4525C49.3234 44.3119 49.2134 44.1939 49.0783 44.1112C48.6489 43.8883 48.1903 43.727 47.7159 43.6321C47.1211 43.4937 46.5384 43.3072 45.9737 43.0746C45.5605 42.9049 45.1925 42.6412 44.8988 42.3046C44.6265 41.9744 44.4835 41.5564 44.4964 41.1286C44.498 40.7078 44.6281 40.2975 44.8692 39.9527C45.1448 39.5605 45.5251 39.2538 45.9668 39.0676C46.5174 38.8347 47.1113 38.7219 47.7089 38.7366C48.1964 38.733 48.6823 38.7915 49.1549 38.9108C49.5331 39.0019 49.8943 39.153 50.2246 39.3586C50.4822 39.5196 50.7044 39.7312 50.8779 39.9805C51.0168 40.176 51.095 40.4081 51.1026 40.6478C51.1061 40.7566 51.0866 40.865 51.0455 40.9658C51.0044 41.0667 50.9426 41.1578 50.864 41.2331C50.6759 41.3949 50.4321 41.4768 50.1845 41.4614C49.9885 41.4691 49.796 41.4074 49.641 41.2872C49.4506 41.1204 49.2789 40.9334 49.1288 40.7297C48.9779 40.5328 48.7896 40.3676 48.5748 40.2436C48.3052 40.1082 48.005 40.0452 47.7037 40.0607C47.3759 40.0485 47.0516 40.1314 46.7699 40.2993C46.6605 40.3567 46.5684 40.4421 46.5029 40.5468C46.4374 40.6515 46.4008 40.7717 46.3971 40.8952C46.3957 40.9998 46.4198 41.1033 46.4675 41.1965C46.5152 41.2897 46.5849 41.3699 46.6706 41.43C46.893 41.59 47.1427 41.7081 47.4075 41.7784C47.7153 41.869 48.1404 41.9805 48.6828 42.1129C49.2262 42.2358 49.7527 42.4242 50.2507 42.6739C50.6152 42.8553 50.9325 43.1189 51.1776 43.4439C51.3878 43.7405 51.4982 44.0962 51.4929 44.4596L51.5068 44.4579Z" fill="#E4E8EF"/>
<path d="M58.5002 45.9996C58.0564 46.3537 57.5671 46.6466 57.0455 46.8707C56.5473 47.071 56.0144 47.1705 55.4775 47.1634C54.9942 47.173 54.5159 47.0648 54.0838 46.848C53.7006 46.6553 53.3785 46.3597 53.1535 45.9944C52.9381 45.6427 52.8252 45.2378 52.8277 44.8254C52.8153 44.2912 53.008 43.7725 53.366 43.3759C53.7612 42.9566 54.2801 42.6746 54.8469 42.571C54.9793 42.5414 55.3051 42.4717 55.826 42.3655C56.3469 42.2592 56.7946 42.1616 57.1657 42.0728C57.5368 41.9839 57.9409 41.8759 58.3765 41.7505C58.3509 41.2034 58.2406 40.8022 58.0455 40.5467C57.8504 40.2911 57.4439 40.1634 56.826 40.1634C56.418 40.1396 56.0104 40.215 55.6378 40.3829C55.3584 40.5422 55.1235 40.7692 54.9549 41.0432C54.8311 41.2436 54.6968 41.4372 54.5524 41.6233C54.4741 41.7174 54.3051 41.7644 54.0472 41.7644C53.825 41.7692 53.6093 41.6888 53.4444 41.5397C53.3622 41.469 53.2967 41.3809 53.2527 41.2817C53.2088 41.1826 53.1873 41.0749 53.1901 40.9665C53.1983 40.5793 53.3343 40.2057 53.5768 39.9038C53.8951 39.5166 54.3123 39.2228 54.7842 39.0536C55.437 38.8123 56.1302 38.6987 56.826 38.7191C57.7377 38.7191 58.4537 38.8266 58.9741 39.0414C59.4613 39.2246 59.8577 39.5909 60.0786 40.0623C60.3158 40.6499 60.4256 41.2811 60.4009 41.9142C60.4009 42.3997 60.4009 42.812 60.4009 43.1512C60.4009 43.4892 60.4009 43.8672 60.3887 44.2818C60.3921 44.6957 60.4573 45.1067 60.5821 45.5014C60.6758 45.7653 60.7406 46.0387 60.7754 46.3167C60.7718 46.4296 60.743 46.5402 60.6911 46.6406C60.6393 46.741 60.5657 46.8285 60.4758 46.8968C60.2898 47.0656 60.0475 47.1588 59.7964 47.1581C59.5548 47.1456 59.328 47.0379 59.1657 46.8585C58.9122 46.5991 58.6916 46.3095 58.5089 45.9961L58.5002 45.9996ZM58.3626 42.9944C57.9291 43.1388 57.4869 43.2552 57.0385 43.3428C56.4584 43.4665 56.0577 43.5588 55.8347 43.6163C55.5986 43.683 55.3807 43.8021 55.197 43.9648C55.0952 44.0519 55.0149 44.1614 54.9623 44.2847C54.9098 44.408 54.8863 44.5418 54.8939 44.6756C54.8907 44.8264 54.9202 44.9761 54.9804 45.1144C55.0405 45.2528 55.1299 45.3764 55.2423 45.477C55.499 45.704 55.8338 45.8226 56.1761 45.808C56.5705 45.811 56.9596 45.7183 57.3103 45.5379C57.6275 45.3855 57.8928 45.1432 58.0734 44.8411C58.2603 44.5275 58.3538 44.0112 58.3538 43.2923L58.3626 42.9944Z" fill="#E4E8EF"/>
<path d="M63.5783 40.0327L65.256 44.7365L67.0626 39.8237C67.1553 39.5228 67.2966 39.2392 67.4807 38.9839C67.5588 38.8981 67.6554 38.8313 67.7631 38.7884C67.8709 38.7455 67.987 38.7278 68.1027 38.7365C68.2269 38.7341 68.3503 38.7564 68.4657 38.8022C68.5812 38.848 68.6864 38.9163 68.7752 39.0031C68.8619 39.0804 68.9314 39.1751 68.9792 39.2811C69.0269 39.387 69.0518 39.5019 69.0522 39.6181C69.0499 39.726 69.0335 39.8332 69.0034 39.9369C68.9722 40.0551 68.9344 40.1714 68.8901 40.2853L68.7421 40.6494L66.7525 45.585C66.6968 45.7261 66.6253 45.9073 66.5365 46.1233C66.459 46.3197 66.3596 46.5067 66.2403 46.6808C66.1366 46.8312 65.9987 46.9548 65.8379 47.0414C65.6581 47.1316 65.4588 47.1759 65.2577 47.1703C65.0095 47.1822 64.7643 47.1111 64.5609 46.9683C64.4013 46.8513 64.2693 46.7009 64.1741 46.5275C64.0905 46.3672 63.9494 46.0536 63.7525 45.5815L61.7786 40.7034C61.7333 40.5815 61.6863 40.4613 61.6375 40.3393C61.5893 40.2183 61.5486 40.0943 61.5156 39.9683C61.4857 39.8621 61.4694 39.7527 61.4668 39.6425C61.4696 39.4927 61.5143 39.3466 61.5957 39.2209C61.6835 39.0765 61.8064 38.9567 61.9529 38.8724C62.1022 38.7846 62.2726 38.7389 62.4459 38.74C62.7943 38.74 63.026 38.8393 63.155 39.0362C63.3348 39.3512 63.4786 39.6855 63.5835 40.0327H63.5783Z" fill="#E4E8EF"/>
<path d="M76.1222 43.463H72.0682C72.0642 43.8947 72.1615 44.3213 72.3521 44.7086C72.5103 45.0375 72.7592 45.3143 73.0693 45.5066C73.3795 45.6989 73.7381 45.7986 74.103 45.794C74.3324 45.7961 74.561 45.7668 74.7824 45.7069C74.9937 45.6462 75.1946 45.554 75.3783 45.4334C75.5651 45.3138 75.7427 45.1805 75.9096 45.0344C76.0716 44.8933 76.2807 44.6999 76.5403 44.4578C76.671 44.3585 76.833 44.3097 76.9967 44.3201C77.1868 44.3094 77.3738 44.3717 77.5194 44.4944C77.5862 44.5571 77.6385 44.6338 77.6725 44.719C77.7066 44.8042 77.7215 44.8958 77.7162 44.9874C77.7014 45.2217 77.6258 45.4481 77.4967 45.6442C77.3235 45.9247 77.0982 46.1695 76.833 46.3654C76.4954 46.6176 76.1179 46.8113 75.7162 46.9386C75.2153 47.102 74.6909 47.182 74.164 47.1755C72.833 47.1755 71.7981 46.7957 71.0594 46.0362C70.3208 45.2766 69.9514 44.2464 69.9514 42.9456C69.9456 42.3662 70.0381 41.7901 70.225 41.2417C70.3932 40.7417 70.6651 40.2828 71.0229 39.895C71.3821 39.5132 71.8235 39.2183 72.3138 39.0327C72.8568 38.827 73.4336 38.7254 74.0141 38.733C74.7446 38.711 75.4672 38.8881 76.1047 39.2452C76.6541 39.5558 77.105 40.0146 77.4061 40.5693C77.6854 41.0765 77.8339 41.6453 77.8382 42.2243C77.8382 42.7458 77.6889 43.0838 77.3905 43.2383C76.9941 43.4139 76.5621 43.4939 76.1291 43.4717L76.1222 43.463ZM72.0682 42.287H75.826C75.7749 41.5786 75.5838 41.0484 75.2528 40.6964C75.084 40.5215 74.8798 40.3844 74.654 40.2943C74.4281 40.2042 74.1857 40.1631 73.9427 40.1738C73.7048 40.1664 73.468 40.2104 73.2486 40.3027C73.0291 40.395 72.8321 40.5334 72.6709 40.7086C72.3399 41.0664 72.139 41.5942 72.0682 42.2923V42.287Z" fill="#E4E8EF"/>
<path d="M80.1759 47.1756C79.8766 47.1812 79.5864 47.0729 79.364 46.8725C79.2468 46.7652 79.1548 46.6334 79.0946 46.4864C79.0343 46.3394 79.0074 46.1809 79.0156 46.0223C79.0136 45.8742 79.0414 45.7273 79.0973 45.5902C79.1533 45.4531 79.2363 45.3287 79.3414 45.2244C79.445 45.1158 79.57 45.0299 79.7086 44.9724C79.8472 44.9148 79.9962 44.8867 80.1463 44.8899C80.2975 44.8871 80.4477 44.915 80.5879 44.9719C80.728 45.0287 80.8551 45.1135 80.9616 45.2209C81.1784 45.4404 81.3 45.7364 81.3 46.0449C81.3 46.3535 81.1784 46.6495 80.9616 46.869C80.7488 47.0682 80.4674 47.178 80.1759 47.1756Z" fill="#E4E8EF"/>
<path d="M93.2336 45.9839V45.7818C92.9877 46.0703 92.7114 46.3314 92.4095 46.5606C92.1421 46.7591 91.8445 46.9133 91.528 47.017C91.19 47.1238 90.8372 47.1762 90.4827 47.1721C90.005 47.1766 89.5329 47.0686 89.1047 46.8567C88.6767 46.6422 88.3018 46.3351 88.0071 45.9578C87.69 45.5478 87.4536 45.0813 87.3102 44.5832C87.1465 44.0285 87.066 43.4525 87.0716 42.8742C87.0716 41.578 87.388 40.5681 88.021 39.8445C88.3301 39.4887 88.7149 39.2065 89.1471 39.0187C89.5794 38.8309 90.0483 38.7422 90.5193 38.7592C91.0397 38.7433 91.5567 38.8482 92.0297 39.0658C92.4835 39.3056 92.8897 39.6261 93.2283 40.0118V36.9491C93.2046 36.6087 93.294 36.27 93.4827 35.9857C93.569 35.8778 93.6797 35.792 93.8058 35.7353C93.9318 35.6787 94.0695 35.6528 94.2074 35.6599C94.3431 35.6516 94.4788 35.6742 94.6044 35.7261C94.7299 35.7781 94.842 35.8579 94.9322 35.9595C95.1187 36.2153 95.2088 36.5288 95.1865 36.8445V45.9857C95.2115 46.3058 95.1137 46.6235 94.913 46.8742C94.8236 46.9713 94.7142 47.048 94.5925 47.0991C94.4707 47.1502 94.3394 47.1745 94.2074 47.1703C94.0758 47.1729 93.9452 47.1466 93.8249 47.0933C93.7045 47.04 93.5972 46.9611 93.5106 46.862C93.314 46.6158 93.2158 46.3053 93.2353 45.9909L93.2336 45.9839ZM89.1569 42.9386C89.1438 43.4301 89.2327 43.9189 89.4182 44.3742C89.5655 44.7351 89.8149 45.0451 90.136 45.2662C90.4302 45.4633 90.7767 45.5677 91.1308 45.5658C91.4839 45.5692 91.8306 45.4706 92.129 45.2818C92.45 45.0689 92.701 44.7658 92.8503 44.4108C93.0441 43.9461 93.1361 43.4453 93.1203 42.9421C93.1325 42.4539 93.0405 41.9686 92.8503 41.5188C92.6961 41.1538 92.4441 40.8385 92.1221 40.6076C91.8276 40.4013 91.4764 40.2911 91.1169 40.2923C90.7519 40.2877 90.3952 40.4007 90.0994 40.6146C89.7844 40.8516 89.5428 41.1729 89.4026 41.5414C89.2299 41.9854 89.1458 42.4589 89.1552 42.9351L89.1569 42.9386Z" fill="#E4E8EF"/>
<path d="M99.331 44.1774V45.9091C99.3567 46.2507 99.2507 46.5892 99.0349 46.8551C98.9395 46.9583 98.8232 47.0399 98.6936 47.0943C98.5641 47.1487 98.4244 47.1746 98.284 47.1705C98.1454 47.1741 98.0076 47.1475 97.8803 47.0925C97.753 47.0374 97.6393 46.9552 97.5471 46.8517C97.3368 46.5851 97.2337 46.2496 97.2579 45.9109V40.1408C97.2579 39.2117 97.5947 38.7471 98.2683 38.7471C98.4097 38.7342 98.5521 38.7574 98.6822 38.8143C98.8122 38.8713 98.9258 38.9602 99.0122 39.0729C99.1845 39.3642 99.2714 39.698 99.2631 40.0363C99.4604 39.6738 99.7185 39.3479 100.026 39.0729C100.324 38.8422 100.695 38.7266 101.071 38.7471C101.515 38.7489 101.951 38.8609 102.34 39.0729C102.749 39.2913 102.954 39.5816 102.955 39.944C102.958 40.0611 102.936 40.1775 102.891 40.2856C102.846 40.3937 102.779 40.4911 102.693 40.5712C102.544 40.7247 102.341 40.8136 102.127 40.8185C101.939 40.7919 101.754 40.7446 101.577 40.6774C101.329 40.5911 101.069 40.5435 100.807 40.5363C100.538 40.525 100.274 40.6096 100.063 40.775C99.8505 40.9651 99.6954 41.2107 99.615 41.4841C99.4987 41.8477 99.425 42.2236 99.3955 42.6043C99.3519 43.0346 99.3328 43.5624 99.3328 44.1861L99.331 44.1774Z" fill="#E4E8EF"/>
<path d="M105.13 37.7767C104.859 37.7829 104.595 37.6879 104.39 37.5101C104.292 37.4142 104.213 37.2995 104.16 37.1728C104.106 37.046 104.079 36.9099 104.079 36.7723C104.079 36.6348 104.106 36.4986 104.16 36.3719C104.213 36.2452 104.292 36.1305 104.39 36.0345C104.589 35.8494 104.852 35.7478 105.124 35.7506C105.385 35.7477 105.639 35.8392 105.838 36.0084C105.944 36.1014 106.027 36.2174 106.081 36.3476C106.135 36.4778 106.159 36.6186 106.15 36.7593C106.157 36.8985 106.134 37.0376 106.082 37.1668C106.029 37.296 105.949 37.412 105.847 37.5067C105.647 37.6842 105.389 37.7806 105.122 37.7767H105.13ZM106.155 39.9178V45.9073C106.179 46.2472 106.073 46.5836 105.859 46.8481C105.764 46.9521 105.648 47.0344 105.518 47.0894C105.388 47.1445 105.249 47.1709 105.108 47.1669C104.968 47.1715 104.829 47.1446 104.701 47.0882C104.572 47.0318 104.459 46.9474 104.367 46.8411C104.162 46.5749 104.061 46.2428 104.083 45.9073V39.984C104.059 39.6504 104.16 39.3196 104.367 39.0572C104.461 38.9548 104.576 38.8739 104.703 38.8201C104.831 38.7662 104.969 38.7407 105.108 38.7453C105.248 38.7414 105.387 38.7671 105.517 38.8209C105.646 38.8746 105.763 38.9552 105.859 39.0572C106.067 39.2977 106.174 39.6104 106.155 39.9283V39.9178Z" fill="#E4E8EF"/>
<path d="M109.756 40.0328L111.434 44.7366L113.24 39.8255C113.333 39.5247 113.474 39.241 113.659 38.9858C113.737 38.9 113.833 38.8331 113.941 38.7902C114.049 38.7474 114.165 38.7296 114.281 38.7384C114.405 38.7359 114.528 38.7583 114.644 38.804C114.759 38.8498 114.864 38.9181 114.953 39.0049C115.04 39.0822 115.109 39.1769 115.157 39.2829C115.205 39.3889 115.23 39.5037 115.23 39.6199C115.228 39.7279 115.211 39.835 115.181 39.9387C115.15 40.0569 115.112 40.1732 115.068 40.2872L114.92 40.6513L112.93 45.5868C112.875 45.7279 112.803 45.9091 112.714 46.1251C112.637 46.3215 112.538 46.5085 112.418 46.6826C112.315 46.8298 112.179 46.9509 112.021 47.0363C111.841 47.1264 111.642 47.1707 111.441 47.1652C111.193 47.177 110.947 47.1059 110.744 46.9631C110.584 46.8462 110.452 46.6957 110.357 46.5223C110.274 46.3621 110.132 46.0485 109.936 45.5763L107.962 40.6983C107.916 40.5763 107.869 40.4561 107.821 40.3342C107.772 40.2131 107.732 40.0892 107.699 39.9631C107.669 39.857 107.652 39.7475 107.65 39.6373C107.653 39.4875 107.697 39.3415 107.779 39.2157C107.864 39.0724 107.984 38.9527 108.127 38.8673C108.277 38.7795 108.447 38.7337 108.62 38.7349C108.969 38.7349 109.2 38.8342 109.329 39.0311C109.509 39.3478 109.652 39.6838 109.756 40.0328Z" fill="#E4E8EF"/>
<path d="M122.3 43.4632H118.251C118.247 43.8949 118.344 44.3215 118.535 44.7088C118.693 45.0376 118.942 45.3145 119.252 45.5067C119.562 45.699 119.921 45.7987 120.286 45.7942C120.515 45.7962 120.744 45.7669 120.965 45.7071C121.177 45.6464 121.377 45.5542 121.561 45.4335C121.745 45.3136 121.92 45.1803 122.084 45.0346C122.246 44.8935 122.455 44.7001 122.714 44.4579C122.845 44.3587 123.007 44.3099 123.171 44.3203C123.361 44.3095 123.548 44.3719 123.694 44.4945C123.76 44.5573 123.813 44.634 123.847 44.7192C123.881 44.8044 123.896 44.896 123.89 44.9875C123.876 45.2218 123.8 45.4482 123.671 45.6443C123.498 45.9249 123.272 46.1697 123.007 46.3656C122.67 46.6177 122.292 46.8115 121.89 46.9388C121.391 47.0984 120.869 47.1755 120.345 47.167C119.014 47.167 117.979 46.7872 117.241 46.0276C116.502 45.268 116.133 44.2378 116.133 42.937C116.127 42.3577 116.219 41.7816 116.406 41.2332C116.574 40.7331 116.846 40.2742 117.204 39.8865C117.563 39.5047 118.005 39.2098 118.495 39.0241C119.038 38.8185 119.615 38.7168 120.195 38.7245C120.926 38.7025 121.648 38.8795 122.286 39.2367C122.835 39.5473 123.286 40.0061 123.587 40.5607C123.867 41.0679 124.015 41.6368 124.019 42.2158C124.019 42.7373 123.87 43.0752 123.572 43.2297C123.172 43.4068 122.736 43.4868 122.3 43.4632ZM118.244 42.2872H122.002C121.951 41.5787 121.76 41.0485 121.429 40.6966C121.26 40.5216 121.056 40.3846 120.83 40.2945C120.604 40.2043 120.362 40.1633 120.119 40.174C119.881 40.1666 119.644 40.2106 119.425 40.3029C119.205 40.3951 119.008 40.5336 118.847 40.7088C118.522 41.063 118.322 41.5892 118.249 42.2872H118.244Z" fill="#E4E8EF"/>
<path d="M126.359 47.1756C126.06 47.1812 125.769 47.0729 125.547 46.8725C125.43 46.7652 125.338 46.6334 125.278 46.4864C125.217 46.3394 125.19 46.1809 125.199 46.0223C125.197 45.8742 125.224 45.7273 125.28 45.5902C125.336 45.4531 125.419 45.3287 125.524 45.2244C125.628 45.1158 125.753 45.0299 125.892 44.9724C126.03 44.9148 126.179 44.8867 126.329 44.8899C126.481 44.8871 126.631 44.915 126.771 44.9719C126.911 45.0287 127.038 45.1135 127.145 45.2209C127.362 45.4404 127.483 45.7364 127.483 46.0449C127.483 46.3535 127.362 46.6495 127.145 46.869C126.932 47.0682 126.651 47.178 126.359 47.1756Z" fill="#E4E8EF"/>
<path d="M71.9928 8.67384C71.8154 8.66979 71.6378 8.67794 71.4615 8.69823C71.4024 8.69476 71.3431 8.70305 71.2873 8.72262C71.1601 8.72262 71.059 8.74701 70.9388 8.74701C70.8622 8.74701 70.7873 8.7714 70.7106 8.7714C70.6339 8.7714 70.5085 8.79579 70.4075 8.79579C70.3215 8.80227 70.2367 8.81924 70.1549 8.84631C70.0538 8.87245 69.9806 8.87245 69.8761 8.89684C69.7716 8.92123 69.7019 8.92123 69.6235 8.94736C69.5451 8.97349 69.4719 8.97349 69.3709 8.99788L69.0921 9.07454C69.0274 9.10064 68.9594 9.11765 68.89 9.12506C68.789 9.15119 68.6879 9.17558 68.6113 9.20171C68.5572 9.23004 68.4979 9.24722 68.4371 9.25224C68.336 9.27837 68.235 9.32889 68.1339 9.35328C68.088 9.38164 68.0361 9.39893 67.9824 9.4038C67.8813 9.45433 67.7542 9.48046 67.6531 9.53098C67.627 9.55711 67.5765 9.55712 67.5521 9.58151C65.627 10.4465 63.9926 11.849 62.8454 13.6205C61.6982 15.392 61.087 17.4571 61.0852 19.5676V19.6686C61.0747 21.2703 60.4519 22.8074 59.3443 23.9645C58.2367 25.1216 56.7284 25.8111 55.1287 25.8916H54.7994C53.7305 25.8908 52.6793 25.6194 51.7436 25.1027C50.8079 24.5859 50.0182 23.8407 49.4483 22.9364C48.8783 22.0322 48.5466 20.9983 48.484 19.9313C48.4214 18.8642 48.63 17.7987 49.0904 16.834C49.5507 15.8693 50.2478 15.0369 51.1167 14.4143C51.9856 13.7917 52.998 13.3993 54.0594 13.2735C55.1209 13.1478 56.197 13.2929 57.1872 13.6952C58.1775 14.0976 59.0498 14.7441 59.7228 15.5745C60.219 14.0397 60.9984 12.6115 62.0207 11.3637C60.0411 9.60235 57.4824 8.63121 54.8325 8.63551C51.94 8.64197 49.1682 9.79543 47.125 11.8429C45.0818 13.8903 43.934 16.6646 43.9336 19.5571V19.6843C43.9456 22.5555 45.0938 25.3052 47.1274 27.3322C49.1609 29.3592 51.9143 30.4986 54.7855 30.5014C55.3279 30.4978 55.8693 30.4559 56.4057 30.3759H56.4319C56.6061 30.3515 56.7611 30.3254 56.9388 30.301C56.9527 30.3028 56.9669 30.3013 56.9802 30.2968C56.9934 30.2923 57.0055 30.2848 57.0155 30.2749C57.1616 30.2537 57.3055 30.2198 57.4458 30.1738C57.4963 30.1738 57.5224 30.1477 57.573 30.1477C57.7001 30.1233 57.8012 30.0711 57.9214 30.0467C57.9719 30.0205 58.0486 30.0223 58.0956 29.9961C58.1921 29.9734 58.2857 29.9394 58.3744 29.8951L58.6026 29.8184C58.6792 29.7923 58.7298 29.7679 58.8047 29.7418C58.9057 29.6913 59.0068 29.6651 59.1078 29.6146C59.1339 29.5885 59.1845 29.5885 59.2089 29.5641C61.1167 28.7208 62.7402 27.3441 63.8838 25.5996C65.0275 23.8551 65.6425 21.8172 65.6548 19.7313V19.5571C65.6546 18.6633 65.8444 17.7796 66.2117 16.9647C66.5791 16.1498 67.1155 15.4223 67.7855 14.8306L67.8116 14.8045C67.8813 14.7385 67.9578 14.6801 68.0399 14.6303L68.0904 14.5798C68.1625 14.534 68.2302 14.4815 68.2925 14.423C68.3186 14.3968 68.343 14.3968 68.3691 14.3724C68.4411 14.3283 68.5087 14.2776 68.5712 14.2209C68.5974 14.1947 68.6217 14.1947 68.6479 14.1704C68.7185 14.1188 68.7951 14.0761 68.8761 14.0432C68.9022 14.0432 68.9022 14.017 68.9266 14.017C69.0277 13.9665 69.1008 13.916 69.2054 13.8655H69.2315C69.4366 13.7658 69.6485 13.6808 69.8657 13.6111C69.8918 13.6111 69.9162 13.585 69.9423 13.585L70.1705 13.5083C70.1967 13.5083 70.2472 13.4822 70.2716 13.4822C70.3363 13.4561 70.4043 13.4391 70.4737 13.4317C70.5242 13.4317 70.5503 13.4055 70.6008 13.4055C70.6775 13.3794 70.728 13.3812 70.8029 13.355C70.8535 13.355 70.8796 13.3289 70.9301 13.3289C70.9806 13.3289 71.0817 13.3045 71.1322 13.3045C71.1762 13.3085 71.2205 13.2994 71.2594 13.2784C71.336 13.2784 71.4109 13.2522 71.4876 13.254H71.951C73.6253 13.2636 75.2276 13.9358 76.4078 15.1234C77.5879 16.3111 78.2499 17.9177 78.2489 19.592V19.693C78.2336 20.9892 77.8187 22.249 77.0607 23.3005C76.3027 24.352 75.2386 25.144 74.0138 25.5682C72.7889 25.9924 71.463 26.0283 70.217 25.6708C68.971 25.3134 67.8657 24.5801 67.0521 23.5711C66.5535 25.1091 65.7705 26.5398 64.7437 27.7888C66.7234 29.5502 69.282 30.5213 71.9319 30.517C74.8284 30.5251 77.6096 29.3822 79.6635 27.3397C81.7174 25.2973 82.8759 22.5225 82.8839 19.6259C82.892 16.7293 81.7491 13.9482 79.7066 11.8943C77.6642 9.84035 74.8894 8.68193 71.9928 8.67384Z" fill="#3AC6F4"/>
<mask id="mask0_173_1397" style="mask-type:luminance" maskUnits="userSpaceOnUse" x="43" y="8" width="40" height="23">
<path d="M71.9928 8.67384C71.8154 8.66979 71.6378 8.67794 71.4615 8.69823C71.4024 8.69476 71.3431 8.70305 71.2873 8.72262C71.1601 8.72262 71.059 8.74701 70.9388 8.74701C70.8622 8.74701 70.7873 8.7714 70.7106 8.7714C70.6339 8.7714 70.5085 8.79579 70.4075 8.79579C70.3215 8.80227 70.2367 8.81924 70.1549 8.84631C70.0538 8.87245 69.9806 8.87245 69.8761 8.89684C69.7716 8.92123 69.7019 8.92123 69.6235 8.94736C69.5451 8.97349 69.4719 8.97349 69.3709 8.99788L69.0921 9.07454C69.0274 9.10064 68.9594 9.11765 68.89 9.12506C68.789 9.15119 68.6879 9.17558 68.6113 9.20171C68.5572 9.23004 68.4979 9.24722 68.4371 9.25224C68.336 9.27837 68.235 9.32889 68.1339 9.35328C68.088 9.38164 68.0361 9.39893 67.9824 9.4038C67.8813 9.45433 67.7542 9.48046 67.6531 9.53098C67.627 9.55711 67.5765 9.55712 67.5521 9.58151C65.627 10.4465 63.9926 11.849 62.8454 13.6205C61.6982 15.392 61.087 17.4571 61.0852 19.5676V19.6686C61.0747 21.2703 60.4519 22.8074 59.3443 23.9645C58.2367 25.1216 56.7284 25.8111 55.1287 25.8916H54.7994C53.7305 25.8908 52.6793 25.6194 51.7436 25.1027C50.8079 24.5859 50.0182 23.8407 49.4483 22.9364C48.8783 22.0322 48.5466 20.9983 48.484 19.9313C48.4214 18.8642 48.63 17.7987 49.0904 16.834C49.5507 15.8693 50.2478 15.0369 51.1167 14.4143C51.9856 13.7917 52.998 13.3993 54.0594 13.2735C55.1209 13.1478 56.197 13.2929 57.1872 13.6952C58.1775 14.0976 59.0498 14.7441 59.7228 15.5745C60.219 14.0397 60.9984 12.6115 62.0207 11.3637C60.0411 9.60235 57.4824 8.63121 54.8325 8.63551C51.94 8.64197 49.1682 9.79543 47.125 11.8429C45.0818 13.8903 43.934 16.6646 43.9336 19.5571V19.6843C43.9456 22.5555 45.0938 25.3052 47.1274 27.3322C49.1609 29.3592 51.9143 30.4986 54.7855 30.5014C55.3279 30.4978 55.8693 30.4559 56.4057 30.3759H56.4319C56.6061 30.3515 56.7611 30.3254 56.9388 30.301C56.9527 30.3028 56.9669 30.3013 56.9802 30.2968C56.9934 30.2923 57.0055 30.2848 57.0155 30.2749C57.1616 30.2537 57.3055 30.2198 57.4458 30.1738C57.4963 30.1738 57.5224 30.1477 57.573 30.1477C57.7001 30.1233 57.8012 30.0711 57.9214 30.0467C57.9719 30.0205 58.0486 30.0223 58.0956 29.9961C58.1921 29.9734 58.2857 29.9394 58.3744 29.8951L58.6026 29.8184C58.6792 29.7923 58.7298 29.7679 58.8047 29.7418C58.9057 29.6913 59.0068 29.6651 59.1078 29.6146C59.1339 29.5885 59.1845 29.5885 59.2089 29.5641C61.1167 28.7208 62.7402 27.3441 63.8838 25.5996C65.0275 23.8551 65.6425 21.8172 65.6548 19.7313V19.5571C65.6546 18.6633 65.8444 17.7796 66.2117 16.9647C66.5791 16.1498 67.1155 15.4223 67.7855 14.8306L67.8116 14.8045C67.8813 14.7385 67.9578 14.6801 68.0399 14.6303L68.0904 14.5798C68.1625 14.534 68.2302 14.4815 68.2925 14.423C68.3186 14.3968 68.343 14.3968 68.3691 14.3724C68.4411 14.3283 68.5087 14.2776 68.5712 14.2209C68.5974 14.1947 68.6217 14.1947 68.6479 14.1704C68.7185 14.1188 68.7951 14.0761 68.8761 14.0432C68.9022 14.0432 68.9022 14.017 68.9266 14.017C69.0277 13.9665 69.1008 13.916 69.2054 13.8655H69.2315C69.4366 13.7658 69.6485 13.6808 69.8657 13.6111C69.8918 13.6111 69.9162 13.585 69.9423 13.585L70.1705 13.5083C70.1967 13.5083 70.2472 13.4822 70.2716 13.4822C70.3363 13.4561 70.4043 13.4391 70.4737 13.4317C70.5242 13.4317 70.5503 13.4055 70.6008 13.4055C70.6775 13.3794 70.728 13.3812 70.8029 13.355C70.8535 13.355 70.8796 13.3289 70.9301 13.3289C70.9806 13.3289 71.0817 13.3045 71.1322 13.3045C71.1762 13.3085 71.2205 13.2994 71.2594 13.2784C71.336 13.2784 71.4109 13.2522 71.4876 13.254H71.951C73.6253 13.2636 75.2276 13.9358 76.4078 15.1234C77.5879 16.3111 78.2499 17.9177 78.2489 19.592V19.693C78.2336 20.9892 77.8187 22.249 77.0607 23.3005C76.3027 24.352 75.2386 25.144 74.0138 25.5682C72.7889 25.9924 71.463 26.0283 70.217 25.6708C68.971 25.3134 67.8657 24.5801 67.0521 23.5711C66.5535 25.1091 65.7705 26.5398 64.7437 27.7888C66.7234 29.5502 69.282 30.5213 71.9319 30.517C74.8284 30.5251 77.6096 29.3822 79.6635 27.3397C81.7174 25.2973 82.8759 22.5225 82.8839 19.6259C82.892 16.7293 81.7491 13.9482 79.7066 11.8943C77.6642 9.84035 74.8894 8.68193 71.9928 8.67384Z" fill="white"/>
</mask>
<g mask="url(#mask0_173_1397)">
<path d="M39.1113 8.32544H87.0608V30.8272H39.1113V8.32544Z" fill="#3AC6F4"/>
</g>
<path d="M193.859 27.6043C192.821 26.6123 191.996 25.4197 191.434 24.0989C190.871 22.7782 190.583 21.3569 190.587 19.9213V19.8238C190.591 18.3739 190.884 16.9393 191.448 15.6038C192.013 14.2682 192.837 13.0584 193.874 12.045C195.96 9.98064 198.779 8.82729 201.714 8.83772C204.634 8.83772 207.35 9.86385 209.193 11.7802C209.699 12.2514 210.002 12.9014 210.036 13.5921C210.041 13.9098 209.977 14.2249 209.849 14.5155C209.72 14.806 209.529 15.0652 209.291 15.275C208.779 15.7088 208.265 15.937 207.752 15.937C207.035 15.937 206.395 15.5276 205.662 14.9405C204.467 13.9544 202.958 13.428 201.409 13.4562C199.719 13.4562 198.129 14.2436 197 15.4422C195.904 16.6129 195.283 18.1492 195.258 19.7523V19.8238C195.267 21.4105 195.88 22.9343 196.97 24.0868C197.506 24.698 198.162 25.1911 198.899 25.5345C199.635 25.8779 200.435 26.0643 201.247 26.0816C202.913 26.16 204.322 25.7523 205.631 24.606C206.374 24.045 207.024 23.6374 207.681 23.6391C208.245 23.6391 208.756 23.8691 209.268 24.3046C209.505 24.51 209.695 24.765 209.823 25.0516C209.951 25.3382 210.014 25.6493 210.009 25.9632C209.96 26.6504 209.658 27.2953 209.162 27.7733C207.315 29.6896 204.599 30.7018 201.671 30.7001C200.228 30.7293 198.795 30.4706 197.454 29.939C196.113 29.4075 194.891 28.6137 193.86 27.6043H193.859Z" fill="#3AC6F4"/>
<path d="M233.54 11.4926C233.546 10.8719 233.319 10.2716 232.904 9.8097C232.521 9.3759 231.833 9.14593 231.193 9.14593C230.679 9.14084 230.179 9.31648 229.781 9.6422C229.383 9.96792 229.112 10.423 229.016 10.9282C227.282 9.66326 225.209 8.94555 223.064 8.86719H222.955H222.881H222.617C219.741 8.90039 216.994 10.0653 214.971 12.1096C212.948 14.1539 211.812 16.9129 211.809 19.7889C211.806 22.6649 212.936 25.4263 214.955 27.4748C216.974 29.5233 219.718 30.6939 222.594 30.733H222.855H222.946H223.04C225.186 30.6598 227.261 29.9463 228.998 28.6843C229.098 29.1859 229.37 29.6369 229.767 29.9595C230.164 30.282 230.661 30.4558 231.172 30.4508C231.812 30.4508 232.5 30.2226 232.883 29.7905C233.3 29.3305 233.528 28.7302 233.523 28.1093V19.9212L233.54 11.4926ZM228.979 20.1146C228.906 21.6751 228.252 23.1518 227.145 24.2539C226.327 25.059 225.309 25.6316 224.196 25.9127C223.083 26.1938 221.916 26.1733 220.814 25.8533C219.815 25.5328 218.905 24.982 218.158 24.2452C217.563 23.6642 217.09 22.9704 216.767 22.2043C216.443 21.4382 216.275 20.6152 216.273 19.7836C216.273 19.5867 216.284 19.3933 216.301 19.1999C216.447 17.7293 217.108 16.3573 218.165 15.3254C218.914 14.5905 219.825 14.0415 220.824 13.7226C221.926 13.3923 223.096 13.3678 224.211 13.6516C225.326 13.9355 226.342 14.5171 227.151 15.3341C228.321 16.5039 228.98 18.0892 228.984 19.7435C228.984 19.7609 228.984 19.7783 228.984 19.7958C228.988 19.902 228.984 20.01 228.979 20.1146Z" fill="#3AC6F4"/>
<path d="M3.44087 27.4405C2.40627 26.4414 1.58376 25.2439 1.0225 23.9196C0.461245 22.5953 0.17277 21.1715 0.174323 19.7332V19.7071C0.174323 19.6809 0.174323 19.6809 0.200455 19.6809V19.6496C0.174323 19.6496 0.174323 19.6496 0.174323 19.6287C0.177586 18.1794 0.469507 16.7452 1.03304 15.41C1.59658 14.0747 2.42045 12.8651 3.45655 11.8517C5.54217 9.78709 8.36164 8.63424 11.2963 8.64609C14.2179 8.64609 16.9322 9.67222 18.7754 11.5869C19.2809 12.0585 19.5833 12.7082 19.6186 13.3987C19.6235 13.7165 19.5594 14.0315 19.4307 14.3221C19.3019 14.6127 19.1116 14.8718 18.8729 15.0816C18.3607 15.5154 17.8468 15.7436 17.3346 15.7436C16.6168 15.7436 15.9775 15.3342 15.244 14.7471C14.0489 13.7621 12.5416 13.2358 10.9931 13.2628C9.3015 13.2628 7.71265 14.0503 6.58373 15.2489C5.48797 16.4194 4.86696 17.9558 4.84157 19.559L4.81544 19.6095L4.84157 19.6356C4.85103 21.2219 5.46324 22.7453 6.55411 23.897C7.08948 24.5082 7.74625 25.0012 8.48261 25.3446C9.21898 25.688 10.0188 25.8744 10.8311 25.8917C12.4966 25.9701 13.906 25.5625 15.2144 24.4161C15.9583 23.8551 16.6081 23.4475 17.2649 23.4492C17.8276 23.4492 18.3416 23.6792 18.852 24.1147C19.0894 24.3201 19.2787 24.5751 19.4066 24.8617C19.5346 25.1483 19.598 25.4595 19.5924 25.7733C19.5436 26.4605 19.242 27.1054 18.7458 27.5834C16.8991 29.4997 14.183 30.5119 11.2545 30.5102C9.81261 30.5499 8.37756 30.2985 7.03506 29.7711C5.69255 29.2437 4.47014 28.451 3.44087 27.4405Z" fill="#3AC6F4"/>
<path d="M36.9442 28.2452L36.9546 19.2278C36.9546 17.3724 36.5226 15.8009 35.6776 14.6406C34.8066 13.5065 33.5766 12.9386 32.0365 12.9368C30.5487 12.9368 29.1881 13.7835 28.2369 14.8393C27.2874 15.8689 26.7212 17.3619 26.6411 19.0204L26.6306 28.2452C26.628 28.699 26.4914 29.1419 26.2379 29.5183C25.9845 29.8948 25.6255 30.188 25.2059 30.361C24.7864 30.5341 24.3251 30.5794 23.88 30.4912C23.4348 30.4031 23.0256 30.1853 22.7038 29.8654C22.4835 29.6418 22.311 29.3758 22.1966 29.0835C22.0822 28.7912 22.0283 28.4787 22.0383 28.165L22.0661 2.83751C22.0716 2.53849 22.136 2.24348 22.2555 1.96936C22.3751 1.69523 22.5476 1.44737 22.763 1.23995C22.9691 1.02661 23.2163 0.857322 23.4897 0.74233C23.7631 0.627337 24.057 0.569038 24.3536 0.570962C24.6603 0.565127 24.965 0.62235 25.2487 0.739083C25.5324 0.855817 25.7891 1.02957 26.0029 1.24959C26.2167 1.4696 26.3831 1.73118 26.4916 2.01811C26.6002 2.30504 26.6487 2.61121 26.6341 2.91765L26.6254 10.956C28.3675 9.28351 30.3989 8.33229 32.5034 8.34274C35.1463 8.34274 37.4285 9.42985 39.0156 11.3898C40.6045 13.3236 41.4999 16.0814 41.4965 19.1476L41.486 28.2678C41.4893 28.5679 41.4323 28.8657 41.3184 29.1433C41.2044 29.421 41.0358 29.6729 40.8226 29.8842C40.6094 30.0954 40.356 30.2617 40.0773 30.3731C39.7986 30.4845 39.5004 30.5387 39.2003 30.5326C38.9014 30.5399 38.6041 30.4861 38.3267 30.3747C38.0492 30.2633 37.7973 30.0966 37.5864 29.8847C37.3755 29.6728 37.2099 29.4201 37.0998 29.1422C36.9897 28.8642 36.9373 28.5667 36.9459 28.2678L36.9442 28.2452Z" fill="#3AC6F4"/>
<path d="M88.2473 29.6495C86.6376 28.9527 85.4965 27.9701 84.7961 26.7001C84.5629 26.3172 84.4377 25.8783 84.4337 25.43C84.4293 25.0708 84.5291 24.718 84.7212 24.4144C84.9123 24.0936 85.1862 23.8302 85.5142 23.6518C85.8422 23.4734 86.2122 23.3866 86.5853 23.4004C86.9924 23.407 87.3925 23.5068 87.7549 23.6923C88.1174 23.8777 88.4324 24.1438 88.6759 24.4701C89.7125 25.944 90.8292 26.5293 92.7769 26.5311C93.5948 26.5427 94.4005 26.3319 95.1079 25.9213C95.7839 25.5415 96.1532 24.9579 96.1532 24.2471C96.1766 23.8421 96.0473 23.443 95.7909 23.1286C95.3501 22.5694 94.6498 22.1374 93.6376 21.8569L92.3658 21.4753C90.1585 20.7105 88.533 20.0241 87.3135 19.1077C85.7822 18.0624 85.0052 16.6931 85.0069 15.0171C85.0069 13.1635 85.8937 11.5328 87.3745 10.4231C88.7787 9.35861 90.7264 8.72446 92.7003 8.7262C94.0617 8.71941 95.4113 8.97985 96.6724 9.49275C98.0487 10.0781 98.9825 10.8151 99.5017 11.8063C99.6629 12.1213 99.7515 12.4683 99.7613 12.822C99.7622 13.0538 99.7164 13.2835 99.6266 13.4972C99.5368 13.7109 99.4049 13.9044 99.2386 14.0659C99.0511 14.2813 98.8196 14.454 98.5596 14.5721C98.2996 14.6902 98.0172 14.7511 97.7316 14.7506C97.4642 14.7544 97.1989 14.7022 96.9529 14.5973L96.0191 13.9109C95.5783 13.606 95.2665 13.4022 95.1358 13.3255C94.4963 12.9571 93.7711 12.7636 93.033 12.7645C91.0592 12.7645 89.6829 13.5224 89.6811 14.9196C89.6811 15.5799 90.0435 16.1391 90.8222 16.6217C91.4721 17.0032 92.3275 17.3342 93.6515 17.7175C95.8327 18.3795 97.364 18.9649 98.5574 19.8813C99.2256 20.365 99.766 21.0043 100.132 21.7437C100.497 22.4831 100.678 23.3005 100.657 24.1252C100.657 25.9283 99.8484 27.5276 98.4181 28.7192C96.9877 29.9109 95.04 30.5955 92.8066 30.5921C91.2427 30.5852 89.6963 30.2634 88.2595 29.6461L88.2473 29.6495Z" fill="#3AC6F4"/>
<path d="M105.482 27.4664C104.462 26.454 103.652 25.2493 103.099 23.9219C102.547 22.5945 102.263 21.1707 102.265 19.733C102.276 16.8034 103.447 13.9976 105.522 11.9298C107.05 10.4138 108.992 9.38279 111.104 8.96628C113.215 8.54977 115.403 8.7663 117.392 9.58869C119.381 10.4111 121.083 11.8027 122.284 13.5888C123.485 15.375 124.132 17.4761 124.143 19.6284C124.143 20.9037 123.202 21.7957 121.908 21.7939L107.317 21.7783C107.683 23.0478 108.436 24.1718 109.47 24.9943C110.537 25.8205 111.851 26.2624 113.2 26.2487C114.942 26.2487 116.296 25.6912 117.287 24.6197C117.706 24.2598 118.234 24.0533 118.786 24.0344C119.044 24.0398 119.301 24.0833 119.547 24.1633C120.015 24.3452 120.402 24.6897 120.637 25.1337C120.888 25.5116 121.019 25.9557 121.016 26.4089C121.016 27.0727 120.711 27.6581 120.144 28.1424C119.369 28.8897 118.454 29.478 117.453 29.8741C116.091 30.3879 114.643 30.6374 113.188 30.6093C111.758 30.6314 110.339 30.365 109.014 29.8262C107.69 29.2875 106.487 28.4872 105.479 27.4734L105.482 27.4664ZM119.502 17.9385C119.186 16.5756 118.429 15.355 117.348 14.4664C116.207 13.5658 114.795 13.0788 113.341 13.0849C111.892 13.0593 110.481 13.5454 109.355 14.4577C108.279 15.3453 107.528 16.5645 107.219 17.9246L119.502 17.9385Z" fill="#3AC6F4"/>
<path d="M157.676 11.3376C156.961 10.5234 156.078 9.87363 155.088 9.43305C154.098 8.99247 153.024 8.7715 151.941 8.78534C149.887 8.78534 147.455 9.74875 145.625 11.2993C143.798 9.74527 141.369 8.77489 139.315 8.77314C138.232 8.7561 137.157 8.97438 136.166 9.41292C135.175 9.85145 134.291 10.4998 133.575 11.3132C132.207 12.9038 131.455 15.0205 131.441 17.315C131.441 17.3376 131.441 17.3585 131.441 17.3812L131.43 27.7191C131.43 27.7575 131.43 27.7941 131.43 27.8306C131.438 28.5757 131.738 29.2879 132.267 29.8126C132.796 30.3374 133.511 30.6324 134.256 30.6338C135.016 30.6306 135.745 30.3298 136.286 29.7958C136.565 29.5357 136.787 29.2207 136.939 28.8705C137.09 28.5203 137.167 28.1425 137.165 27.7609L137.176 17.3237C137.175 16.6095 137.421 15.917 137.873 15.3637C138.103 15.1187 138.384 14.9261 138.695 14.799C139.006 14.6718 139.341 14.6131 139.678 14.6268C140.655 14.6268 141.331 14.801 141.806 15.1895C142.391 15.7242 142.749 16.4622 142.806 17.2522L142.796 27.74C142.787 28.116 142.853 28.49 142.99 28.8401C143.127 29.1902 143.334 29.5092 143.596 29.7784C143.859 30.0476 144.173 30.2615 144.519 30.4076C144.866 30.5537 145.238 30.6289 145.614 30.6289C145.99 30.6289 146.362 30.5537 146.709 30.4076C147.055 30.2615 147.369 30.0476 147.632 29.7784C147.894 29.5092 148.1 29.1902 148.238 28.8401C148.375 28.49 148.441 28.116 148.432 27.74L148.442 17.2278C148.519 16.4386 148.92 15.5989 149.446 15.1669C149.923 14.7853 150.599 14.6076 151.577 14.6094C151.912 14.6042 152.244 14.6671 152.554 14.7944C152.864 14.9217 153.145 15.1106 153.38 15.3498C153.828 15.9048 154.074 16.5962 154.077 17.3097L154.066 27.7714C154.055 28.1576 154.127 28.5417 154.277 28.8976C154.427 29.2536 154.652 29.573 154.937 29.8341C155.474 30.3558 156.192 30.6487 156.941 30.6512C157.316 30.651 157.688 30.5763 158.034 30.4313C158.38 30.2864 158.694 30.0742 158.958 29.807C159.222 29.5397 159.43 29.2228 159.57 28.8746C159.71 28.5264 159.78 28.1538 159.775 27.7784L159.786 17.3934C159.786 15.0745 159.04 12.9352 157.664 11.3306L157.676 11.3376Z" fill="#002A35"/>
<path d="M181.132 8.81503C180.746 8.80904 180.362 8.87918 180.003 9.02146C179.644 9.16373 179.317 9.37535 179.039 9.64423C178.762 9.91311 178.541 10.234 178.387 10.5885C178.234 10.943 178.152 11.3243 178.146 11.7105L178.136 21.2924V21.3429C178.136 21.3429 178.082 22.7663 177.113 23.7314C176.327 24.4927 175.071 24.8743 173.369 24.8725C171.171 24.8725 169.679 24.2837 168.869 23.1391C168.48 22.5701 168.247 21.9096 168.192 21.2227L168.202 11.6879C168.183 10.9091 167.861 10.1685 167.303 9.62438C166.746 9.08024 165.998 8.77563 165.219 8.77563C164.44 8.77563 163.691 9.08024 163.134 9.62438C162.576 10.1685 162.254 10.9091 162.235 11.6879L162.225 21.2697C162.225 23.5676 163.768 29.0572 170.317 30.3743V35.2994C170.317 36.7488 171.582 37.9509 173.15 37.9527C174.718 37.9544 175.962 36.7802 175.988 35.3063V30.4457C178.144 30.0607 179.944 29.1704 181.347 27.775C184.019 25.1617 184.101 21.8028 184.101 21.268L184.111 11.707C184.106 11.3209 184.025 10.9396 183.873 10.5848C183.72 10.23 183.5 9.90873 183.223 9.63934C182.946 9.36996 182.619 9.15774 182.26 9.0148C181.902 8.87187 181.518 8.80102 181.132 8.80632V8.81503Z" fill="#002A35"/>
<path d="M236.636 30.0745C236.419 29.8675 236.247 29.6184 236.129 29.3426C236.012 29.0667 235.952 28.7698 235.953 28.47L235.971 11.1599C235.97 10.8564 236.03 10.5557 236.147 10.2759C236.265 9.99608 236.438 9.74275 236.655 9.53098C236.867 9.31746 237.12 9.14891 237.398 9.03545C237.676 8.92198 237.975 8.86595 238.275 8.8707C238.573 8.86117 238.87 8.91546 239.145 9.02995C239.42 9.14443 239.668 9.31644 239.871 9.53446C240.287 9.97387 240.513 10.5588 240.502 11.1634C242.579 9.66338 244.833 8.89857 247.296 8.89857H247.397C248.866 8.89857 249.751 9.81669 249.751 11.1634C249.751 12.4369 248.706 13.4282 247.394 13.4282H247.293C246.402 13.4266 245.519 13.6032 244.697 13.9476C243.875 14.2919 243.13 14.7971 242.505 15.4334C241.862 16.0791 241.354 16.8456 241.008 17.6888C240.663 18.532 240.488 19.4352 240.493 20.3463V28.4665C240.498 28.7652 240.443 29.0619 240.33 29.3388C240.218 29.6157 240.052 29.8672 239.84 30.0785C239.629 30.2897 239.378 30.4564 239.101 30.5685C238.824 30.6807 238.527 30.736 238.228 30.7313C237.632 30.7318 237.059 30.4956 236.636 30.0745Z" fill="#3AC6F4"/>
<path d="M8.67246 44.6025C8.66459 44.8943 8.58501 45.1797 8.44075 45.4335C8.26132 45.7559 8.02181 46.041 7.73518 46.2733C7.38008 46.5593 6.97479 46.7768 6.54006 46.9144C6.015 47.0829 5.46599 47.1647 4.91462 47.1565C3.63704 47.1565 2.63762 46.7831 1.91636 46.0363C1.19511 45.2895 0.835644 44.2872 0.837966 43.0294C0.82186 42.2495 0.990822 41.4769 1.331 40.775C1.64398 40.1387 2.14112 39.6112 2.75783 39.2611C3.44178 38.8897 4.21155 38.7052 4.98953 38.7262C5.49172 38.7207 5.99122 38.8003 6.46689 38.9614C6.87825 39.0984 7.26348 39.3039 7.60626 39.5694C7.89108 39.7875 8.13322 40.0562 8.32054 40.3621C8.47095 40.5976 8.5563 40.8687 8.56793 41.1478C8.56903 41.2661 8.54489 41.3832 8.49713 41.4913C8.44936 41.5995 8.37906 41.6962 8.29093 41.775C8.10933 41.9459 7.86778 42.0385 7.61845 42.0328C7.46465 42.0391 7.31338 41.9923 7.18988 41.9004C7.0433 41.7756 6.91436 41.6314 6.80661 41.4719C6.59946 41.1343 6.33054 40.8388 6.01393 40.6008C5.70343 40.3994 5.33848 40.2984 4.96863 40.3116C4.68235 40.3038 4.3984 40.365 4.1407 40.4899C3.88299 40.6148 3.65907 40.7998 3.48779 41.0294C3.108 41.5148 2.91869 42.1699 2.91985 42.9945C2.91654 43.3579 2.96524 43.7199 3.06445 44.0694C3.14811 44.3746 3.29075 44.6605 3.48431 44.9109C3.66035 45.1345 3.88654 45.3135 4.14459 45.4335C4.41195 45.5527 4.70208 45.6122 4.99476 45.6078C5.37092 45.6187 5.74191 45.5181 6.06096 45.3186C6.38906 45.0912 6.65837 44.789 6.84668 44.437C6.95165 44.2331 7.09003 44.0482 7.25609 43.89C7.40336 43.7582 7.59512 43.6873 7.79267 43.6914C7.91278 43.689 8.03188 43.7138 8.14108 43.7638C8.25028 43.8139 8.34676 43.888 8.42333 43.9806C8.57928 44.1479 8.66799 44.3669 8.67246 44.5956V44.6025Z" fill="#939598"/>
<path d="M10.0921 45.9073V36.9177C10.0674 36.5809 10.1659 36.2466 10.3691 35.977C10.4619 35.8712 10.5772 35.7877 10.7065 35.7325C10.8359 35.6773 10.976 35.6519 11.1165 35.6581C11.2584 35.6526 11.3998 35.6779 11.5309 35.7324C11.6621 35.7868 11.7798 35.8691 11.8761 35.9735C12.0873 36.2409 12.1905 36.5779 12.1653 36.9177V45.9073C12.1912 46.2483 12.0866 46.5865 11.8726 46.8533C11.7774 46.9585 11.6605 47.0418 11.5299 47.0974C11.3994 47.1531 11.2583 47.1797 11.1165 47.1756C10.9766 47.1801 10.8374 47.1532 10.7093 47.0968C10.5811 47.0405 10.4673 46.956 10.3761 46.8498C10.1699 46.5806 10.069 46.2455 10.0921 45.9073Z" fill="#939598"/>
<path d="M15.3535 37.7767C15.0821 37.7829 14.8182 37.6879 14.613 37.5101C14.515 37.4136 14.4374 37.2984 14.3846 37.1714C14.3319 37.0444 14.3051 36.908 14.3059 36.7705C14.3067 36.6329 14.3351 36.4969 14.3894 36.3705C14.4436 36.2441 14.5226 36.1299 14.6218 36.0345C14.8208 35.8494 15.0834 35.7478 15.3552 35.7506C15.6166 35.7477 15.8702 35.8392 16.0695 36.0084C16.1745 36.1019 16.2567 36.2181 16.3098 36.3483C16.363 36.4784 16.3857 36.619 16.3761 36.7593C16.3837 36.8985 16.3604 37.0376 16.308 37.1668C16.2556 37.296 16.1754 37.412 16.073 37.5067C15.8737 37.6842 15.6151 37.7806 15.3482 37.7767H15.3535ZM16.3761 39.9178V45.9073C16.4006 46.2472 16.2947 46.5836 16.0799 46.8481C15.9861 46.9535 15.8705 47.0373 15.7412 47.0938C15.6119 47.1503 15.4719 47.1783 15.3308 47.1756C15.1909 47.1802 15.0517 47.1533 14.9236 47.0969C14.7954 47.0405 14.6816 46.9561 14.5904 46.8499C14.3851 46.5836 14.2842 46.2515 14.3064 45.9161V39.9927C14.2816 39.6591 14.3829 39.3283 14.5904 39.0659C14.6825 38.9607 14.7965 38.8768 14.9244 38.8202C15.0523 38.7637 15.191 38.7357 15.3308 38.7384C15.4709 38.7344 15.6102 38.7602 15.7396 38.8139C15.869 38.8677 15.9856 38.9482 16.0817 39.0502C16.2904 39.2908 16.3967 39.6034 16.3779 39.9213L16.3761 39.9178Z" fill="#939598"/>
<path d="M25.958 44.6024C25.9495 44.8931 25.87 45.1772 25.7263 45.4299C25.5494 45.7516 25.3129 46.0365 25.0294 46.2697C24.6743 46.5557 24.269 46.7732 23.8343 46.9108C23.3092 47.0793 22.7602 47.1611 22.2088 47.1529C20.9312 47.1529 19.9318 46.7795 19.2106 46.0327C18.4893 45.2859 18.1252 44.2848 18.1182 43.0292C18.1021 42.2494 18.2711 41.4768 18.6113 40.7749C18.9243 40.1385 19.4214 39.6111 20.0381 39.261C20.6063 38.9697 21.2264 38.7933 21.8628 38.7418C22.4992 38.6904 23.1396 38.765 23.7472 38.9613C24.1585 39.0983 24.5438 39.3038 24.8865 39.5693C25.1714 39.7874 25.4135 40.0561 25.6008 40.362C25.7512 40.5975 25.8366 40.8686 25.8482 41.1477C25.8498 41.2665 25.8259 41.3843 25.7781 41.4931C25.7303 41.6019 25.6598 41.6992 25.5712 41.7784C25.3896 41.9493 25.148 42.0419 24.8987 42.0362C24.7449 42.0424 24.5937 41.9957 24.4702 41.9038C24.3236 41.779 24.1946 41.6348 24.0869 41.4752C23.8797 41.1376 23.6108 40.8421 23.2942 40.6042C22.8918 40.3564 22.413 40.2633 21.9471 40.3422C21.4811 40.421 21.0596 40.6664 20.7611 41.0327C20.3871 41.5159 20.203 42.1698 20.2088 42.9944C20.2055 43.3578 20.2542 43.7197 20.3534 44.0693C20.4374 44.3719 20.5794 44.6554 20.7716 44.9038C20.9476 45.1274 21.1738 45.3065 21.4318 45.4265C21.6992 45.5456 21.9893 45.6051 22.282 45.6007C22.6582 45.6116 23.0291 45.511 23.3482 45.3115C23.6763 45.0841 23.9456 44.7819 24.1339 44.4299C24.2389 44.226 24.3773 44.0411 24.5433 43.8829C24.6913 43.7514 24.8837 43.681 25.0817 43.686C25.2018 43.6837 25.3209 43.7084 25.4301 43.7585C25.5393 43.8086 25.6357 43.8827 25.7123 43.9752C25.8683 44.1426 25.957 44.3615 25.9614 44.5902L25.958 44.6024Z" fill="#939598"/>
<path d="M32.3293 46.2192L30.5 43.2122L29.3763 44.275V45.923C29.3877 46.0899 29.3656 46.2574 29.3115 46.4156C29.2573 46.5739 29.1722 46.7197 29.061 46.8446C28.969 46.9455 28.8571 47.0263 28.7324 47.0817C28.6076 47.1372 28.4728 47.1662 28.3362 47.1669C28.1951 47.174 28.0543 47.1489 27.9242 47.0937C27.7942 47.0385 27.6783 46.9545 27.5854 46.8481C27.3843 46.5775 27.2873 46.2436 27.3118 45.9074V37.0711C27.2888 36.7034 27.3821 36.3377 27.5784 36.0258C27.6653 35.9076 27.7802 35.8127 27.9127 35.7498C28.0453 35.6868 28.1914 35.6578 28.338 35.6652C28.4809 35.6589 28.6235 35.6849 28.755 35.7413C28.8865 35.7977 29.0036 35.883 29.0976 35.991C29.3032 36.2683 29.4027 36.6101 29.378 36.9544V41.9805L31.7091 39.5415C31.9128 39.3175 32.1335 39.1095 32.3693 38.9196C32.53 38.8025 32.7246 38.7413 32.9233 38.7453C33.0418 38.7416 33.1599 38.7615 33.2706 38.804C33.3813 38.8465 33.4824 38.9106 33.5679 38.9927C33.6522 39.0717 33.7187 39.1677 33.7632 39.2743C33.8076 39.3809 33.829 39.4957 33.8258 39.6112C33.8258 39.9143 33.5453 40.3203 32.9826 40.8307L31.8815 41.8412L34.007 45.1809C34.1638 45.4283 34.277 45.6182 34.3449 45.7471C34.4085 45.8595 34.4438 45.9856 34.4477 46.1147C34.4632 46.3996 34.3663 46.6793 34.1777 46.8934C34.0861 46.9884 33.9753 47.0628 33.8528 47.1117C33.7303 47.1607 33.5987 47.1831 33.4669 47.1774C33.3605 47.1844 33.2538 47.1697 33.1532 47.1344C33.0526 47.0991 32.9602 47.0438 32.8815 46.9718C32.6746 46.7429 32.4897 46.495 32.3293 46.2314V46.2192Z" fill="#939598"/>
<path d="M37.4566 47.1756C37.1574 47.1812 36.8671 47.0729 36.6448 46.8725C36.5276 46.7652 36.4356 46.6334 36.3753 46.4864C36.3151 46.3394 36.2881 46.1809 36.2964 46.0223C36.2943 45.8742 36.3221 45.7273 36.3781 45.5902C36.4341 45.4531 36.5171 45.3287 36.6222 45.2244C36.7257 45.1158 36.8508 45.0299 36.9894 44.9724C37.1279 44.9148 37.277 44.8867 37.427 44.8899C37.5783 44.8871 37.7285 44.915 37.8686 44.9719C38.0088 45.0287 38.1359 45.1135 38.2424 45.2209C38.4592 45.4404 38.5808 45.7364 38.5808 46.0449C38.5808 46.3535 38.4592 46.6495 38.2424 46.869C38.0295 47.0682 37.7482 47.178 37.4566 47.1756Z" fill="#939598"/>
<path d="M51.5068 44.4579C51.5306 44.9827 51.382 45.5008 51.0838 45.9333C50.7856 46.3658 50.3542 46.6889 49.8553 46.8534C49.2182 47.0794 48.545 47.1863 47.8692 47.1687C47.2134 47.1838 46.5613 47.0653 45.9528 46.8203C45.4923 46.6447 45.0865 46.3501 44.7769 45.9666C44.5419 45.6744 44.4086 45.3135 44.3971 44.9387C44.3953 44.8298 44.4159 44.7217 44.4576 44.621C44.4992 44.5203 44.561 44.4292 44.6392 44.3534C44.7199 44.2732 44.816 44.2104 44.9217 44.1688C45.0275 44.1272 45.1406 44.1076 45.2542 44.1112C45.4358 44.0986 45.6153 44.1559 45.756 44.2715C45.8908 44.4017 46.0038 44.5529 46.0905 44.7192C46.2711 45.0549 46.5336 45.3395 46.8535 45.5467C47.2269 45.7489 47.6491 45.8436 48.073 45.8203C48.4338 45.836 48.7906 45.7392 49.0939 45.5433C49.2085 45.4797 49.3051 45.3883 49.3749 45.2774C49.4446 45.1666 49.4852 45.0399 49.4929 44.9091C49.5029 44.751 49.4696 44.5931 49.3965 44.4525C49.3234 44.3119 49.2134 44.1939 49.0783 44.1112C48.6489 43.8883 48.1903 43.727 47.7159 43.6321C47.1211 43.4937 46.5384 43.3072 45.9737 43.0746C45.5605 42.9049 45.1925 42.6412 44.8988 42.3046C44.6265 41.9744 44.4835 41.5564 44.4964 41.1286C44.498 40.7078 44.6281 40.2975 44.8692 39.9527C45.1448 39.5605 45.5251 39.2538 45.9668 39.0676C46.5174 38.8347 47.1113 38.7219 47.7089 38.7366C48.1964 38.733 48.6823 38.7915 49.1549 38.9108C49.5331 39.0019 49.8943 39.153 50.2246 39.3586C50.4822 39.5196 50.7044 39.7312 50.8779 39.9805C51.0168 40.176 51.095 40.4081 51.1026 40.6478C51.1061 40.7566 51.0866 40.865 51.0455 40.9658C51.0044 41.0667 50.9426 41.1578 50.864 41.2331C50.6759 41.3949 50.4321 41.4768 50.1845 41.4614C49.9885 41.4691 49.796 41.4074 49.641 41.2872C49.4506 41.1204 49.2789 40.9334 49.1288 40.7297C48.9779 40.5328 48.7896 40.3676 48.5748 40.2436C48.3052 40.1082 48.005 40.0452 47.7037 40.0607C47.3759 40.0485 47.0516 40.1314 46.7699 40.2993C46.6605 40.3567 46.5684 40.4421 46.5029 40.5468C46.4374 40.6515 46.4008 40.7717 46.3971 40.8952C46.3957 40.9998 46.4198 41.1033 46.4675 41.1965C46.5152 41.2897 46.5849 41.3699 46.6706 41.43C46.893 41.59 47.1427 41.7081 47.4075 41.7784C47.7153 41.869 48.1404 41.9805 48.6828 42.1129C49.2262 42.2358 49.7527 42.4242 50.2507 42.6739C50.6152 42.8553 50.9325 43.1189 51.1776 43.4439C51.3878 43.7405 51.4982 44.0962 51.4929 44.4596L51.5068 44.4579Z" fill="#939598"/>
<path d="M58.5002 45.9996C58.0564 46.3537 57.5671 46.6466 57.0455 46.8707C56.5473 47.071 56.0144 47.1705 55.4775 47.1634C54.9942 47.173 54.5159 47.0648 54.0838 46.848C53.7006 46.6553 53.3785 46.3597 53.1535 45.9944C52.9381 45.6427 52.8252 45.2378 52.8277 44.8254C52.8153 44.2912 53.008 43.7725 53.366 43.3759C53.7612 42.9566 54.2801 42.6746 54.8469 42.571C54.9793 42.5414 55.3051 42.4717 55.826 42.3655C56.3469 42.2592 56.7946 42.1616 57.1657 42.0728C57.5368 41.9839 57.9409 41.8759 58.3765 41.7505C58.3509 41.2034 58.2406 40.8022 58.0455 40.5467C57.8504 40.2911 57.4439 40.1634 56.826 40.1634C56.418 40.1396 56.0104 40.215 55.6378 40.3829C55.3584 40.5422 55.1235 40.7692 54.9549 41.0432C54.8311 41.2436 54.6968 41.4372 54.5524 41.6233C54.4741 41.7174 54.3051 41.7644 54.0472 41.7644C53.825 41.7692 53.6093 41.6888 53.4444 41.5397C53.3622 41.469 53.2967 41.3809 53.2527 41.2817C53.2088 41.1826 53.1873 41.0749 53.1901 40.9665C53.1983 40.5793 53.3343 40.2057 53.5768 39.9038C53.8951 39.5166 54.3123 39.2228 54.7842 39.0536C55.437 38.8123 56.1302 38.6987 56.826 38.7191C57.7377 38.7191 58.4537 38.8266 58.9741 39.0414C59.4613 39.2246 59.8577 39.5909 60.0786 40.0623C60.3158 40.6499 60.4256 41.2811 60.4009 41.9142C60.4009 42.3997 60.4009 42.812 60.4009 43.1512C60.4009 43.4892 60.4009 43.8672 60.3887 44.2818C60.3921 44.6957 60.4573 45.1067 60.5821 45.5014C60.6758 45.7653 60.7406 46.0387 60.7754 46.3167C60.7718 46.4296 60.743 46.5402 60.6911 46.6406C60.6393 46.741 60.5657 46.8285 60.4758 46.8968C60.2898 47.0656 60.0475 47.1588 59.7964 47.1581C59.5548 47.1456 59.328 47.0379 59.1657 46.8585C58.9122 46.5991 58.6916 46.3095 58.5089 45.9961L58.5002 45.9996ZM58.3626 42.9944C57.9291 43.1388 57.4869 43.2552 57.0385 43.3428C56.4584 43.4665 56.0577 43.5588 55.8347 43.6163C55.5986 43.683 55.3807 43.8021 55.197 43.9648C55.0952 44.0519 55.0149 44.1614 54.9623 44.2847C54.9098 44.408 54.8863 44.5418 54.8939 44.6756C54.8907 44.8264 54.9202 44.9761 54.9804 45.1144C55.0405 45.2528 55.1299 45.3764 55.2423 45.477C55.499 45.704 55.8338 45.8226 56.1761 45.808C56.5705 45.811 56.9596 45.7183 57.3103 45.5379C57.6275 45.3855 57.8928 45.1432 58.0734 44.8411C58.2603 44.5275 58.3538 44.0112 58.3538 43.2923L58.3626 42.9944Z" fill="#939598"/>
<path d="M63.5783 40.0327L65.256 44.7365L67.0626 39.8237C67.1553 39.5228 67.2966 39.2392 67.4807 38.9839C67.5588 38.8981 67.6554 38.8313 67.7631 38.7884C67.8709 38.7455 67.987 38.7278 68.1027 38.7365C68.2269 38.7341 68.3503 38.7564 68.4657 38.8022C68.5812 38.848 68.6864 38.9163 68.7752 39.0031C68.8619 39.0804 68.9314 39.1751 68.9792 39.2811C69.0269 39.387 69.0518 39.5019 69.0522 39.6181C69.0499 39.726 69.0335 39.8332 69.0034 39.9369C68.9722 40.0551 68.9344 40.1714 68.8901 40.2853L68.7421 40.6494L66.7525 45.585C66.6968 45.7261 66.6253 45.9073 66.5365 46.1233C66.459 46.3197 66.3596 46.5067 66.2403 46.6808C66.1366 46.8312 65.9987 46.9548 65.8379 47.0414C65.6581 47.1316 65.4588 47.1759 65.2577 47.1703C65.0095 47.1822 64.7643 47.1111 64.5609 46.9683C64.4013 46.8513 64.2693 46.7009 64.1741 46.5275C64.0905 46.3672 63.9494 46.0536 63.7525 45.5815L61.7786 40.7034C61.7333 40.5815 61.6863 40.4613 61.6375 40.3393C61.5893 40.2183 61.5486 40.0943 61.5156 39.9683C61.4857 39.8621 61.4694 39.7527 61.4668 39.6425C61.4696 39.4927 61.5143 39.3466 61.5957 39.2209C61.6835 39.0765 61.8064 38.9567 61.9529 38.8724C62.1022 38.7846 62.2726 38.7389 62.4459 38.74C62.7943 38.74 63.026 38.8393 63.155 39.0362C63.3348 39.3512 63.4786 39.6855 63.5835 40.0327H63.5783Z" fill="#939598"/>
<path d="M76.1222 43.463H72.0682C72.0642 43.8947 72.1615 44.3213 72.3521 44.7086C72.5103 45.0375 72.7592 45.3143 73.0693 45.5066C73.3795 45.6989 73.7381 45.7986 74.103 45.794C74.3324 45.7961 74.561 45.7668 74.7824 45.7069C74.9937 45.6462 75.1946 45.554 75.3783 45.4334C75.5651 45.3138 75.7427 45.1805 75.9096 45.0344C76.0716 44.8933 76.2807 44.6999 76.5403 44.4578C76.671 44.3585 76.833 44.3097 76.9967 44.3201C77.1868 44.3094 77.3738 44.3717 77.5194 44.4944C77.5862 44.5571 77.6385 44.6338 77.6725 44.719C77.7066 44.8042 77.7215 44.8958 77.7162 44.9874C77.7014 45.2217 77.6258 45.4481 77.4967 45.6442C77.3235 45.9247 77.0982 46.1695 76.833 46.3654C76.4954 46.6176 76.1179 46.8113 75.7162 46.9386C75.2153 47.102 74.6909 47.182 74.164 47.1755C72.833 47.1755 71.7981 46.7957 71.0594 46.0362C70.3208 45.2766 69.9514 44.2464 69.9514 42.9456C69.9456 42.3662 70.0381 41.7901 70.225 41.2417C70.3932 40.7417 70.6651 40.2828 71.0229 39.895C71.3821 39.5132 71.8235 39.2183 72.3138 39.0327C72.8568 38.827 73.4336 38.7254 74.0141 38.733C74.7446 38.711 75.4672 38.8881 76.1047 39.2452C76.6541 39.5558 77.105 40.0146 77.4061 40.5693C77.6854 41.0765 77.8339 41.6453 77.8382 42.2243C77.8382 42.7458 77.6889 43.0838 77.3905 43.2383C76.9941 43.4139 76.5621 43.4939 76.1291 43.4717L76.1222 43.463ZM72.0682 42.287H75.826C75.7749 41.5786 75.5838 41.0484 75.2528 40.6964C75.084 40.5215 74.8798 40.3844 74.654 40.2943C74.4281 40.2042 74.1857 40.1631 73.9427 40.1738C73.7048 40.1664 73.468 40.2104 73.2486 40.3027C73.0291 40.395 72.8321 40.5334 72.6709 40.7086C72.3399 41.0664 72.139 41.5942 72.0682 42.2923V42.287Z" fill="#939598"/>
<path d="M80.1759 47.1756C79.8766 47.1812 79.5864 47.0729 79.364 46.8725C79.2468 46.7652 79.1548 46.6334 79.0946 46.4864C79.0343 46.3394 79.0074 46.1809 79.0156 46.0223C79.0136 45.8742 79.0414 45.7273 79.0973 45.5902C79.1533 45.4531 79.2363 45.3287 79.3414 45.2244C79.445 45.1158 79.57 45.0299 79.7086 44.9724C79.8472 44.9148 79.9962 44.8867 80.1463 44.8899C80.2975 44.8871 80.4477 44.915 80.5879 44.9719C80.728 45.0287 80.8551 45.1135 80.9616 45.2209C81.1784 45.4404 81.3 45.7364 81.3 46.0449C81.3 46.3535 81.1784 46.6495 80.9616 46.869C80.7488 47.0682 80.4674 47.178 80.1759 47.1756Z" fill="#939598"/>
<path d="M93.2336 45.9839V45.7818C92.9877 46.0703 92.7114 46.3314 92.4095 46.5606C92.1421 46.7591 91.8445 46.9133 91.528 47.017C91.19 47.1238 90.8372 47.1762 90.4827 47.1721C90.005 47.1766 89.5329 47.0686 89.1047 46.8567C88.6767 46.6422 88.3018 46.3351 88.0071 45.9578C87.69 45.5478 87.4536 45.0813 87.3102 44.5832C87.1465 44.0285 87.066 43.4525 87.0716 42.8742C87.0716 41.578 87.388 40.5681 88.021 39.8445C88.3301 39.4887 88.7149 39.2065 89.1471 39.0187C89.5794 38.8309 90.0483 38.7422 90.5193 38.7592C91.0397 38.7433 91.5567 38.8482 92.0297 39.0658C92.4835 39.3056 92.8897 39.6261 93.2283 40.0118V36.9491C93.2046 36.6087 93.294 36.27 93.4827 35.9857C93.569 35.8778 93.6797 35.792 93.8058 35.7353C93.9318 35.6787 94.0695 35.6528 94.2074 35.6599C94.3431 35.6516 94.4788 35.6742 94.6044 35.7261C94.7299 35.7781 94.842 35.8579 94.9322 35.9595C95.1187 36.2153 95.2088 36.5288 95.1865 36.8445V45.9857C95.2115 46.3058 95.1137 46.6235 94.913 46.8742C94.8236 46.9713 94.7142 47.048 94.5925 47.0991C94.4707 47.1502 94.3394 47.1745 94.2074 47.1703C94.0758 47.1729 93.9452 47.1466 93.8249 47.0933C93.7045 47.04 93.5972 46.9611 93.5106 46.862C93.314 46.6158 93.2158 46.3053 93.2353 45.9909L93.2336 45.9839ZM89.1569 42.9386C89.1438 43.4301 89.2327 43.9189 89.4182 44.3742C89.5655 44.7351 89.8149 45.0451 90.136 45.2662C90.4302 45.4633 90.7767 45.5677 91.1308 45.5658C91.4839 45.5692 91.8306 45.4706 92.129 45.2818C92.45 45.0689 92.701 44.7658 92.8503 44.4108C93.0441 43.9461 93.1361 43.4453 93.1203 42.9421C93.1325 42.4539 93.0405 41.9686 92.8503 41.5188C92.6961 41.1538 92.4441 40.8385 92.1221 40.6076C91.8276 40.4013 91.4764 40.2911 91.1169 40.2923C90.7519 40.2877 90.3952 40.4007 90.0994 40.6146C89.7844 40.8516 89.5428 41.1729 89.4026 41.5414C89.2299 41.9854 89.1458 42.4589 89.1552 42.9351L89.1569 42.9386Z" fill="#939598"/>
<path d="M99.331 44.1774V45.9091C99.3567 46.2507 99.2507 46.5892 99.0349 46.8551C98.9395 46.9583 98.8232 47.0399 98.6936 47.0943C98.5641 47.1487 98.4244 47.1746 98.284 47.1705C98.1454 47.1741 98.0076 47.1475 97.8803 47.0925C97.753 47.0374 97.6393 46.9552 97.5471 46.8517C97.3368 46.5851 97.2337 46.2496 97.2579 45.9109V40.1408C97.2579 39.2117 97.5947 38.7471 98.2683 38.7471C98.4097 38.7342 98.5521 38.7574 98.6822 38.8143C98.8122 38.8713 98.9258 38.9602 99.0122 39.0729C99.1845 39.3642 99.2714 39.698 99.2631 40.0363C99.4604 39.6738 99.7185 39.3479 100.026 39.0729C100.324 38.8422 100.695 38.7266 101.071 38.7471C101.515 38.7489 101.951 38.8609 102.34 39.0729C102.749 39.2913 102.954 39.5816 102.955 39.944C102.958 40.0611 102.936 40.1775 102.891 40.2856C102.846 40.3937 102.779 40.4911 102.693 40.5712C102.544 40.7247 102.341 40.8136 102.127 40.8185C101.939 40.7919 101.754 40.7446 101.577 40.6774C101.329 40.5911 101.069 40.5435 100.807 40.5363C100.538 40.525 100.274 40.6096 100.063 40.775C99.8505 40.9651 99.6954 41.2107 99.615 41.4841C99.4987 41.8477 99.425 42.2236 99.3955 42.6043C99.3519 43.0346 99.3328 43.5624 99.3328 44.1861L99.331 44.1774Z" fill="#939598"/>
<path d="M105.13 37.7767C104.859 37.7829 104.595 37.6879 104.39 37.5101C104.292 37.4142 104.213 37.2995 104.16 37.1728C104.106 37.046 104.079 36.9099 104.079 36.7723C104.079 36.6348 104.106 36.4986 104.16 36.3719C104.213 36.2452 104.292 36.1305 104.39 36.0345C104.589 35.8494 104.852 35.7478 105.124 35.7506C105.385 35.7477 105.639 35.8392 105.838 36.0084C105.944 36.1014 106.027 36.2174 106.081 36.3476C106.135 36.4778 106.159 36.6186 106.15 36.7593C106.157 36.8985 106.134 37.0376 106.082 37.1668C106.029 37.296 105.949 37.412 105.847 37.5067C105.647 37.6842 105.389 37.7806 105.122 37.7767H105.13ZM106.155 39.9178V45.9073C106.179 46.2472 106.073 46.5836 105.859 46.8481C105.764 46.9521 105.648 47.0344 105.518 47.0894C105.388 47.1445 105.249 47.1709 105.108 47.1669C104.968 47.1715 104.829 47.1446 104.701 47.0882C104.572 47.0318 104.459 46.9474 104.367 46.8411C104.162 46.5749 104.061 46.2428 104.083 45.9073V39.984C104.059 39.6504 104.16 39.3196 104.367 39.0572C104.461 38.9548 104.576 38.8739 104.703 38.8201C104.831 38.7662 104.969 38.7407 105.108 38.7453C105.248 38.7414 105.387 38.7671 105.517 38.8209C105.646 38.8746 105.763 38.9552 105.859 39.0572C106.067 39.2977 106.174 39.6104 106.155 39.9283V39.9178Z" fill="#939598"/>
<path d="M109.756 40.0328L111.434 44.7366L113.24 39.8255C113.333 39.5247 113.474 39.241 113.659 38.9858C113.737 38.9 113.833 38.8331 113.941 38.7902C114.049 38.7474 114.165 38.7296 114.281 38.7384C114.405 38.7359 114.528 38.7583 114.644 38.804C114.759 38.8498 114.864 38.9181 114.953 39.0049C115.04 39.0822 115.109 39.1769 115.157 39.2829C115.205 39.3889 115.23 39.5037 115.23 39.6199C115.228 39.7279 115.211 39.835 115.181 39.9387C115.15 40.0569 115.112 40.1732 115.068 40.2872L114.92 40.6513L112.93 45.5868C112.875 45.7279 112.803 45.9091 112.714 46.1251C112.637 46.3215 112.538 46.5085 112.418 46.6826C112.315 46.8298 112.179 46.9509 112.021 47.0363C111.841 47.1264 111.642 47.1707 111.441 47.1652C111.193 47.177 110.947 47.1059 110.744 46.9631C110.584 46.8462 110.452 46.6957 110.357 46.5223C110.274 46.3621 110.132 46.0485 109.936 45.5763L107.962 40.6983C107.916 40.5763 107.869 40.4561 107.821 40.3342C107.772 40.2131 107.732 40.0892 107.699 39.9631C107.669 39.857 107.652 39.7475 107.65 39.6373C107.653 39.4875 107.697 39.3415 107.779 39.2157C107.864 39.0724 107.984 38.9527 108.127 38.8673C108.277 38.7795 108.447 38.7337 108.62 38.7349C108.969 38.7349 109.2 38.8342 109.329 39.0311C109.509 39.3478 109.652 39.6838 109.756 40.0328Z" fill="#939598"/>
<path d="M122.3 43.4632H118.251C118.247 43.8949 118.344 44.3215 118.535 44.7088C118.693 45.0376 118.942 45.3145 119.252 45.5067C119.562 45.699 119.921 45.7987 120.286 45.7942C120.515 45.7962 120.744 45.7669 120.965 45.7071C121.177 45.6464 121.377 45.5542 121.561 45.4335C121.745 45.3136 121.92 45.1803 122.084 45.0346C122.246 44.8935 122.455 44.7001 122.714 44.4579C122.845 44.3587 123.007 44.3099 123.171 44.3203C123.361 44.3095 123.548 44.3719 123.694 44.4945C123.76 44.5573 123.813 44.634 123.847 44.7192C123.881 44.8044 123.896 44.896 123.89 44.9875C123.876 45.2218 123.8 45.4482 123.671 45.6443C123.498 45.9249 123.272 46.1697 123.007 46.3656C122.67 46.6177 122.292 46.8115 121.89 46.9388C121.391 47.0984 120.869 47.1755 120.345 47.167C119.014 47.167 117.979 46.7872 117.241 46.0276C116.502 45.268 116.133 44.2378 116.133 42.937C116.127 42.3577 116.219 41.7816 116.406 41.2332C116.574 40.7331 116.846 40.2742 117.204 39.8865C117.563 39.5047 118.005 39.2098 118.495 39.0241C119.038 38.8185 119.615 38.7168 120.195 38.7245C120.926 38.7025 121.648 38.8795 122.286 39.2367C122.835 39.5473 123.286 40.0061 123.587 40.5607C123.867 41.0679 124.015 41.6368 124.019 42.2158C124.019 42.7373 123.87 43.0752 123.572 43.2297C123.172 43.4068 122.736 43.4868 122.3 43.4632ZM118.244 42.2872H122.002C121.951 41.5787 121.76 41.0485 121.429 40.6966C121.26 40.5216 121.056 40.3846 120.83 40.2945C120.604 40.2043 120.362 40.1633 120.119 40.174C119.881 40.1666 119.644 40.2106 119.425 40.3029C119.205 40.3951 119.008 40.5336 118.847 40.7088C118.522 41.063 118.322 41.5892 118.249 42.2872H118.244Z" fill="#939598"/>
<path d="M126.359 47.1756C126.06 47.1812 125.769 47.0729 125.547 46.8725C125.43 46.7652 125.338 46.6334 125.278 46.4864C125.217 46.3394 125.19 46.1809 125.199 46.0223C125.197 45.8742 125.224 45.7273 125.28 45.5902C125.336 45.4531 125.419 45.3287 125.524 45.2244C125.628 45.1158 125.753 45.0299 125.892 44.9724C126.03 44.9148 126.179 44.8867 126.329 44.8899C126.481 44.8871 126.631 44.915 126.771 44.9719C126.911 45.0287 127.038 45.1135 127.145 45.2209C127.362 45.4404 127.483 45.7364 127.483 46.0449C127.483 46.3535 127.362 46.6495 127.145 46.869C126.932 47.0682 126.651 47.178 126.359 47.1756Z" fill="#939598"/>
<path d="M71.9928 8.67384C71.8154 8.66979 71.6378 8.67794 71.4615 8.69823C71.4024 8.69476 71.3431 8.70305 71.2873 8.72262C71.1601 8.72262 71.059 8.74701 70.9388 8.74701C70.8622 8.74701 70.7873 8.7714 70.7106 8.7714C70.6339 8.7714 70.5085 8.79579 70.4075 8.79579C70.3215 8.80227 70.2367 8.81924 70.1549 8.84631C70.0538 8.87245 69.9806 8.87245 69.8761 8.89684C69.7716 8.92123 69.7019 8.92123 69.6235 8.94736C69.5451 8.97349 69.4719 8.97349 69.3709 8.99788L69.0921 9.07454C69.0274 9.10064 68.9594 9.11765 68.89 9.12506C68.789 9.15119 68.6879 9.17558 68.6113 9.20171C68.5572 9.23004 68.4979 9.24722 68.4371 9.25224C68.336 9.27837 68.235 9.32889 68.1339 9.35328C68.088 9.38164 68.0361 9.39893 67.9824 9.4038C67.8813 9.45433 67.7542 9.48046 67.6531 9.53098C67.627 9.55711 67.5765 9.55712 67.5521 9.58151C65.627 10.4465 63.9926 11.849 62.8454 13.6205C61.6982 15.392 61.087 17.4571 61.0852 19.5676V19.6686C61.0747 21.2703 60.4519 22.8074 59.3443 23.9645C58.2367 25.1216 56.7284 25.8111 55.1287 25.8916H54.7994C53.7305 25.8908 52.6793 25.6194 51.7436 25.1027C50.8079 24.5859 50.0182 23.8407 49.4483 22.9364C48.8783 22.0322 48.5466 20.9983 48.484 19.9313C48.4214 18.8642 48.63 17.7987 49.0904 16.834C49.5507 15.8693 50.2478 15.0369 51.1167 14.4143C51.9856 13.7917 52.998 13.3993 54.0594 13.2735C55.1209 13.1478 56.197 13.2929 57.1872 13.6952C58.1775 14.0976 59.0498 14.7441 59.7228 15.5745C60.219 14.0397 60.9984 12.6115 62.0207 11.3637C60.0411 9.60235 57.4824 8.63121 54.8325 8.63551C51.94 8.64197 49.1682 9.79543 47.125 11.8429C45.0818 13.8903 43.934 16.6646 43.9336 19.5571V19.6843C43.9456 22.5555 45.0938 25.3052 47.1274 27.3322C49.1609 29.3592 51.9143 30.4986 54.7855 30.5014C55.3279 30.4978 55.8693 30.4559 56.4057 30.3759H56.4319C56.6061 30.3515 56.7611 30.3254 56.9388 30.301C56.9527 30.3028 56.9669 30.3013 56.9802 30.2968C56.9934 30.2923 57.0055 30.2848 57.0155 30.2749C57.1616 30.2537 57.3055 30.2198 57.4458 30.1738C57.4963 30.1738 57.5224 30.1477 57.573 30.1477C57.7001 30.1233 57.8012 30.0711 57.9214 30.0467C57.9719 30.0205 58.0486 30.0223 58.0956 29.9961C58.1921 29.9734 58.2857 29.9394 58.3744 29.8951L58.6026 29.8184C58.6792 29.7923 58.7298 29.7679 58.8047 29.7418C58.9057 29.6913 59.0068 29.6651 59.1078 29.6146C59.1339 29.5885 59.1845 29.5885 59.2089 29.5641C61.1167 28.7208 62.7402 27.3441 63.8838 25.5996C65.0275 23.8551 65.6425 21.8172 65.6548 19.7313V19.5571C65.6546 18.6633 65.8444 17.7796 66.2117 16.9647C66.5791 16.1498 67.1155 15.4223 67.7855 14.8306L67.8116 14.8045C67.8813 14.7385 67.9578 14.6801 68.0399 14.6303L68.0904 14.5798C68.1625 14.534 68.2302 14.4815 68.2925 14.423C68.3186 14.3968 68.343 14.3968 68.3691 14.3724C68.4411 14.3283 68.5087 14.2776 68.5712 14.2209C68.5974 14.1947 68.6217 14.1947 68.6479 14.1704C68.7185 14.1188 68.7951 14.0761 68.8761 14.0432C68.9022 14.0432 68.9022 14.017 68.9266 14.017C69.0277 13.9665 69.1008 13.916 69.2054 13.8655H69.2315C69.4366 13.7658 69.6485 13.6808 69.8657 13.6111C69.8918 13.6111 69.9162 13.585 69.9423 13.585L70.1705 13.5083C70.1967 13.5083 70.2472 13.4822 70.2716 13.4822C70.3363 13.4561 70.4043 13.4391 70.4737 13.4317C70.5242 13.4317 70.5503 13.4055 70.6008 13.4055C70.6775 13.3794 70.728 13.3812 70.8029 13.355C70.8535 13.355 70.8796 13.3289 70.9301 13.3289C70.9806 13.3289 71.0817 13.3045 71.1322 13.3045C71.1762 13.3085 71.2205 13.2994 71.2594 13.2784C71.336 13.2784 71.4109 13.2522 71.4876 13.254H71.951C73.6253 13.2636 75.2276 13.9358 76.4078 15.1234C77.5879 16.3111 78.2499 17.9177 78.2489 19.592V19.693C78.2336 20.9892 77.8187 22.249 77.0607 23.3005C76.3027 24.352 75.2386 25.144 74.0138 25.5682C72.7889 25.9924 71.463 26.0283 70.217 25.6708C68.971 25.3134 67.8657 24.5801 67.0521 23.5711C66.5535 25.1091 65.7705 26.5398 64.7437 27.7888C66.7234 29.5502 69.282 30.5213 71.9319 30.517C74.8284 30.5251 77.6096 29.3822 79.6635 27.3397C81.7174 25.2973 82.8759 22.5225 82.8839 19.6259C82.892 16.7293 81.7491 13.9482 79.7066 11.8943C77.6642 9.84035 74.8894 8.68193 71.9928 8.67384Z" fill="#3AC6F4"/>
<mask id="mask1_173_1397" style="mask-type:luminance" maskUnits="userSpaceOnUse" x="43" y="8" width="40" height="23">
<path d="M71.9928 8.67384C71.8154 8.66979 71.6378 8.67794 71.4615 8.69823C71.4024 8.69476 71.3431 8.70305 71.2873 8.72262C71.1601 8.72262 71.059 8.74701 70.9388 8.74701C70.8622 8.74701 70.7873 8.7714 70.7106 8.7714C70.6339 8.7714 70.5085 8.79579 70.4075 8.79579C70.3215 8.80227 70.2367 8.81924 70.1549 8.84631C70.0538 8.87245 69.9806 8.87245 69.8761 8.89684C69.7716 8.92123 69.7019 8.92123 69.6235 8.94736C69.5451 8.97349 69.4719 8.97349 69.3709 8.99788L69.0921 9.07454C69.0274 9.10064 68.9594 9.11765 68.89 9.12506C68.789 9.15119 68.6879 9.17558 68.6113 9.20171C68.5572 9.23004 68.4979 9.24722 68.4371 9.25224C68.336 9.27837 68.235 9.32889 68.1339 9.35328C68.088 9.38164 68.0361 9.39893 67.9824 9.4038C67.8813 9.45433 67.7542 9.48046 67.6531 9.53098C67.627 9.55711 67.5765 9.55712 67.5521 9.58151C65.627 10.4465 63.9926 11.849 62.8454 13.6205C61.6982 15.392 61.087 17.4571 61.0852 19.5676V19.6686C61.0747 21.2703 60.4519 22.8074 59.3443 23.9645C58.2367 25.1216 56.7284 25.8111 55.1287 25.8916H54.7994C53.7305 25.8908 52.6793 25.6194 51.7436 25.1027C50.8079 24.5859 50.0182 23.8407 49.4483 22.9364C48.8783 22.0322 48.5466 20.9983 48.484 19.9313C48.4214 18.8642 48.63 17.7987 49.0904 16.834C49.5507 15.8693 50.2478 15.0369 51.1167 14.4143C51.9856 13.7917 52.998 13.3993 54.0594 13.2735C55.1209 13.1478 56.197 13.2929 57.1872 13.6952C58.1775 14.0976 59.0498 14.7441 59.7228 15.5745C60.219 14.0397 60.9984 12.6115 62.0207 11.3637C60.0411 9.60235 57.4824 8.63121 54.8325 8.63551C51.94 8.64197 49.1682 9.79543 47.125 11.8429C45.0818 13.8903 43.934 16.6646 43.9336 19.5571V19.6843C43.9456 22.5555 45.0938 25.3052 47.1274 27.3322C49.1609 29.3592 51.9143 30.4986 54.7855 30.5014C55.3279 30.4978 55.8693 30.4559 56.4057 30.3759H56.4319C56.6061 30.3515 56.7611 30.3254 56.9388 30.301C56.9527 30.3028 56.9669 30.3013 56.9802 30.2968C56.9934 30.2923 57.0055 30.2848 57.0155 30.2749C57.1616 30.2537 57.3055 30.2198 57.4458 30.1738C57.4963 30.1738 57.5224 30.1477 57.573 30.1477C57.7001 30.1233 57.8012 30.0711 57.9214 30.0467C57.9719 30.0205 58.0486 30.0223 58.0956 29.9961C58.1921 29.9734 58.2857 29.9394 58.3744 29.8951L58.6026 29.8184C58.6792 29.7923 58.7298 29.7679 58.8047 29.7418C58.9057 29.6913 59.0068 29.6651 59.1078 29.6146C59.1339 29.5885 59.1845 29.5885 59.2089 29.5641C61.1167 28.7208 62.7402 27.3441 63.8838 25.5996C65.0275 23.8551 65.6425 21.8172 65.6548 19.7313V19.5571C65.6546 18.6633 65.8444 17.7796 66.2117 16.9647C66.5791 16.1498 67.1155 15.4223 67.7855 14.8306L67.8116 14.8045C67.8813 14.7385 67.9578 14.6801 68.0399 14.6303L68.0904 14.5798C68.1625 14.534 68.2302 14.4815 68.2925 14.423C68.3186 14.3968 68.343 14.3968 68.3691 14.3724C68.4411 14.3283 68.5087 14.2776 68.5712 14.2209C68.5974 14.1947 68.6217 14.1947 68.6479 14.1704C68.7185 14.1188 68.7951 14.0761 68.8761 14.0432C68.9022 14.0432 68.9022 14.017 68.9266 14.017C69.0277 13.9665 69.1008 13.916 69.2054 13.8655H69.2315C69.4366 13.7658 69.6485 13.6808 69.8657 13.6111C69.8918 13.6111 69.9162 13.585 69.9423 13.585L70.1705 13.5083C70.1967 13.5083 70.2472 13.4822 70.2716 13.4822C70.3363 13.4561 70.4043 13.4391 70.4737 13.4317C70.5242 13.4317 70.5503 13.4055 70.6008 13.4055C70.6775 13.3794 70.728 13.3812 70.8029 13.355C70.8535 13.355 70.8796 13.3289 70.9301 13.3289C70.9806 13.3289 71.0817 13.3045 71.1322 13.3045C71.1762 13.3085 71.2205 13.2994 71.2594 13.2784C71.336 13.2784 71.4109 13.2522 71.4876 13.254H71.951C73.6253 13.2636 75.2276 13.9358 76.4078 15.1234C77.5879 16.3111 78.2499 17.9177 78.2489 19.592V19.693C78.2336 20.9892 77.8187 22.249 77.0607 23.3005C76.3027 24.352 75.2386 25.144 74.0138 25.5682C72.7889 25.9924 71.463 26.0283 70.217 25.6708C68.971 25.3134 67.8657 24.5801 67.0521 23.5711C66.5535 25.1091 65.7705 26.5398 64.7437 27.7888C66.7234 29.5502 69.282 30.5213 71.9319 30.517C74.8284 30.5251 77.6096 29.3822 79.6635 27.3397C81.7174 25.2973 82.8759 22.5225 82.8839 19.6259C82.892 16.7293 81.7491 13.9482 79.7066 11.8943C77.6642 9.84035 74.8894 8.68193 71.9928 8.67384Z" fill="white"/>
</mask>
<g mask="url(#mask1_173_1397)">
<path d="M39.1113 8.32544H87.0608V30.8272H39.1113V8.32544Z" fill="#3AC6F4"/>
</g>
</g>
</g>
<defs>
<clipPath id="clip0_173_1397">
<rect width="250" height="46.69" fill="white" transform="translate(0 0.659912)"/>
</clipPath>
<clipPath id="clip1_173_1397">
<rect width="250" height="46.6899" fill="white" transform="translate(0 0.659912)"/>
</clipPath>
</defs>
</svg>
