<svg width="38" height="25" viewBox="0 0 38 25" fill="none" xmlns="http://www.w3.org/2000/svg">
<g clip-path="url(#clip0_173_396)">
<g clip-path="url(#clip1_173_396)">
<g clip-path="url(#clip2_173_396)">
<path d="M34.8029 25H17.4022C17.0643 25 16.7988 24.7378 16.7988 24.4042V22.5691C16.7988 22.2355 17.0643 21.9733 17.4022 21.9733C17.7401 21.9733 18.0055 22.2355 18.0055 22.5691V23.8084H34.1995V19.042H21.0223C20.6844 19.042 20.4189 18.7798 20.4189 18.4461C20.4189 18.1125 20.6844 17.8503 21.0223 17.8503H34.8029C35.1408 17.8503 35.4062 18.1125 35.4062 18.4461V24.4042C35.4062 24.7378 35.1408 25 34.8029 25Z" fill="#092934"/>
<path d="M37.3621 19.0418H21.0233C20.6854 19.0418 20.4199 18.7796 20.4199 18.446C20.4199 18.1123 20.6854 17.8502 21.0233 17.8502H36.7346V13.0837H22.0369C21.7232 13.0837 21.4336 12.8216 21.4336 12.4879C21.4336 12.1543 21.7232 11.8921 22.0369 11.8921H37.3379C37.6758 11.8921 37.9413 12.1543 37.9413 12.4879V18.446C37.9654 18.7796 37.6758 19.0418 37.3621 19.0418Z" fill="#092934"/>
<path d="M34.8031 13.0839H22.0362C21.7224 13.0839 21.4328 12.8217 21.4328 12.4881C21.4328 12.1544 21.7224 11.8923 22.0362 11.8923H34.1998V7.14962H19.2366C18.9229 7.14962 18.6333 6.88747 18.6333 6.55382C18.6333 6.22016 18.8987 5.95801 19.2366 5.95801H34.8031C35.141 5.95801 35.4065 6.22016 35.4065 6.55382V12.4881C35.4065 12.8217 35.141 13.0839 34.8031 13.0839Z" fill="#092934"/>
<path d="M33.5216 7.14967H19.2342C18.9205 7.14967 18.6309 6.88751 18.6309 6.55386C18.6309 6.22021 18.8964 5.95806 19.2342 5.95806H32.9183V1.19161H16.7243V4.24214C16.7243 4.57579 16.4588 4.83794 16.1209 4.83794C15.7831 4.83794 15.5176 4.57579 15.5176 4.24214V0.595806C15.5176 0.262154 15.7831 0 16.1209 0H33.5216C33.8595 0 34.125 0.262154 34.125 0.595806V6.55386C34.125 6.88751 33.8595 7.14967 33.5216 7.14967Z" fill="#092934"/>
<path d="M11.3672 25.0002C5.0923 25.0002 0 19.9478 0 13.7753C0 7.57889 5.0923 2.55029 11.3672 2.55029C17.642 2.55029 22.7343 7.57889 22.7343 13.7753C22.7343 19.9478 17.6179 25.0002 11.3672 25.0002ZM11.3672 3.7419C5.76805 3.7419 1.20671 8.24619 1.20671 13.7753C1.20671 19.3043 5.76805 23.8086 11.3672 23.8086C16.9663 23.8086 21.5276 19.3043 21.5276 13.7753C21.5276 8.24619 16.9663 3.7419 11.3672 3.7419Z" fill="#092934"/>
<path d="M7.54731 13.5353H9.63458V14.3461H7.54731V14.4326C7.54731 14.7929 7.53258 15.1713 7.50313 15.5677C7.47368 15.9641 7.42951 16.3425 7.3706 16.7029H10.5623V17.5677H6.21101C6.292 17.056 6.36194 16.5479 6.42084 16.0434C6.4871 15.5317 6.52023 15.02 6.52023 14.5083V14.3461H5.49316V13.5353H6.52023V12.638C6.52023 12.1047 6.57545 11.665 6.68589 11.3191C6.80369 10.9659 6.96567 10.6884 7.17182 10.4866C7.38533 10.2776 7.63934 10.1335 7.93384 10.0542C8.22834 9.97494 8.55229 9.9353 8.90569 9.9353C9.22964 9.9353 9.50205 9.96413 9.72293 10.0218C9.9438 10.0794 10.1573 10.1479 10.3635 10.2272L10.1095 11.092C9.71925 10.9119 9.30326 10.8218 8.86151 10.8218C8.66273 10.8218 8.48234 10.8506 8.32037 10.9083C8.15839 10.9659 8.01851 11.0632 7.90071 11.2002C7.79027 11.3371 7.70192 11.5209 7.63566 11.7515C7.57676 11.9821 7.54731 12.2704 7.54731 12.6164V13.5353Z" fill="#092934"/>
<path d="M11.3955 13.8164C11.3955 12.5623 11.6201 11.5965 12.0692 10.9191C12.5257 10.2416 13.1552 9.90283 13.9577 9.90283C14.7602 9.90283 15.386 10.2416 15.8351 10.9191C16.2916 11.5965 16.5198 12.5623 16.5198 13.8164C16.5198 15.0704 16.2916 16.0362 15.8351 16.7137C15.386 17.3911 14.7602 17.7299 13.9577 17.7299C13.1552 17.7299 12.5257 17.3911 12.0692 16.7137C11.6201 16.0362 11.3955 15.0704 11.3955 13.8164ZM15.4376 13.8164C15.4376 13.4056 15.4118 13.0164 15.3603 12.6488C15.3161 12.2812 15.2351 11.9605 15.1173 11.6866C15.0069 11.4128 14.8559 11.1965 14.6645 11.038C14.4731 10.8722 14.2375 10.7893 13.9577 10.7893C13.6779 10.7893 13.4423 10.8722 13.2509 11.038C13.0595 11.1965 12.9049 11.4128 12.7871 11.6866C12.6766 11.9605 12.5956 12.2812 12.5441 12.6488C12.4999 13.0164 12.4778 13.4056 12.4778 13.8164C12.4778 14.2272 12.4999 14.6164 12.5441 14.9839C12.5956 15.3515 12.6766 15.6722 12.7871 15.9461C12.9049 16.22 13.0595 16.4398 13.2509 16.6056C13.4423 16.7641 13.6779 16.8434 13.9577 16.8434C14.2375 16.8434 14.4731 16.7641 14.6645 16.6056C14.8559 16.4398 15.0069 16.22 15.1173 15.9461C15.2351 15.6722 15.3161 15.3515 15.3603 14.9839C15.4118 14.6164 15.4376 14.2272 15.4376 13.8164Z" fill="#092934"/>
</g>
</g>
</g>
<defs>
<clipPath id="clip0_173_396">
<rect width="38" height="25" fill="white"/>
</clipPath>
<clipPath id="clip1_173_396">
<rect width="38" height="25" fill="white"/>
</clipPath>
<clipPath id="clip2_173_396">
<rect width="38" height="25" fill="white"/>
</clipPath>
</defs>
</svg>
