<svg width="49" height="49" viewBox="0 0 49 49" fill="none" xmlns="http://www.w3.org/2000/svg">
<g clip-path="url(#clip0_173_1347)">
<g clip-path="url(#clip1_173_1347)">
<path d="M24.5869 0.799805C11.3696 0.799805 0.65332 11.5458 0.65332 24.7998C0.65332 38.0538 11.3696 48.7998 24.5869 48.7998C37.8041 48.7998 48.5204 38.0538 48.5204 24.7998C48.5204 11.5458 37.8041 0.799805 24.5869 0.799805ZM30.5702 16.7998H27.8777C26.8047 16.7998 26.5813 17.2418 26.5813 18.3558V20.7998H30.5702L30.1534 24.7998H26.5813V38.7998H20.5979V24.7998H16.609V20.7998H20.5979V16.1838C20.5979 12.6458 22.4548 10.7998 26.6392 10.7998H30.5702V16.7998Z" fill="#00CFFF"/>
</g>
</g>
<defs>
<clipPath id="clip0_173_1347">
<rect width="49" height="48" fill="white" transform="translate(0 0.799805)"/>
</clipPath>
<clipPath id="clip1_173_1347">
<rect width="49" height="48" fill="white" transform="translate(0 0.799805)"/>
</clipPath>
</defs>
</svg>
