<svg width="26" height="26" viewBox="0 0 26 26" fill="none" xmlns="http://www.w3.org/2000/svg">
<path d="M17.8751 3.25C14.7388 3.25 13.0001 5.51417 13.0001 5.51417C13.0001 5.51417 11.2613 3.25 8.12508 3.25C4.83391 3.25 2.16675 5.91717 2.16675 9.20833C2.16675 13.7269 7.48808 18.1058 8.97117 19.4892C10.6796 21.0817 13.0001 23.1292 13.0001 23.1292C13.0001 23.1292 15.3206 21.0817 17.029 19.4892C18.5121 18.1058 23.8334 13.7269 23.8334 9.20833C23.8334 5.91717 21.1662 3.25 17.8751 3.25ZM16.0453 17.4525C15.8536 17.6258 15.6867 17.7764 15.5513 17.9032C14.7377 18.6615 13.7757 19.5314 13.0001 20.2269C12.2244 19.5314 11.2613 18.6604 10.4488 17.9032C10.3123 17.7764 10.1455 17.6248 9.95483 17.4525C8.4165 16.0626 4.33341 12.3706 4.33341 9.20833C4.33341 7.1175 6.03425 5.41667 8.12508 5.41667C10.1043 5.41667 11.2516 6.79792 11.2819 6.83367L13.0001 8.66667L14.7182 6.83367C14.7291 6.81958 15.8958 5.41667 17.8751 5.41667C19.9659 5.41667 21.6667 7.1175 21.6667 9.20833C21.6667 12.3706 17.5837 16.0626 16.0453 17.4525Z" fill="#35869E"/>
</svg>
