<svg width="31" height="29" viewBox="0 0 31 29" fill="none" xmlns="http://www.w3.org/2000/svg">
<path d="M21.9199 0.5C17.5774 0.5 15.1699 3.635 15.1699 3.635C15.1699 3.635 12.7624 0.5 8.41992 0.5C3.86292 0.5 0.169922 4.193 0.169922 8.75C0.169922 15.0065 7.53792 21.0695 9.59142 22.985C11.9569 25.19 15.1699 28.025 15.1699 28.025C15.1699 28.025 18.3829 25.19 20.7484 22.985C22.8019 21.0695 30.1699 15.0065 30.1699 8.75C30.1699 4.193 26.4769 0.5 21.9199 0.5ZM19.3864 20.165C19.1209 20.405 18.8899 20.6135 18.7024 20.789C17.5759 21.839 16.2439 23.0435 15.1699 24.0065C14.0959 23.0435 12.7624 21.8375 11.6374 20.789C11.4484 20.6135 11.2174 20.4035 10.9534 20.165C8.82342 18.2405 3.16992 13.1285 3.16992 8.75C3.16992 5.855 5.52492 3.5 8.41992 3.5C11.1604 3.5 12.7489 5.4125 12.7909 5.462L15.1699 8L17.5489 5.462C17.5639 5.4425 19.1794 3.5 21.9199 3.5C24.8149 3.5 27.1699 5.855 27.1699 8.75C27.1699 13.1285 21.5164 18.2405 19.3864 20.165Z" fill="#304358"/>
</svg>
