<svg width="31" height="25" viewBox="0 0 31 25" fill="none" xmlns="http://www.w3.org/2000/svg">
<g clip-path="url(#clip0_173_482)">
<g clip-path="url(#clip1_173_482)">
<g clip-path="url(#clip2_173_482)">
<path d="M30.3671 9.838C30.2673 9.838 30.1425 9.81346 30.0676 9.7644L15.9911 1.76636L1.91453 9.7644C1.63999 9.93613 1.24066 9.838 1.06595 9.54359C0.89124 9.24919 0.991073 8.88118 1.29057 8.70944L15.6666 0.539666C15.8663 0.441531 16.0909 0.441531 16.2906 0.539666L30.6666 8.70944C30.9661 8.88118 31.066 9.24919 30.8913 9.54359C30.7914 9.73986 30.5918 9.838 30.3671 9.838Z" fill="#1A1A1A"/>
<path d="M27.5474 25H18.3378C17.9884 25 17.7138 24.7301 17.7138 24.3867C17.7138 24.0432 17.9884 23.7733 18.3378 23.7733H26.9235V13.3955L15.9917 7.80176L5.05993 13.3955V23.7733H13.6456C13.995 23.7733 14.2696 24.0432 14.2696 24.3867C14.2696 24.7301 13.995 25 13.6456 25H4.43597C4.08655 25 3.81201 24.7301 3.81201 24.3867V13.0275C3.81201 12.8067 3.9368 12.5859 4.13647 12.4877L15.7171 6.57507C15.8919 6.47693 16.1165 6.47693 16.2912 6.57507L27.8469 12.4877C28.0466 12.5859 28.1714 12.8067 28.1714 13.0275V24.3867C28.1714 24.7301 27.8968 25 27.5474 25Z" fill="#1A1A1A"/>
<path d="M27.5469 8.24338C27.1974 8.24338 26.9229 7.9735 26.9229 7.63003V1.22669H22.8297V4.61237C22.8297 4.95584 22.5552 5.22571 22.2058 5.22571C21.8563 5.22571 21.5818 4.95584 21.5818 4.61237V0.613347C21.5818 0.269872 21.8563 0 22.2058 0H27.5469C27.8963 0 28.1708 0.269872 28.1708 0.613347V7.63003C28.1708 7.9735 27.8963 8.24338 27.5469 8.24338Z" fill="#1A1A1A"/>
<path d="M18.3372 25.0002C17.9877 25.0002 17.7132 24.7303 17.7132 24.3868V16.0944H14.2689V24.3868C14.2689 24.7303 13.9944 25.0002 13.645 25.0002C13.2956 25.0002 13.021 24.7303 13.021 24.3868V15.481C13.021 15.1375 13.2956 14.8677 13.645 14.8677H18.3372C18.6866 14.8677 18.9611 15.1375 18.9611 15.481V24.3868C18.9611 24.7303 18.6866 25.0002 18.3372 25.0002Z" fill="#1A1A1A"/>
</g>
</g>
</g>
<defs>
<clipPath id="clip0_173_482">
<rect width="30" height="25" fill="white" transform="translate(0.97998)"/>
</clipPath>
<clipPath id="clip1_173_482">
<rect width="30" height="25" fill="white" transform="translate(0.97998)"/>
</clipPath>
<clipPath id="clip2_173_482">
<rect width="30" height="25" fill="white" transform="translate(0.97998)"/>
</clipPath>
</defs>
</svg>
