<svg width="33" height="34" viewBox="0 0 33 34" fill="none" xmlns="http://www.w3.org/2000/svg">
<g clip-path="url(#clip0_173_2046)">
<path d="M27.2441 3.71109C26.9155 3.76359 26.6388 3.93859 26.414 4.27109L13.3399 21.4701L8.22098 16.3601C7.77999 15.6863 6.9326 15.6338 6.49161 16.08L4.48553 18.1101C4.04454 18.7838 4.04454 19.6938 4.48553 20.1401L12.2331 27.9802C12.6741 28.2077 13.2967 28.6802 13.9625 28.6802C14.4035 28.6802 15.1126 28.4439 15.5535 27.7702L29.9419 5.53102C30.3829 4.85726 30.1322 4.22725 29.2502 3.781L28.1434 3.78109C27.9186 3.66734 27.5727 3.65859 27.2441 3.71109Z" fill="white"/>
</g>
<defs>
<clipPath id="clip0_173_2046">
<rect width="32" height="32.99" fill="white" transform="translate(0.154785 0.685181)"/>
</clipPath>
</defs>
</svg>
