<svg width="49" height="49" viewBox="0 0 49 49" fill="none" xmlns="http://www.w3.org/2000/svg">
<g clip-path="url(#clip0_173_1358)">
<g clip-path="url(#clip1_173_1358)">
<g clip-path="url(#clip2_173_1358)">
<path d="M34.7033 15.3758V17.9138C34.7033 18.5078 34.2226 18.9918 33.6303 18.9918H31.0993C30.503 18.9918 30.0263 18.5078 30.0263 17.9138V15.3758C30.0263 14.7818 30.503 14.2998 31.0993 14.2998H33.6303C34.2226 14.2998 34.7033 14.7818 34.7033 15.3758ZM24.2324 30.1818C27.1962 30.1818 29.6035 27.7718 29.6035 24.7978C29.6035 21.8238 27.1962 19.4178 24.2324 19.4178C21.2666 19.4178 18.8653 21.8258 18.8653 24.7998C18.8653 27.7738 21.2666 30.1818 24.2324 30.1818ZM32.7308 23.5998C32.7866 23.9918 32.8225 24.3918 32.8225 24.7978C32.8225 29.5578 28.9772 33.4138 24.2324 33.4138C19.4876 33.4138 15.6422 29.5578 15.6422 24.7998C15.6422 24.3918 15.6781 23.9938 15.734 23.6018C15.7878 23.2138 15.8656 22.8358 15.9693 22.4678H13.7615V34.2258C13.7615 34.8198 14.2421 35.3018 14.8345 35.3018H33.6303C34.2226 35.3018 34.7033 34.8198 34.7033 34.2258V22.4678H32.4954C32.5952 22.8358 32.6749 23.2138 32.7308 23.5998ZM48.1659 24.7998C48.1659 38.0538 37.4497 48.7998 24.2324 48.7998C11.0151 48.7998 0.298828 38.0538 0.298828 24.7998C0.298828 11.5458 11.0151 0.799805 24.2324 0.799805C37.4497 0.799805 48.1659 11.5458 48.1659 24.7998ZM38.1936 14.0298C38.1936 12.2458 36.7516 10.7998 34.9726 10.7998H13.4922C11.7132 10.7998 10.2712 12.2458 10.2712 14.0298V35.5678C10.2712 37.3538 11.7132 38.7998 13.4922 38.7998H34.9726C36.7516 38.7998 38.1936 37.3538 38.1936 35.5678V14.0298Z" fill="#00CFFF"/>
</g>
</g>
</g>
<defs>
<clipPath id="clip0_173_1358">
<rect width="49" height="48" fill="white" transform="translate(0 0.799805)"/>
</clipPath>
<clipPath id="clip1_173_1358">
<rect width="49" height="48" fill="white" transform="translate(0 0.799805)"/>
</clipPath>
<clipPath id="clip2_173_1358">
<rect width="49" height="48" fill="white" transform="translate(0 0.799805)"/>
</clipPath>
</defs>
</svg>
