<svg width="14" height="16" viewBox="0 0 14 16" fill="none" xmlns="http://www.w3.org/2000/svg">
<g clip-path="url(#clip0_173_1957)">
<path d="M5.50016 14.6666C5.34461 14.6666 5.21127 14.6221 5.10016 14.5333C4.98905 14.4444 4.90572 14.3277 4.85016 14.1833C4.63905 13.561 4.37239 12.9777 4.05016 12.4333C3.73905 11.8888 3.30016 11.2499 2.7335 10.5166C2.16683 9.78325 1.70572 9.08325 1.35016 8.41658C1.00572 7.74992 0.833496 6.94436 0.833496 5.99992C0.833496 4.69992 1.2835 3.59992 2.1835 2.69992C3.09461 1.78881 4.20016 1.33325 5.50016 1.33325C6.80016 1.33325 7.90016 1.78881 8.80016 2.69992C9.71127 3.59992 10.1668 4.69992 10.1668 5.99992C10.1668 7.01103 9.97239 7.85547 9.5835 8.53325C9.20572 9.19992 8.76683 9.86103 8.26683 10.5166C7.66683 11.3166 7.21127 11.9833 6.90016 12.5166C6.60016 13.0388 6.35016 13.5944 6.15016 14.1833C6.09461 14.3388 6.00572 14.461 5.8835 14.5499C5.77239 14.6277 5.64461 14.6666 5.50016 14.6666ZM5.50016 7.66658C5.96683 7.66658 6.36127 7.50547 6.6835 7.18325C7.00572 6.86103 7.16683 6.46658 7.16683 5.99992C7.16683 5.53325 7.00572 5.13881 6.6835 4.81658C6.36127 4.49436 5.96683 4.33325 5.50016 4.33325C5.0335 4.33325 4.63905 4.49436 4.31683 4.81658C3.99461 5.13881 3.8335 5.53325 3.8335 5.99992C3.8335 6.46658 3.99461 6.86103 4.31683 7.18325C4.63905 7.50547 5.0335 7.66658 5.50016 7.66658Z" fill="#022935"/>
</g>
<defs>
<clipPath id="clip0_173_1957">
<rect width="13" height="16" fill="white"/>
</clipPath>
</defs>
</svg>
