<svg width="36" height="25" viewBox="0 0 36 25" fill="none" xmlns="http://www.w3.org/2000/svg">
<g clip-path="url(#clip0_173_455)">
<g clip-path="url(#clip1_173_455)">
<g clip-path="url(#clip2_173_455)">
<path d="M18.5219 13.1676C15.9675 13.1676 13.8795 11.0518 13.8795 8.46343V4.70419C13.8592 2.11586 15.9473 0 18.5219 0C21.0762 0 23.1643 2.11586 23.1643 4.70419V8.46343C23.1643 11.0723 21.0762 13.1676 18.5219 13.1676ZM18.5219 1.02712C16.5149 1.02712 14.8931 2.6705 14.8931 4.70419V8.46343C14.8931 10.4971 16.5149 12.1405 18.5219 12.1405C20.5289 12.1405 22.1507 10.4971 22.1507 8.46343V4.70419C22.1507 2.6705 20.5289 1.02712 18.5219 1.02712Z" fill="#092934"/>
<path d="M23.6308 25H13.1905C11.3659 25 9.86572 23.5004 9.86572 21.6311V17.7486C9.86572 16.9885 10.332 16.2284 11.2646 15.4889C12.0146 14.8932 12.9066 14.4618 13.9203 14.1742L17.1436 13.2498C17.4071 13.1676 17.691 13.332 17.772 13.599C17.8531 13.8661 17.691 14.1537 17.4274 14.2358L14.1838 15.1602C13.3121 15.4067 12.5417 15.797 11.893 16.3106C11.4267 16.6804 10.8794 17.2145 10.8794 17.7486V21.6311C10.8794 22.9252 11.9133 23.9729 13.1905 23.9729H23.6308C24.908 23.9729 25.9419 22.9252 25.9419 21.6311V17.7486C25.9419 17.2145 25.3945 16.6598 24.9485 16.2901C24.2998 15.7765 23.5294 15.3862 22.6577 15.1397L19.4952 14.2564C19.2114 14.1947 19.0695 13.9072 19.1303 13.6401C19.2114 13.3525 19.4952 13.1882 19.7588 13.2703L22.901 14.1537C23.9146 14.4413 24.8066 14.8932 25.5567 15.4889C26.469 16.2284 26.9555 16.9885 26.9555 17.7486V21.6311C26.9352 23.4799 25.4553 25 23.6308 25Z" fill="#092934"/>
<path d="M17.2857 14.2562C17.0018 14.2562 16.7788 14.0303 16.7788 13.7427V12.6745C16.7788 12.3869 17.0018 12.1609 17.2857 12.1609C17.5695 12.1609 17.7925 12.3869 17.7925 12.6745V13.7427C17.7925 14.0303 17.5695 14.2562 17.2857 14.2562Z" fill="#092934"/>
<path d="M19.6172 14.2768C19.3334 14.2768 19.1104 14.0508 19.1104 13.7632V12.6745C19.1104 12.3869 19.3334 12.1609 19.6172 12.1609C19.9011 12.1609 20.1241 12.3869 20.1241 12.6745V13.7632C20.1241 14.0508 19.9011 14.2768 19.6172 14.2768Z" fill="#092934"/>
<path d="M18.4004 18.6321C16.7786 18.6321 15.4609 16.886 15.4609 14.7496C15.4609 14.503 15.4811 14.2565 15.5014 14.0306C15.5622 13.743 15.8055 13.5581 16.0893 13.5992C16.3731 13.6403 16.5556 13.8868 16.515 14.1744C16.4948 14.3592 16.4745 14.5441 16.4745 14.7496C16.4745 16.2902 17.3462 17.6049 18.4004 17.6049C19.4343 17.6049 20.3263 16.2902 20.3263 14.7496C20.3263 14.5647 20.306 14.3592 20.2857 14.1744C20.2452 13.8868 20.4479 13.6403 20.7115 13.5992C20.9953 13.5581 21.2588 13.743 21.2994 14.0306C21.3399 14.2565 21.3399 14.503 21.3399 14.7496C21.3399 16.886 20.0222 18.6321 18.4004 18.6321Z" fill="#092934"/>
<path d="M20.0426 5.27951C19.5966 5.27951 19.1912 5.19734 18.7857 5.01246C18.2992 4.7865 17.9951 4.45782 17.7518 4.19077C17.4883 3.90318 17.3261 3.73884 17.0625 3.67721C16.4746 3.55396 15.684 4.02643 14.7515 5.033C14.569 5.23843 14.2447 5.25897 14.0419 5.05355C13.8392 4.86867 13.8189 4.53999 14.0217 4.33457C15.2583 2.99932 16.3327 2.44467 17.3261 2.67064C17.8937 2.79389 18.2181 3.16365 18.5222 3.47179C18.7046 3.69775 18.9073 3.92372 19.2114 4.06752C19.7385 4.31402 20.5697 4.47836 22.3334 3.45125C22.5767 3.30745 22.8808 3.38962 23.0227 3.63613C23.1646 3.88263 23.0835 4.19077 22.8402 4.33457C21.7658 4.97138 20.8535 5.27951 20.0426 5.27951Z" fill="#092934"/>
<path d="M28.2721 11.8324C25.961 11.8324 24.0757 9.92194 24.0757 7.58011V4.25226C24.0757 1.91044 25.961 0 28.2721 0C30.5832 0 32.4685 1.91044 32.4685 4.25226V7.60066C32.4685 9.94248 30.5832 11.8324 28.2721 11.8324ZM28.2721 1.02712C26.5084 1.02712 25.0893 2.46508 25.0893 4.25226V7.60066C25.0893 9.38784 26.5084 10.8258 28.2721 10.8258C30.0358 10.8258 31.4549 9.38784 31.4549 7.60066V4.25226C31.4549 2.46508 30.0155 1.02712 28.2721 1.02712Z" fill="#092934"/>
<path d="M21.8462 14.9342C21.7043 14.9342 21.5624 14.8726 21.461 14.7699C21.2786 14.5645 21.2989 14.2358 21.5016 14.0509C21.5827 13.9687 21.6839 13.8866 21.765 13.8249C22.434 13.2908 23.245 12.88 24.137 12.6335L27.0157 11.8118C27.2793 11.7296 27.5631 11.894 27.6442 12.161C27.7253 12.4281 27.5631 12.7157 27.2995 12.7978L24.4208 13.6195C23.6505 13.8455 22.9612 14.1742 22.3936 14.6261C22.3125 14.6877 22.2517 14.7493 22.1706 14.811C22.0895 14.8931 21.9679 14.9342 21.8462 14.9342Z" fill="#092934"/>
<path d="M32.814 22.3705H26.4282C26.1444 22.3705 25.9214 22.1446 25.9214 21.857C25.9214 21.5694 26.1444 21.3434 26.4282 21.3434H32.814C33.9088 21.3434 34.821 20.4396 34.821 19.3097V15.8586C34.821 15.5094 34.5169 15.0575 33.9493 14.6055C33.3817 14.1536 32.6924 13.8044 31.9221 13.599L29.1244 12.7978C28.8609 12.7157 28.6987 12.4281 28.7798 12.161C28.8609 11.894 29.1244 11.7296 29.4083 11.8118L32.2059 12.6129C33.1181 12.88 33.9088 13.2703 34.5778 13.8044C35.4089 14.4617 35.8347 15.1602 35.8347 15.8586V19.3097C35.8347 20.9942 34.4764 22.3705 32.814 22.3705Z" fill="#092934"/>
<path d="M27.1773 12.798C26.8934 12.798 26.6704 12.572 26.6704 12.2844V11.319C26.6704 11.0314 26.8934 10.8054 27.1773 10.8054C27.4611 10.8054 27.6841 11.0314 27.6841 11.319V12.2844C27.6841 12.572 27.4408 12.798 27.1773 12.798Z" fill="#092934"/>
<path d="M29.2666 12.8185C28.9828 12.8185 28.7598 12.5926 28.7598 12.305V11.319C28.7598 11.0314 28.9828 10.8054 29.2666 10.8054C29.5504 10.8054 29.7734 11.0314 29.7734 11.319V12.305C29.7734 12.5926 29.5302 12.8185 29.2666 12.8185Z" fill="#092934"/>
<path d="M28.17 16.7009C26.6902 16.7009 25.4941 15.1192 25.4941 13.1882C25.4941 12.9622 25.5143 12.7568 25.5346 12.5308C25.5752 12.2432 25.8387 12.0584 26.1023 12.0994C26.3861 12.1405 26.5685 12.4076 26.528 12.6746C26.5077 12.839 26.4874 13.0033 26.4874 13.1676C26.4874 14.5234 27.2375 15.6533 28.1498 15.6533C29.0418 15.6533 29.8121 14.5234 29.8121 13.1676C29.8121 13.0033 29.7919 12.8184 29.7716 12.6746C29.731 12.387 29.9338 12.1405 30.1973 12.0994C30.4811 12.0584 30.7244 12.2638 30.7649 12.5308C30.7852 12.7363 30.8055 12.9622 30.8055 13.1882C30.846 15.1192 29.6499 16.7009 28.17 16.7009Z" fill="#092934"/>
<path d="M29.6302 4.80689C29.2248 4.80689 28.8599 4.72472 28.495 4.56038C28.049 4.35496 27.7854 4.06737 27.5624 3.82086C27.3394 3.57435 27.1975 3.4511 26.9745 3.38947C26.4677 3.26622 25.7784 3.67706 24.9473 4.58092C24.7648 4.78635 24.4405 4.80689 24.2377 4.60147C24.035 4.41659 24.0147 4.08791 24.2175 3.88248C25.3122 2.67049 26.2853 2.17747 27.1975 2.3829C27.7246 2.50615 28.0287 2.81428 28.2922 3.10188C28.495 3.3073 28.6571 3.49218 28.9207 3.61543C29.387 3.82086 30.1168 3.96465 31.6372 3.08133C31.8805 2.93754 32.1846 3.01971 32.3265 3.26622C32.4684 3.51272 32.3873 3.82086 32.144 3.96465C31.1709 4.53984 30.36 4.80689 29.6302 4.80689Z" fill="#092934"/>
<path d="M8.72913 11.8324C6.41806 11.8324 4.53271 9.92194 4.53271 7.58011V4.25226C4.53271 1.91044 6.41806 0 8.72913 0C11.0402 0 12.9256 1.91044 12.9256 4.25226V7.60066C12.9256 9.94248 11.0402 11.8324 8.72913 11.8324ZM8.72913 1.02712C6.96542 1.02712 5.54634 2.46508 5.54634 4.25226V7.60066C5.54634 9.38784 6.96542 10.8258 8.72913 10.8258C10.4928 10.8258 11.912 9.38784 11.912 7.60066V4.25226C11.912 2.46508 10.4928 1.02712 8.72913 1.02712Z" fill="#092934"/>
<path d="M10.371 22.3706H3.98519C2.34312 22.3706 0.984863 20.9943 0.984863 19.3098V15.8587C0.984863 15.1602 1.41059 14.4618 2.24176 13.8044C2.91075 13.2703 3.72165 12.8595 4.61364 12.613L7.49234 11.7913C7.77616 11.7091 8.0397 11.8735 8.12079 12.1405C8.20188 12.4076 8.0397 12.6952 7.77616 12.7773L4.89746 13.599C4.1271 13.825 3.43784 14.1537 2.87021 14.6056C2.30257 15.0575 1.99849 15.5095 1.99849 15.8587V19.3098C1.99849 20.4191 2.89048 21.3435 4.00547 21.3435H10.3913C10.6751 21.3435 10.8981 21.5694 10.8981 21.857C10.8779 22.1241 10.6549 22.3706 10.371 22.3706Z" fill="#092934"/>
<path d="M14.9334 14.8931C14.8117 14.8931 14.6901 14.852 14.609 14.7699C14.5279 14.7082 14.4671 14.6672 14.4063 14.6055C13.8387 14.1536 13.1494 13.8249 12.379 13.599L9.58143 12.7978C9.31788 12.7362 9.15571 12.4486 9.2368 12.1815C9.31789 11.9145 9.58143 11.7501 9.86524 11.8323L12.6629 12.6335C13.5548 12.8594 14.3657 13.2703 15.0347 13.8044C15.1158 13.866 15.1969 13.9276 15.2577 13.9893C15.4605 14.1741 15.4807 14.5028 15.2983 14.7082C15.2172 14.8315 15.0753 14.8931 14.9334 14.8931Z" fill="#092934"/>
<path d="M7.63377 12.798C7.34995 12.798 7.12695 12.572 7.12695 12.2844V11.319C7.12695 11.0314 7.34995 10.8054 7.63377 10.8054C7.91758 10.8054 8.14058 11.0314 8.14058 11.319V12.2844C8.14058 12.572 7.91758 12.798 7.63377 12.798Z" fill="#092934"/>
<path d="M9.72312 12.8185C9.4393 12.8185 9.21631 12.5926 9.21631 12.305V11.319C9.21631 11.0314 9.4393 10.8054 9.72312 10.8054C10.0069 10.8054 10.2299 11.0314 10.2299 11.319V12.305C10.2299 12.5926 10.0069 12.8185 9.72312 12.8185Z" fill="#092934"/>
<path d="M8.62714 16.701C7.14725 16.701 5.95117 15.1192 5.95117 13.1882C5.95117 12.9623 5.97144 12.7568 5.99171 12.5309C6.05253 12.2638 6.31607 12.0584 6.57962 12.0995C6.86343 12.1406 7.04589 12.4076 7.00534 12.6747C6.98507 12.839 6.98507 13.0033 6.98507 13.1882C6.98507 14.544 7.73515 15.6739 8.64742 15.6739C9.53941 15.6739 10.3098 14.544 10.3098 13.1882C10.3098 13.0239 10.2895 12.8596 10.2692 12.6952C10.2287 12.4076 10.4111 12.1406 10.6949 12.0995C10.9788 12.0584 11.2221 12.2638 11.2626 12.5309C11.2829 12.7363 11.3032 12.9623 11.3032 13.1882C11.3032 15.1192 10.107 16.701 8.62714 16.701Z" fill="#092934"/>
<path d="M10.0873 4.80689C9.68182 4.80689 9.31692 4.72472 8.95201 4.56038C8.50602 4.35496 8.24248 4.06737 8.01948 3.82086C7.77621 3.57435 7.65457 3.4511 7.43157 3.38947C6.92476 3.26622 6.2355 3.67706 5.40432 4.58092C5.22187 4.78635 4.89751 4.80689 4.69478 4.60147C4.49206 4.41659 4.47179 4.08791 4.67451 3.88248C5.7895 2.67049 6.76258 2.17747 7.65457 2.3829C8.18166 2.50615 8.48575 2.83483 8.74929 3.12242C8.95201 3.32784 9.11419 3.51272 9.37774 3.63598C9.84401 3.8414 10.5738 3.9852 12.0943 3.10188C12.3376 2.93754 12.6619 3.01971 12.7836 3.26622C12.9255 3.51272 12.8444 3.82086 12.6011 3.96465C11.6483 4.53984 10.8171 4.80689 10.0873 4.80689Z" fill="#092934"/>
</g>
</g>
</g>
<defs>
<clipPath id="clip0_173_455">
<rect width="35" height="25" fill="white" transform="translate(0.984863)"/>
</clipPath>
<clipPath id="clip1_173_455">
<rect width="35" height="25" fill="white" transform="translate(0.984863)"/>
</clipPath>
<clipPath id="clip2_173_455">
<rect width="35" height="25" fill="white" transform="translate(0.984863)"/>
</clipPath>
</defs>
</svg>
