<svg width="26" height="25" viewBox="0 0 26 25" fill="none" xmlns="http://www.w3.org/2000/svg">
<g clip-path="url(#clip0_173_410)">
<g clip-path="url(#clip1_173_410)">
<g clip-path="url(#clip2_173_410)">
<path d="M20.815 6.04071C20.3648 6.04071 19.9335 5.87367 19.6147 5.55815C19.2958 5.24264 19.127 4.81576 19.127 4.37033C19.127 3.92489 19.2958 3.49802 19.6147 3.1825C20.2523 2.55147 21.3588 2.55147 21.9965 3.1825C22.6529 3.8321 22.6529 4.89 21.9965 5.53959C21.6964 5.87367 21.2651 6.04071 20.815 6.04071ZM20.815 3.6465C20.6087 3.6465 20.4211 3.72074 20.2898 3.86922C20.1398 4.01769 20.0648 4.20329 20.0648 4.38889C20.0648 4.59305 20.1398 4.77864 20.2898 4.90856C20.5711 5.18696 21.0588 5.18696 21.3588 4.90856C21.6589 4.61161 21.6589 4.14761 21.3588 3.85066C21.2088 3.72074 21.0213 3.6465 20.815 3.6465Z" fill="#092934"/>
<path d="M8.64279 24.9919C8.24894 24.9919 7.85509 24.8434 7.53626 24.5279L0.465742 17.5123C0.184422 17.2339 0.0156301 16.8813 -0.00312456 16.5101C-0.0218792 16.1204 0.109403 15.7492 0.390724 15.4708L13.3877 2.60884C13.8753 2.12629 14.4755 1.79221 15.1506 1.64374L21.7898 0.0847166C22.7275 -0.138 23.609 0.0847167 24.2467 0.678629C24.8656 1.27254 25.1281 2.14485 24.9406 3.05428L23.5715 9.90283C23.4215 10.6267 23.0839 11.2763 22.5588 11.7774L9.61803 24.5836C9.35547 24.862 8.99913 24.9919 8.64279 24.9919ZM21.9961 0.975585L15.3569 2.53461C14.8506 2.64596 14.4005 2.9058 14.0441 3.25844L1.04714 16.1203C0.93461 16.2317 0.93461 16.3802 0.93461 16.4544C0.93461 16.6029 1.00963 16.7514 1.12216 16.8627L8.19268 23.8598C8.41773 24.0825 8.75532 24.1196 8.94287 23.934L21.8836 11.1278C22.2774 10.738 22.54 10.2555 22.6338 9.71723L24.0029 2.86868C24.1154 2.27477 23.9654 1.69942 23.5715 1.32822C23.1964 0.957026 22.615 0.827107 21.9961 0.975585Z" fill="#092934"/>
<path d="M6.03643 19.2739C5.62383 19.2739 5.24873 19.1255 4.96741 18.8285L4.53606 18.4202C4.25474 18.1418 4.08594 17.7706 4.08594 17.3623C4.08594 16.954 4.23598 16.5828 4.53606 16.2858L5.60507 15.2279C6.18647 14.6525 7.18047 14.6525 7.76186 15.2279C7.94941 15.4135 7.94941 15.7105 7.76186 15.8775C7.57432 16.0631 7.27424 16.0631 7.10545 15.8775C6.88039 15.6548 6.48654 15.6548 6.28024 15.8775L5.19247 16.954C5.07994 17.0653 5.02368 17.1952 5.02368 17.3623C5.02368 17.5108 5.07994 17.6592 5.19247 17.7706L5.62383 18.1789C5.84888 18.4016 6.24273 18.4016 6.44903 18.1789L7.51805 17.121C7.7056 16.9354 8.00567 16.9354 8.17447 17.121C8.36201 17.3066 8.36201 17.6036 8.17447 17.7706L7.10545 18.8285C6.82413 19.1255 6.43028 19.2739 6.03643 19.2739Z" fill="#092934"/>
<path d="M7.94893 21.167C7.53633 21.167 7.16124 21.0185 6.87992 20.7216C6.69237 20.536 6.69237 20.239 6.87992 20.072C7.06746 19.8864 7.36754 19.8864 7.53633 20.072C7.76139 20.2947 8.15524 20.2947 8.36154 20.072L9.43056 19.0141C9.65561 18.7914 9.65561 18.4202 9.43056 18.1975L8.9992 17.7891C8.77414 17.5664 8.38029 17.5664 8.17399 17.7891C7.98644 17.9747 7.68637 17.9747 7.51758 17.7891C7.33003 17.6035 7.33003 17.3066 7.51758 17.1395C8.09897 16.5642 9.09297 16.5642 9.67437 17.1395L10.087 17.5479C10.6872 18.1418 10.6872 19.0883 10.087 19.6822L9.01795 20.7401C8.73663 21.0185 8.34278 21.167 7.94893 21.167Z" fill="#092934"/>
<path d="M11.3997 18.1789C11.2872 18.1789 11.1559 18.1418 11.0621 18.049L8.38015 15.3764C7.46117 14.4669 7.46117 13.0007 8.38015 12.1098L8.51143 11.9799C9.43041 11.0705 10.9121 11.0705 11.8123 11.9799L14.513 14.6525C14.7005 14.8381 14.7005 15.1351 14.513 15.3021C14.3254 15.4692 14.0253 15.4877 13.8565 15.3021L11.1746 12.611C10.6307 12.0727 9.73049 12.0727 9.1866 12.611L9.05532 12.7594C8.51143 13.2977 8.51143 14.1885 9.05532 14.7268L11.756 17.3994C11.9436 17.585 11.9436 17.8819 11.756 18.049C11.6435 18.1418 11.531 18.1789 11.3997 18.1789Z" fill="#092934"/>
<path d="M9.5427 16.3228C9.43017 16.3228 9.29889 16.2857 9.20512 16.1929C9.01757 16.0073 9.01757 15.7103 9.20512 15.5433L11.9996 12.7779C12.1871 12.5923 12.4872 12.5923 12.656 12.7779C12.8435 12.9635 12.8435 13.2604 12.656 13.4275L9.86152 16.1929C9.78651 16.2857 9.65522 16.3228 9.5427 16.3228Z" fill="#092934"/>
<path d="M15.1709 14.4669C15.0396 14.4669 14.9271 14.4112 14.8333 14.337L10.8198 10.3467C10.6323 10.1611 10.6323 9.8641 10.8198 9.69706C11.0073 9.51146 11.3074 9.51146 11.4762 9.69706L15.1709 13.3348L16.8401 11.683C17.0276 11.4974 17.3277 11.4974 17.4965 11.683C17.684 11.8686 17.684 12.1655 17.4965 12.3325L15.4897 14.3184C15.4147 14.4112 15.2834 14.4669 15.1709 14.4669Z" fill="#092934"/>
<path d="M18.021 11.6459C17.9085 11.6459 17.7772 11.6088 17.6834 11.516L13.6699 7.52564C13.4824 7.34005 13.4824 7.04309 13.6699 6.87605L15.6204 4.94584C15.808 4.76024 16.108 4.76024 16.2768 4.94584C16.4644 5.13143 16.4644 5.42839 16.2768 5.59543L14.6639 7.21013L18.021 10.5323L19.6527 8.91763C19.8402 8.73203 20.1403 8.73203 20.3091 8.91763C20.4779 9.10322 20.4966 9.40018 20.3091 9.56722L18.3399 11.4974C18.2461 11.5902 18.1336 11.6459 18.021 11.6459Z" fill="#092934"/>
<path d="M16.0148 9.65996C15.9023 9.65996 15.771 9.62284 15.6772 9.53005C15.4897 9.34445 15.4897 9.04749 15.6772 8.88045L17.6277 6.93168C17.8153 6.74608 18.1153 6.74608 18.2841 6.93168C18.4717 7.11728 18.4717 7.41423 18.2841 7.58127L16.3336 9.51149C16.2399 9.60429 16.1273 9.65996 16.0148 9.65996Z" fill="#092934"/>
</g>
</g>
</g>
<defs>
<clipPath id="clip0_173_410">
<rect width="26" height="25" fill="white" transform="translate(-0.00488281)"/>
</clipPath>
<clipPath id="clip1_173_410">
<rect width="26" height="25" fill="white" transform="translate(-0.00488281)"/>
</clipPath>
<clipPath id="clip2_173_410">
<rect width="26" height="25" fill="white" transform="translate(-0.00488281)"/>
</clipPath>
</defs>
</svg>
