<svg width="21" height="21" viewBox="0 0 21 21" fill="none" xmlns="http://www.w3.org/2000/svg">
<g clip-path="url(#clip0_173_554)">
<path d="M15.2002 2.4668C13.8294 2.4668 12.7002 3.59595 12.7002 4.9668C12.7002 5.12592 12.7184 5.28106 12.7474 5.43229L6.80176 8.90071C6.36565 8.53167 5.81026 8.30013 5.2002 8.30013C3.82936 8.30013 2.7002 9.42929 2.7002 10.8001C2.7002 12.171 3.82936 13.3002 5.2002 13.3002C5.81026 13.3002 6.36565 13.0686 6.80176 12.6996L12.7474 16.1664C12.7182 16.3181 12.7002 16.4738 12.7002 16.6335C12.7002 18.0043 13.8294 19.1335 15.2002 19.1335C16.571 19.1335 17.7002 18.0043 17.7002 16.6335C17.7002 15.2626 16.571 14.1335 15.2002 14.1335C14.5898 14.1335 14.0349 14.3663 13.5986 14.7357L7.653 11.2657C7.68203 11.1144 7.7002 10.9593 7.7002 10.8001C7.7002 10.641 7.68203 10.4859 7.653 10.3346L13.5986 6.86621C14.0347 7.23525 14.5901 7.4668 15.2002 7.4668C16.571 7.4668 17.7002 6.33764 17.7002 4.9668C17.7002 3.59595 16.571 2.4668 15.2002 2.4668ZM15.2002 4.13346C15.6703 4.13346 16.0335 4.49669 16.0335 4.9668C16.0335 5.4369 15.6703 5.80013 15.2002 5.80013C14.7301 5.80013 14.3669 5.4369 14.3669 4.9668C14.3669 4.49669 14.7301 4.13346 15.2002 4.13346ZM5.2002 9.96679C5.67031 9.96679 6.03353 10.33 6.03353 10.8001C6.03353 11.2703 5.67031 11.6335 5.2002 11.6335C4.73009 11.6335 4.36687 11.2703 4.36687 10.8001C4.36687 10.33 4.73009 9.96679 5.2002 9.96679ZM15.2002 15.8002C15.6703 15.8002 16.0335 16.1634 16.0335 16.6335C16.0335 17.1036 15.6703 17.4668 15.2002 17.4668C14.7301 17.4668 14.3669 17.1036 14.3669 16.6335C14.3669 16.1634 14.7301 15.8002 15.2002 15.8002Z" fill="#022935"/>
</g>
<defs>
<clipPath id="clip0_173_554">
<rect width="20" height="20" fill="white" transform="translate(0.200195 0.800049)"/>
</clipPath>
</defs>
</svg>
