<svg width="66" height="31" viewBox="0 0 66 31" fill="none" xmlns="http://www.w3.org/2000/svg">
<g clip-path="url(#clip0_173_426)">
<g clip-path="url(#clip1_173_426)">
<g clip-path="url(#clip2_173_426)">
<mask id="mask0_173_426" style="mask-type:luminance" maskUnits="userSpaceOnUse" x="-1" y="0" width="67" height="17">
<path d="M65.9272 0H-0.00976562V16.2209H65.9272V0Z" fill="white"/>
</mask>
<g mask="url(#mask0_173_426)">
<path d="M17.3203 5.74756H23.9983V6.99757H21.3755V14.0108H19.9314V6.99757H17.3203V5.74756ZM23.7096 8.02719H24.9459V9.18449H24.9692C25.0076 9.02241 25.0827 8.86441 25.1944 8.70991C25.3062 8.55541 25.4407 8.4149 25.599 8.28722C25.7567 8.16012 25.9319 8.05751 26.1246 7.98055C26.3172 7.90359 26.5134 7.86511 26.7136 7.86511C26.8679 7.86511 26.9738 7.86919 27.0314 7.87677C27.0891 7.88435 27.149 7.89251 27.2107 7.90009V9.17283C27.1182 9.15768 27.0239 9.14368 26.9278 9.13202C26.8312 9.12036 26.7369 9.11453 26.6449 9.11453C26.4214 9.11453 26.2119 9.15884 26.0152 9.24746C25.819 9.33608 25.6473 9.46726 25.5012 9.641C25.3545 9.81474 25.2393 10.0287 25.1543 10.2835C25.0693 10.5383 25.0274 10.8315 25.0274 11.1633V14.0102H23.7102L23.7096 8.02719ZM33.2548 14.0108H31.9609V13.1776H31.9376C31.7758 13.4785 31.5348 13.7198 31.2153 13.9012C30.8957 14.0825 30.5704 14.1734 30.2392 14.1734C29.4534 14.1734 28.8853 13.9787 28.5349 13.5893C28.1845 13.1998 28.0093 12.6115 28.0093 11.8244V8.02835H29.3265V11.6968C29.3265 12.2215 29.4266 12.5917 29.6268 12.808C29.8271 13.0243 30.1082 13.1322 30.4702 13.1322C30.7473 13.1322 30.9784 13.0896 31.1635 13.0051C31.3486 12.9205 31.4988 12.8062 31.614 12.6634C31.7298 12.5206 31.8125 12.3492 31.8625 12.1486C31.9126 11.948 31.9376 11.7317 31.9376 11.5003V8.02835H33.2548V14.0108ZM35.4964 12.0897C35.5348 12.4757 35.6814 12.7456 35.9352 12.9001C36.1896 13.0546 36.4934 13.1316 36.8479 13.1316C36.9713 13.1316 37.1116 13.1222 37.2699 13.1024C37.4276 13.0832 37.5761 13.0465 37.7146 12.9922C37.8531 12.9386 37.9666 12.8593 38.0557 12.7549C38.1441 12.6506 38.1843 12.5142 38.1767 12.3439C38.1692 12.1742 38.1075 12.0355 37.9916 11.927C37.8758 11.8192 37.7274 11.7323 37.5469 11.6664C37.3659 11.6011 37.1599 11.5452 36.9288 11.4985C36.6977 11.4525 36.4626 11.4023 36.2239 11.3481C35.9771 11.2945 35.7402 11.2286 35.5132 11.151C35.2862 11.0741 35.0819 10.9697 34.9009 10.8385C34.7199 10.7074 34.5755 10.5394 34.4678 10.3354C34.3602 10.1313 34.306 9.87829 34.306 9.57745C34.306 9.25329 34.3852 8.9816 34.5429 8.7618C34.7007 8.542 34.9009 8.36476 35.1436 8.2295C35.3863 8.09482 35.6558 7.99979 35.9521 7.94615C36.2484 7.89251 36.5318 7.86511 36.8013 7.86511C37.1092 7.86511 37.4038 7.89776 37.6855 7.96364C37.9666 8.02952 38.221 8.13563 38.448 8.28197C38.675 8.42889 38.8642 8.61954 39.0143 8.85508C39.1645 9.09063 39.2588 9.37398 39.2972 9.70572H37.9224C37.8607 9.38972 37.7163 9.1775 37.4893 9.06906C37.2617 8.9612 37.0021 8.90697 36.7094 8.90697C36.6168 8.90697 36.5074 8.91455 36.3799 8.93029C36.253 8.94604 36.1331 8.97461 36.0219 9.01717C35.9102 9.05973 35.8159 9.12153 35.7391 9.20257C35.6622 9.28361 35.6232 9.38972 35.6232 9.5209C35.6232 9.68298 35.6791 9.81416 35.7909 9.91444C35.9026 10.0147 36.0487 10.0975 36.2297 10.1634C36.4108 10.2293 36.6168 10.2847 36.8479 10.3313C37.079 10.3774 37.3176 10.4281 37.5644 10.4817C37.8031 10.5359 38.0382 10.6012 38.2693 10.6782C38.5004 10.7552 38.7064 10.8595 38.8874 10.9907C39.0685 11.1219 39.2146 11.2881 39.3263 11.4886C39.4381 11.6892 39.4939 11.9364 39.4939 12.2291C39.4939 12.5841 39.413 12.885 39.2512 13.1316C39.0894 13.3788 38.8793 13.5793 38.6214 13.7333C38.3636 13.8878 38.0766 13.9997 37.7606 14.0691C37.4445 14.1385 37.1325 14.1734 36.8246 14.1734C36.4469 14.1734 36.0988 14.1309 35.7792 14.0463C35.4597 13.9612 35.182 13.8324 34.9475 13.6586C34.7123 13.4849 34.5278 13.2692 34.3928 13.0103C34.2577 12.752 34.1867 12.4454 34.1791 12.0903L35.4964 12.0897ZM39.8403 8.02719H40.8339V6.23322H42.1511V8.02719H43.3414V9.01075H42.1511V12.2051C42.1511 12.3439 42.1569 12.464 42.1685 12.5637C42.1802 12.664 42.2069 12.7491 42.2494 12.8185C42.2919 12.8879 42.3554 12.9398 42.4403 12.9747C42.5247 13.0097 42.6406 13.0266 42.7867 13.0266C42.8792 13.0266 42.9718 13.0249 43.0637 13.0208C43.1563 13.0167 43.2488 13.0033 43.3408 12.9806V13.9991C43.1941 14.0143 43.0521 14.03 42.9136 14.0452C42.775 14.0603 42.6324 14.0685 42.4863 14.0685C42.1394 14.0685 41.8606 14.0358 41.6487 13.97C41.4369 13.9047 41.271 13.8079 41.1517 13.6808C41.0323 13.5537 40.9514 13.3934 40.9089 13.2004C40.8664 13.0074 40.8414 12.7876 40.8339 12.541V9.01134H39.8403V8.02719ZM44.2657 8.02719H45.5136V8.83701H45.5369C45.722 8.49011 45.9799 8.24116 46.311 8.09074C46.6422 7.94032 47.0002 7.86511 47.3855 7.86511C47.8553 7.86511 48.2656 7.9479 48.616 8.11406C48.9664 8.28022 49.2574 8.5076 49.4885 8.79678C49.7196 9.08596 49.8931 9.42353 50.0083 9.8095C50.1235 10.1955 50.1818 10.6082 50.1818 11.0478C50.1818 11.449 50.1299 11.839 50.0258 12.2168C49.9216 12.5952 49.7638 12.9287 49.552 13.2179C49.3401 13.507 49.0723 13.7385 48.7487 13.9122C48.4251 14.086 48.0438 14.1729 47.605 14.1729C47.4123 14.1729 47.2196 14.1554 47.0276 14.121C46.8349 14.086 46.6498 14.03 46.4729 13.9531C46.2953 13.8761 46.1318 13.7776 45.9816 13.658C45.8314 13.5385 45.7063 13.3974 45.6062 13.2354H45.5829V16.221H44.2657V8.02719ZM48.864 11.0251C48.864 10.7552 48.829 10.4928 48.7598 10.238C48.6905 9.98324 48.5863 9.75761 48.4478 9.56113C48.3093 9.36465 48.1358 9.20665 47.928 9.08655C47.7202 8.96703 47.481 8.90697 47.2115 8.90697C46.6568 8.90697 46.2389 9.09996 45.9577 9.48534C45.6766 9.8713 45.5357 10.3844 45.5357 11.0245C45.5357 11.3254 45.5724 11.6052 45.6458 11.8635C45.7191 12.1218 45.8285 12.3439 45.9752 12.5287C46.1213 12.7141 46.2965 12.8605 46.5008 12.9683C46.7045 13.0768 46.9414 13.1304 47.2115 13.1304C47.5118 13.1304 47.7662 13.0686 47.974 12.945C48.1818 12.8214 48.3535 12.6617 48.488 12.4646C48.6224 12.2675 48.719 12.0442 48.7767 11.7935C48.8349 11.544 48.864 11.2875 48.864 11.0251ZM51.1864 5.74756H52.5036V6.99757H51.1864V5.74756ZM51.1864 8.02719H52.5036V14.0102H51.1864V8.02719ZM53.6805 5.74756H54.9977V14.0108H53.6805V5.74756ZM59.0297 14.1729C58.5518 14.1729 58.1263 14.0936 57.7532 13.9356C57.3795 13.7776 57.064 13.5595 56.8056 13.282C56.5472 13.0045 56.351 12.6727 56.2166 12.2868C56.0815 11.9008 56.0146 11.4764 56.0146 11.014C56.0146 10.5587 56.0821 10.1383 56.2166 9.75236C56.351 9.3664 56.5478 9.03466 56.8056 8.75714C57.0635 8.47962 57.3795 8.26156 57.7532 8.10356C58.1269 7.94557 58.5524 7.86627 59.0297 7.86627C59.507 7.86627 59.9324 7.94557 60.3061 8.10356C60.6798 8.26156 60.9953 8.47962 61.2537 8.75714C61.5116 9.03466 61.7083 9.36698 61.8428 9.75236C61.9772 10.1383 62.0447 10.5587 62.0447 11.014C62.0447 11.477 61.9772 11.9014 61.8428 12.2868C61.7077 12.6727 61.5116 13.0045 61.2537 13.282C60.9953 13.5595 60.6798 13.7776 60.3061 13.9356C59.933 14.0936 59.5075 14.1729 59.0297 14.1729ZM59.0297 13.131C59.3224 13.131 59.5768 13.0692 59.7922 12.9456C60.0075 12.822 60.1851 12.6605 60.3236 12.4593C60.4621 12.2588 60.564 12.0332 60.6298 11.7825C60.6949 11.5318 60.7281 11.2752 60.7281 11.0129C60.7281 10.7581 60.6955 10.5039 60.6298 10.2491C60.5646 9.99432 60.4621 9.76869 60.3236 9.57221C60.1851 9.37573 60.0075 9.21539 59.7922 9.09179C59.5762 8.96819 59.3224 8.90639 59.0297 8.90639C58.7369 8.90639 58.4825 8.96819 58.2672 9.09179C58.0512 9.21539 57.8743 9.37514 57.7358 9.57221C57.5972 9.76927 57.4948 9.9949 57.4296 10.2491C57.3638 10.5039 57.3312 10.7581 57.3312 11.0129C57.3312 11.2752 57.3638 11.5318 57.4296 11.7825C57.4948 12.0332 57.5972 12.2588 57.7358 12.4593C57.8743 12.6599 58.0512 12.822 58.2672 12.9456C58.4831 13.0692 58.7369 13.131 59.0297 13.131ZM62.4266 8.02719H63.4202V6.23322H64.7374V8.02719H65.9277V9.01075H64.7374V12.2051C64.7374 12.3439 64.7432 12.464 64.7548 12.5637C64.7665 12.664 64.7932 12.7491 64.8357 12.8185C64.8782 12.8879 64.9417 12.9398 65.0266 12.9747C65.111 13.0097 65.2269 13.0266 65.373 13.0266C65.4655 13.0266 65.5581 13.0249 65.65 13.0208C65.7426 13.0167 65.8351 13.0033 65.9271 12.9806V13.9991C65.7804 14.0143 65.6384 14.03 65.4999 14.0452C65.3613 14.0603 65.2187 14.0685 65.0726 14.0685C64.7257 14.0685 64.4469 14.0358 64.235 13.97C64.0232 13.9047 63.8573 13.8079 63.738 13.6808C63.6186 13.5537 63.5377 13.3934 63.4952 13.2004C63.4528 13.0074 63.4277 12.7876 63.4202 12.541V9.01134H62.4266V8.02719Z" fill="#222222"/>
<path d="M15.7827 5.74746L9.75023 5.7463L7.88647 0L6.02271 5.74571L-0.00976562 5.74455L4.87081 9.2975L3.00705 15.045L7.88705 11.4932L12.7659 15.045L10.9021 9.29925L15.7827 5.74746Z" fill="#304358"/>
<path d="M11.3243 10.6018L10.9018 9.29932L7.88672 11.4932L11.3243 10.6018Z" fill="#005128"/>
</g>
<path d="M14.2456 19H1.99023V31H14.2456V19Z" fill="#304358"/>
<path d="M12.0536 24.1352L9.04636 24.1348L8.11738 21.3347L7.1884 24.1344L4.18115 24.134L6.61436 25.865L5.68498 28.6655L8.11778 26.9349L10.5494 28.6655L9.6208 25.8658L12.0536 24.1352Z" fill="white"/>
<path d="M9.8318 26.5006L9.62118 25.8657L8.11816 26.9349L9.8318 26.5006Z" fill="#304358"/>
<path d="M27.1822 19H14.9268V31H27.1822V19Z" fill="#304358"/>
<path d="M24.9896 24.1352L21.9824 24.1348L21.0534 21.3347L20.1244 24.1344L17.1172 24.134L19.5504 25.865L18.621 28.6655L21.0538 26.9349L23.4858 28.6655L22.5568 25.8658L24.9896 24.1352Z" fill="white"/>
<path d="M22.7678 26.5006L22.5572 25.8657L21.0542 26.9349L22.7678 26.5006Z" fill="#304358"/>
<path d="M40.1177 19H27.8623V31H40.1177V19Z" fill="#304358"/>
<path d="M37.9261 24.1352L34.9189 24.1348L33.9899 21.3347L33.0609 24.1344L30.0537 24.134L32.4869 25.865L31.5575 28.6655L33.9903 26.9349L36.4223 28.6655L35.4933 25.8658L37.9261 24.1352Z" fill="white"/>
<path d="M35.7043 26.5006L35.4937 25.8657L33.9907 26.9349L35.7043 26.5006Z" fill="#304358"/>
<path d="M53.0537 19H40.7983V31H53.0537V19Z" fill="#304358"/>
<path d="M50.8627 24.1352L47.8554 24.1348L46.9265 21.3347L45.9975 24.1344L42.9902 24.134L45.4234 25.865L44.4941 28.6655L46.9269 26.9349L49.3589 28.6655L48.4299 25.8658L50.8627 24.1352Z" fill="white"/>
<path d="M48.6413 26.5006L48.4307 25.8657L46.9277 26.9349L48.6413 26.5006Z" fill="#304358"/>
<path d="M65.9903 19H53.7349V31H65.9903V19Z" fill="#304358"/>
<path d="M63.7992 24.1352L60.792 24.1348L59.863 21.3347L58.934 24.1344L55.9268 24.134L58.36 25.865L57.4306 28.6655L59.8634 26.9349L62.2954 28.6655L61.3664 25.8658L63.7992 24.1352Z" fill="white"/>
<path d="M61.5774 26.5006L61.3668 25.8657L59.8638 26.9349L61.5774 26.5006Z" fill="#304358"/>
</g>
</g>
</g>
<defs>
<clipPath id="clip0_173_426">
<rect width="66" height="31" fill="white" transform="translate(-0.00976562)"/>
</clipPath>
<clipPath id="clip1_173_426">
<rect width="66" height="31" fill="white" transform="translate(-0.00976562)"/>
</clipPath>
<clipPath id="clip2_173_426">
<rect width="66" height="31" fill="white" transform="translate(-0.00976562)"/>
</clipPath>
</defs>
</svg>
