<svg width="49" height="49" viewBox="0 0 49 49" fill="none" xmlns="http://www.w3.org/2000/svg">
<g clip-path="url(#clip0_173_1353)">
<g clip-path="url(#clip1_173_1353)">
<path d="M24.4096 0.799805C11.1923 0.799805 0.476074 11.5458 0.476074 24.7998C0.476074 38.0538 11.1923 48.7998 24.4096 48.7998C37.6269 48.7998 48.3432 38.0538 48.3432 24.7998C48.3432 11.5458 37.6269 0.799805 24.4096 0.799805ZM36.508 20.0898C36.873 28.1698 30.8637 37.1778 20.2253 37.1778C16.9902 37.1778 13.9806 36.2258 11.4456 34.5958C14.4852 34.9558 17.5188 34.1078 19.9261 32.2178C17.421 32.1718 15.3049 30.5098 14.5729 28.2278C15.4724 28.3998 16.358 28.3498 17.1618 28.1298C14.4074 27.5738 12.5047 25.0858 12.5665 22.4238C13.3404 22.8538 14.2219 23.1118 15.1613 23.1418C12.6104 21.4318 11.8884 18.0538 13.3882 15.4718C16.2124 18.9478 20.4347 21.2338 25.1954 21.4738C24.3598 17.8818 27.0782 14.4198 30.7779 14.4198C32.4234 14.4198 33.9132 15.1178 34.9583 16.2338C36.2627 15.9778 37.4913 15.4978 38.5962 14.8398C38.1674 16.1818 37.2599 17.3058 36.0772 18.0178C37.236 17.8778 38.3409 17.5698 39.3661 17.1118C38.6002 18.2678 37.6309 19.2798 36.508 20.0898Z" fill="#00CFFF"/>
</g>
</g>
<defs>
<clipPath id="clip0_173_1353">
<rect width="49" height="48" fill="white" transform="translate(0 0.799805)"/>
</clipPath>
<clipPath id="clip1_173_1353">
<rect width="49" height="48" fill="white" transform="translate(0 0.799805)"/>
</clipPath>
</defs>
</svg>
