<svg width="355" height="59" viewBox="0 0 355 59" fill="none" xmlns="http://www.w3.org/2000/svg">
<g clip-path="url(#clip0_173_2017)">
<g clip-path="url(#clip1_173_2017)">
<path d="M10.9431 43.7908L-0.651367 2.29816H6.05781L15.2422 37.3422L24.9477 2.29816H32.3083L41.9486 37.3422L51.1982 2.29816H57.3862L45.8569 43.7908H38.1707L28.4651 8.68165L18.6945 43.7908H10.9431Z" fill="#F36B21"/>
<path d="M78.2304 43.7905L78.035 38.9051C76.0809 42.3574 72.7588 44.507 68.2643 44.507C62.6628 44.507 57.9077 41.7712 57.9077 35.3226C57.9077 27.2455 65.2029 24.7703 74.3221 24.7703C75.1038 24.7703 76.8625 24.7703 77.7744 24.8354V23.5327C77.7744 18.973 75.6249 16.4978 70.6744 16.4978C67.4827 16.4978 64.3563 17.2143 61.5554 18.973L61.2297 14.0877C64.1609 12.9152 68.1341 12.0033 71.3258 12.0033C79.3377 12.0033 83.9625 15.4556 83.9625 23.7932V36.8207C83.9625 39.4914 84.0928 41.5758 84.3533 43.7253H78.2304V43.7905ZM76.146 28.5483C69.9579 28.5483 64.0958 29.395 64.0958 34.8666C64.0958 38.384 66.4405 39.8822 69.7625 39.8822C75.4295 39.8822 77.8396 35.3877 77.8396 30.1767V28.4831H76.146V28.5483Z" fill="#F36B21"/>
<path d="M89.6294 43.7909V19.8202C89.6294 17.4101 89.5643 15.0652 89.3037 12.6551H95.1661L95.3615 18.6477C96.6643 15.3257 99.7909 12.0688 103.829 12.0688C104.741 12.0688 105.523 12.0688 106.435 12.3294L106.109 18.2569C105.328 17.9312 104.481 17.8661 103.569 17.8661C97.3808 17.8661 95.8826 24.1844 95.8826 29.0046V43.7909H89.6294Z" fill="#F36B21"/>
<path d="M110.279 43.7909V19.8202C110.279 17.4101 110.214 15.0652 109.953 12.6551H115.816L116.011 18.6477C117.314 15.3257 120.44 12.0688 124.479 12.0688C125.391 12.0688 126.172 12.0688 127.084 12.3294L126.759 18.2569C125.977 17.9312 125.13 17.8661 124.218 17.8661C118.03 17.8661 116.532 24.1844 116.532 29.0046V43.7909H110.279Z" fill="#F36B21"/>
<path d="M148.122 43.7909L147.927 38.9055C145.973 42.3578 142.651 44.5074 138.156 44.5074C132.554 44.5074 127.799 41.7716 127.799 35.323C127.799 27.2459 135.095 24.7707 144.214 24.7707C144.996 24.7707 146.754 24.7707 147.666 24.8358V23.5331C147.666 18.9734 145.517 16.4982 140.566 16.4982C137.375 16.4982 134.248 17.2147 131.447 18.9734L131.056 14.1533C133.987 12.9808 137.961 12.0688 141.153 12.0688C149.164 12.0688 153.789 15.5211 153.789 23.8588V36.8863C153.789 39.5569 153.919 41.6413 154.18 43.7909H148.122ZM146.103 28.5487C139.915 28.5487 134.053 29.3955 134.053 34.867C134.053 38.3844 136.397 39.8826 139.719 39.8826C145.386 39.8826 147.797 35.3881 147.797 30.1771V28.4835H146.103V28.5487Z" fill="#F36B21"/>
<path d="M159.522 43.9858V20.0151C159.522 17.605 159.457 15.2601 159.196 12.85H165.059L165.254 18.1913C167.404 14.2179 170.791 12.1986 175.35 12.1986C183.037 12.1986 185.772 17.0839 185.772 24.2491V43.9206H179.519V25.617C179.519 21.2527 178.672 17.0839 173.331 17.0839C167.534 17.0839 165.71 22.0995 165.71 27.05V43.9858H159.522Z" fill="#F36B21"/>
<path d="M207.725 43.5949C205.77 44.3114 203.686 44.6371 201.732 44.6371C195.088 44.6371 193.85 40.0124 193.85 34.0197V17.3445H188.118V12.85H193.85V6.1408L200.103 4.0564V12.85H207.138V17.3445H200.169V34.7362C200.169 37.4068 200.82 39.6867 204.012 39.6867C205.184 39.6867 206.292 39.4261 207.464 38.9701L207.725 43.5949Z" fill="#F36B21"/>
<path d="M211.567 52.8445C212.61 53.1702 213.652 53.3004 214.629 53.3004C217.821 53.3004 219.123 51.216 220.426 47.0472L221.078 45.0931L209.939 12.85H216.713L224.334 38.4491L231.825 12.85H238.144L226.289 48.1546C224.595 52.9747 222.38 58.1206 215.866 58.1206C214.238 58.1206 212.74 57.9903 211.307 57.6646L211.567 52.8445Z" fill="#F36B21"/>
<path d="M249.737 43.9858L240.292 12.85H246.806L253.971 38.6445L261.267 12.85H268.692L275.988 38.6445L283.088 12.85H289.015L279.701 43.9858H272.015L264.784 18.061L257.424 43.9858H249.737Z" fill="white"/>
<path d="M292.729 0.408936H298.982V6.46673H292.729V0.408936ZM292.729 12.8502H298.982V43.986H292.729V12.8502Z" fill="white"/>
<path d="M304.062 38.3843C306.732 39.687 309.142 40.2733 312.074 40.2733C315.396 40.2733 318.001 39.0357 318.001 35.5834C318.001 28.5485 304.062 30.698 304.062 20.9274C304.062 14.3485 309.924 12.2641 315.396 12.2641C318.197 12.2641 320.607 12.6549 323.017 13.5669L322.626 18.1265C320.346 17.2146 318.001 16.6935 315.656 16.6935C312.92 16.6935 310.054 17.41 310.054 20.6017C310.054 26.5944 324.124 24.6402 324.124 35.1925C324.124 41.9669 317.936 44.6375 312.269 44.6375C309.208 44.6375 306.732 44.3118 303.671 43.3347L304.062 38.3843Z" fill="white"/>
<path d="M333.635 29.7861C333.635 35.5182 337.152 40.2733 343.992 40.2733C346.793 40.2733 349.919 39.6219 352.395 38.3191L352.785 42.9439C349.854 44.1164 346.597 44.6375 343.145 44.6375C332.658 44.6375 327.251 37.9935 327.251 28.288C327.251 19.7549 332.528 12.2641 341.517 12.2641C351.287 12.2641 354.544 19.1687 354.544 27.9623V29.8513H333.635V29.7861ZM348.486 25.943C348.486 21.188 347.118 16.5632 341.517 16.5632C336.24 16.5632 333.765 21.4485 333.57 25.943H348.486Z" fill="white"/>
</g>
</g>
<defs>
<clipPath id="clip0_173_2017">
<rect width="355" height="57.99" fill="white" transform="translate(0 0.400146)"/>
</clipPath>
<clipPath id="clip1_173_2017">
<rect width="355" height="57.9725" fill="white" transform="translate(0 0.408936)"/>
</clipPath>
</defs>
</svg>
